<svg xmlns="http://www.w3.org/2000/svg" xmlns:xlink="http://www.w3.org/1999/xlink" zoomAndPan="magnify" preserveAspectRatio="xMidYMid meet" version="1.0" viewBox="87.11 87.75 200.89 196.91"><defs><g/><clipPath id="c9a6a6cf10"><path d="M 87.109375 160.117188 L 288 160.117188 L 288 244 L 87.109375 244 Z M 87.109375 160.117188 " clip-rule="nonzero"/></clipPath><clipPath id="50688f3175"><path d="M 119.382812 87.746094 L 255.882812 87.746094 L 255.882812 206.996094 L 119.382812 206.996094 Z M 119.382812 87.746094 " clip-rule="nonzero"/></clipPath><clipPath id="a79037ece0"><path d="M 246.277344 258.355469 L 261.277344 258.355469 L 261.277344 263.605469 L 246.277344 263.605469 Z M 246.277344 258.355469 " clip-rule="nonzero"/></clipPath><clipPath id="9aefba3a1a"><path d="M 112.292969 258.355469 L 127.023438 258.355469 L 127.023438 263.605469 L 112.292969 263.605469 Z M 112.292969 258.355469 " clip-rule="nonzero"/></clipPath></defs><g clip-path="url(#c9a6a6cf10)"><path fill="#ffffff" d="M 187.496094 243.929688 C 186.125 243.28125 184.734375 242.582031 183.363281 241.859375 C 183.265625 241.808594 183.15625 241.777344 183.042969 241.773438 C 173 241.359375 163.21875 239.535156 153.703125 236.292969 C 144.183594 233.054688 135.320312 228.53125 127.109375 222.730469 C 118.910156 216.941406 111.683594 210.117188 105.4375 202.257812 C 99.175781 194.398438 94.15625 185.8125 90.371094 176.5 C 90.34375 176.429688 90.300781 176.363281 90.25 176.300781 C 89.265625 175.125 88.285156 173.890625 87.320312 172.617188 C 88.421875 173.035156 89.527344 173.4375 90.632812 173.8125 C 94.332031 183.558594 99.390625 192.535156 105.808594 200.746094 C 112.28125 209.050781 119.847656 216.203125 128.5 222.203125 C 137.164062 228.226562 146.527344 232.808594 156.597656 235.949219 C 166.644531 239.085938 176.929688 240.648438 187.453125 240.640625 L 187.542969 240.640625 C 198.066406 240.648438 208.351562 239.085938 218.398438 235.949219 C 228.46875 232.808594 237.832031 228.226562 246.492188 222.203125 C 255.148438 216.203125 262.710938 209.050781 269.191406 200.746094 C 275.605469 192.535156 280.664062 183.558594 284.363281 173.816406 C 285.46875 173.441406 286.574219 173.039062 287.675781 172.617188 C 286.710938 173.890625 285.730469 175.125 284.746094 176.300781 C 284.695312 176.363281 284.65625 176.429688 284.625 176.5 C 280.84375 185.8125 275.820312 194.398438 269.5625 202.261719 C 263.316406 210.117188 256.089844 216.9375 247.890625 222.726562 C 239.679688 228.53125 230.816406 233.050781 221.296875 236.289062 C 211.78125 239.53125 202 241.359375 191.957031 241.773438 C 191.84375 241.777344 191.734375 241.804688 191.636719 241.859375 C 190.265625 242.582031 188.875 243.277344 187.496094 243.929688 Z M 187.496094 207.476562 C 180.328125 207.488281 173.324219 206.425781 166.480469 204.292969 C 159.644531 202.160156 153.289062 199.050781 147.410156 194.960938 C 141.515625 190.875 136.363281 186 131.949219 180.34375 C 127.628906 174.816406 124.214844 168.777344 121.707031 162.226562 C 122.308594 161.511719 122.925781 160.808594 123.554688 160.117188 C 123.453125 161 123.367188 161.882812 123.304688 162.75 C 123.296875 162.867188 123.316406 162.980469 123.359375 163.085938 C 125.953125 169.464844 129.421875 175.324219 133.773438 180.664062 C 138.117188 186.015625 143.148438 190.621094 148.863281 194.472656 C 154.5625 198.324219 160.703125 201.25 167.285156 203.257812 C 173.871094 205.261719 180.609375 206.261719 187.496094 206.253906 C 194.386719 206.261719 201.125 205.265625 207.710938 203.257812 C 214.292969 201.253906 220.429688 198.324219 226.132812 194.472656 C 231.847656 190.621094 236.878906 186.015625 241.222656 180.667969 C 245.570312 175.328125 249.039062 169.46875 251.632812 163.089844 C 251.675781 162.980469 251.695312 162.867188 251.6875 162.75 C 251.625 161.882812 251.539062 161 251.4375 160.117188 C 252.0625 160.804688 252.683594 161.511719 253.289062 162.226562 C 250.78125 168.777344 247.367188 174.816406 243.046875 180.34375 C 238.632812 186 233.480469 190.875 227.585938 194.960938 C 221.707031 199.050781 215.351562 202.160156 208.515625 204.292969 C 201.679688 206.425781 194.679688 207.488281 187.515625 207.480469 Z M 187.496094 207.476562 " fill-opacity="1" fill-rule="evenodd"/></g><g clip-path="url(#50688f3175)"><path fill="#ffffff" d="M 255.539062 131.238281 C 255.371094 129.746094 255.347656 128.253906 255.46875 126.757812 C 255.519531 123.414062 255.179688 120.113281 254.453125 116.851562 C 253.722656 113.589844 252.625 110.460938 251.160156 107.457031 C 248.007812 100.949219 243.703125 95.328125 238.242188 90.589844 C 237.714844 90.121094 237.101562 89.898438 236.394531 89.921875 C 234.679688 89.964844 232.972656 89.855469 231.273438 89.59375 C 229.597656 89.328125 227.949219 88.941406 226.328125 88.429688 C 226.089844 88.355469 225.84375 88.320312 225.59375 88.332031 C 225.34375 88.34375 225.101562 88.398438 224.871094 88.492188 C 224.640625 88.589844 224.433594 88.722656 224.246094 88.890625 C 224.0625 89.058594 223.910156 89.253906 223.792969 89.476562 C 223.4375 90.140625 223.039062 90.78125 222.597656 91.390625 C 222.316406 91.777344 222.03125 92.140625 221.742188 92.484375 C 221.496094 92.777344 221.265625 93.015625 221.066406 93.273438 C 220.792969 93.636719 220.621094 94.039062 220.554688 94.488281 C 220.488281 94.933594 220.535156 95.371094 220.695312 95.792969 C 220.839844 96.183594 221.011719 96.558594 221.21875 96.921875 C 221.359375 97.167969 221.511719 97.398438 221.667969 97.613281 C 221.582031 98.042969 221.550781 98.472656 221.574219 98.90625 C 221.707031 100.722656 223.148438 100.671875 224.601562 100.59375 C 225.660156 100.535156 226.765625 100.335938 227.199219 99.988281 C 228.058594 100.480469 228.984375 100.695312 229.972656 100.640625 C 231.164062 100.566406 232.246094 100.175781 233.210938 99.472656 C 234.035156 99.71875 234.878906 99.828125 235.738281 99.804688 C 237.589844 102.378906 237.496094 106.578125 237.398438 110.847656 C 237.261719 113.417969 237.34375 115.984375 237.652344 118.542969 C 237.664062 118.628906 237.714844 118.683594 237.800781 118.695312 C 241.9375 119.421875 245.027344 125.214844 249.601562 127.335938 C 249.648438 127.359375 249.667969 127.394531 249.652344 127.445312 C 249.636719 127.496094 249.601562 127.519531 249.550781 127.511719 C 246.195312 127.136719 243.886719 124.371094 240.972656 122.339844 C 237.792969 120.117188 234.078125 119.679688 230.304688 120.714844 C 228.277344 121.289062 226.453125 122.253906 224.832031 123.601562 C 220.90625 126.789062 219.316406 131.222656 216.023438 134.464844 C 215.984375 134.503906 215.941406 134.503906 215.898438 134.46875 C 215.855469 134.433594 215.851562 134.390625 215.882812 134.34375 C 219.28125 129.289062 220.425781 123.640625 226.027344 120.332031 C 226.09375 120.292969 226.125 120.238281 226.121094 120.160156 C 226.117188 120.085938 226.082031 120.03125 226.011719 120 C 222.816406 118.609375 219.488281 118.097656 216.023438 118.46875 C 213.996094 118.644531 212.078125 119.207031 210.28125 120.160156 C 208.480469 121.113281 206.9375 122.382812 205.65625 123.964844 C 205.625 124.003906 205.585938 124.011719 205.542969 123.992188 C 205.496094 123.972656 205.476562 123.9375 205.488281 123.890625 C 205.769531 122.429688 206.425781 121.164062 207.453125 120.089844 C 207.5 120.039062 207.515625 119.984375 207.5 119.921875 C 207.484375 119.855469 207.445312 119.8125 207.382812 119.789062 C 205.824219 119.152344 204.351562 118.367188 202.960938 117.421875 C 201.722656 116.578125 200.421875 115.835938 199.066406 115.195312 C 199.003906 115.167969 198.945312 115.175781 198.890625 115.210938 C 198.832031 115.246094 198.804688 115.300781 198.804688 115.367188 C 198.792969 116.703125 198.566406 118 198.128906 119.261719 C 197.6875 120.519531 197.058594 121.675781 196.238281 122.730469 C 196.207031 122.773438 196.167969 122.785156 196.121094 122.757812 C 196.070312 122.730469 196.058594 122.691406 196.078125 122.640625 C 197.226562 119.660156 197.476562 116.605469 196.828125 113.476562 C 197.070312 112.414062 197.175781 111.335938 197.144531 110.246094 C 197.382812 110.164062 197.585938 110.027344 197.75 109.839844 C 198.796875 108.707031 200.347656 103.5 199.324219 102.304688 C 199.109375 102.023438 198.824219 101.867188 198.472656 101.832031 C 198.515625 101.398438 198.546875 100.957031 198.566406 100.511719 C 198.636719 99.121094 198.570312 97.734375 198.367188 96.355469 C 198.257812 95.527344 198.082031 94.710938 197.835938 93.910156 C 197.621094 93.210938 197.28125 92.574219 196.820312 92 C 194.980469 89.742188 190.492188 87.773438 187.496094 87.773438 C 184.503906 87.773438 180.019531 89.742188 178.179688 92 C 177.71875 92.574219 177.378906 93.210938 177.160156 93.910156 C 176.917969 94.710938 176.742188 95.527344 176.632812 96.355469 C 176.429688 97.734375 176.363281 99.117188 176.429688 100.507812 C 176.453125 100.957031 176.484375 101.398438 176.527344 101.832031 C 176.171875 101.867188 175.890625 102.023438 175.675781 102.304688 C 174.652344 103.5 176.203125 108.703125 177.246094 109.839844 C 177.414062 110.027344 177.617188 110.164062 177.855469 110.246094 C 177.820312 111.335938 177.925781 112.414062 178.167969 113.476562 C 177.523438 116.605469 177.773438 119.660156 178.921875 122.640625 C 178.941406 122.691406 178.925781 122.730469 178.878906 122.753906 C 178.832031 122.78125 178.792969 122.773438 178.757812 122.726562 C 177.941406 121.675781 177.3125 120.519531 176.871094 119.257812 C 176.433594 118 176.207031 116.703125 176.195312 115.367188 C 176.195312 115.300781 176.167969 115.246094 176.113281 115.210938 C 176.054688 115.171875 175.996094 115.167969 175.933594 115.195312 C 174.578125 115.835938 173.28125 116.578125 172.039062 117.421875 C 170.648438 118.363281 169.175781 119.152344 167.617188 119.789062 C 167.554688 119.808594 167.515625 119.855469 167.5 119.917969 C 167.488281 119.984375 167.5 120.039062 167.546875 120.089844 C 168.574219 121.164062 169.230469 122.429688 169.511719 123.890625 C 169.519531 123.9375 169.503906 123.972656 169.457031 123.992188 C 169.414062 124.011719 169.375 124.003906 169.347656 123.964844 C 168.0625 122.382812 166.519531 121.113281 164.71875 120.160156 C 162.921875 119.203125 161.003906 118.640625 158.976562 118.464844 C 155.511719 118.097656 152.179688 118.605469 148.988281 120 C 148.917969 120.03125 148.878906 120.082031 148.875 120.160156 C 148.871094 120.234375 148.902344 120.292969 148.96875 120.328125 C 154.570312 123.636719 155.71875 129.289062 159.117188 134.34375 C 159.148438 134.390625 159.144531 134.429688 159.101562 134.46875 C 159.054688 134.503906 159.011719 134.503906 158.972656 134.460938 C 155.683594 131.222656 154.089844 126.789062 150.164062 123.601562 C 148.542969 122.25 146.71875 121.289062 144.691406 120.710938 C 140.917969 119.679688 137.203125 120.113281 134.023438 122.335938 C 131.109375 124.371094 128.800781 127.136719 125.445312 127.511719 C 125.398438 127.511719 125.367188 127.488281 125.355469 127.445312 C 125.339844 127.398438 125.355469 127.363281 125.398438 127.339844 C 129.972656 125.214844 133.058594 119.425781 137.191406 118.699219 C 137.28125 118.683594 137.332031 118.632812 137.34375 118.542969 C 137.652344 115.984375 137.734375 113.421875 137.597656 110.847656 C 137.5 106.582031 137.402344 102.382812 139.261719 99.804688 C 140.121094 99.828125 140.960938 99.71875 141.785156 99.476562 C 142.75 100.175781 143.832031 100.566406 145.023438 100.644531 C 146.011719 100.699219 146.9375 100.480469 147.796875 99.988281 C 148.226562 100.335938 149.335938 100.535156 150.394531 100.59375 C 151.847656 100.671875 153.289062 100.722656 153.425781 98.90625 C 153.445312 98.472656 153.414062 98.042969 153.332031 97.617188 C 153.484375 97.398438 153.640625 97.164062 153.777344 96.921875 C 153.984375 96.5625 154.160156 96.1875 154.300781 95.796875 C 154.460938 95.371094 154.507812 94.9375 154.441406 94.488281 C 154.375 94.039062 154.207031 93.636719 153.929688 93.277344 C 153.734375 93.015625 153.496094 92.78125 153.253906 92.488281 C 152.964844 92.144531 152.679688 91.78125 152.402344 91.394531 C 151.957031 90.78125 151.558594 90.144531 151.203125 89.476562 C 151.085938 89.253906 150.933594 89.058594 150.75 88.890625 C 150.566406 88.722656 150.355469 88.589844 150.125 88.496094 C 149.894531 88.398438 149.652344 88.34375 149.402344 88.335938 C 149.152344 88.324219 148.90625 88.355469 148.667969 88.429688 C 147.050781 88.941406 145.402344 89.328125 143.726562 89.59375 C 142.03125 89.855469 140.320312 89.964844 138.601562 89.921875 C 137.898438 89.898438 137.28125 90.121094 136.753906 90.589844 C 131.292969 95.328125 126.988281 100.949219 123.839844 107.457031 C 122.371094 110.460938 121.273438 113.589844 120.542969 116.851562 C 119.816406 120.113281 119.476562 123.414062 119.527344 126.757812 C 119.648438 128.253906 119.625 129.746094 119.457031 131.238281 C 119.234375 132.019531 119.363281 132.738281 119.835938 133.394531 C 120.710938 134.546875 123.085938 135.328125 124.414062 135.65625 C 127.832031 136.507812 131.617188 136.390625 134.851562 136.246094 C 134.90625 136.246094 134.9375 136.269531 134.949219 136.324219 C 134.957031 136.375 134.9375 136.410156 134.886719 136.429688 C 132.46875 137.210938 129.988281 137.625 127.449219 137.679688 C 127.367188 137.679688 127.308594 137.71875 127.277344 137.796875 C 127.25 137.875 127.265625 137.945312 127.328125 138 C 128.894531 139.507812 130.699219 140.632812 132.742188 141.378906 C 134.265625 141.921875 135.832031 142.207031 137.445312 142.238281 C 139.863281 142.292969 142.050781 141.699219 144.257812 141.101562 C 146.398438 140.523438 149.730469 139.625 151.941406 140.117188 C 152.523438 140.238281 153.023438 140.503906 153.449219 140.921875 C 154.773438 142.226562 155.648438 145.722656 156.164062 147.5 C 157.660156 152.664062 159.339844 157.636719 162.105469 162.28125 C 164.644531 166.128906 167.761719 169.425781 171.457031 172.179688 C 170.003906 171.871094 168.628906 171.347656 167.34375 170.605469 C 167.226562 170.535156 167.136719 170.558594 167.078125 170.679688 C 165.851562 173.121094 165.308594 178.988281 166.082031 182.59375 C 166.097656 182.65625 166.136719 182.703125 166.195312 182.726562 C 171.699219 184.933594 175.816406 191.472656 176.628906 197.34375 C 176.636719 197.394531 176.613281 197.429688 176.5625 197.445312 C 176.511719 197.460938 176.476562 197.441406 176.453125 197.394531 C 174.175781 192.421875 170.902344 187.269531 166.324219 185.09375 C 166.277344 185.070312 166.226562 185.066406 166.175781 185.085938 C 166.125 185.105469 166.089844 185.140625 166.070312 185.191406 C 165.507812 186.605469 165.078125 188.054688 164.777344 189.542969 C 164.4375 191.230469 164.296875 192.929688 164.355469 194.648438 C 162.445312 195.894531 160.816406 197.445312 159.472656 199.289062 C 159.128906 199.753906 158.804688 200.230469 158.496094 200.71875 C 161.484375 202.140625 164.558594 203.332031 167.722656 204.296875 C 170.929688 205.269531 174.191406 206 177.503906 206.492188 C 180.816406 206.984375 184.148438 207.226562 187.5 207.226562 C 190.847656 207.226562 194.179688 206.984375 197.496094 206.492188 C 200.808594 206 204.070312 205.269531 207.273438 204.296875 C 210.441406 203.332031 213.515625 202.140625 216.503906 200.71875 C 216.195312 200.230469 215.871094 199.757812 215.527344 199.289062 C 214.183594 197.445312 212.554688 195.894531 210.644531 194.644531 C 210.703125 192.929688 210.5625 191.226562 210.222656 189.542969 C 209.921875 188.054688 209.492188 186.605469 208.929688 185.191406 C 208.910156 185.140625 208.875 185.105469 208.820312 185.085938 C 208.773438 185.066406 208.722656 185.070312 208.671875 185.09375 C 204.09375 187.273438 200.824219 192.421875 198.546875 197.398438 C 198.523438 197.445312 198.488281 197.460938 198.4375 197.445312 C 198.386719 197.429688 198.363281 197.398438 198.371094 197.34375 C 199.179688 191.476562 203.296875 184.9375 208.804688 182.726562 C 208.863281 182.703125 208.902344 182.660156 208.917969 182.597656 C 209.691406 178.992188 209.148438 173.121094 207.921875 170.683594 C 207.898438 170.632812 207.859375 170.601562 207.804688 170.585938 C 207.753906 170.570312 207.703125 170.578125 207.660156 170.609375 C 206.371094 171.351562 204.996094 171.875 203.542969 172.179688 C 207.238281 169.429688 210.355469 166.128906 212.890625 162.28125 C 215.660156 157.636719 217.339844 152.667969 218.835938 147.5 C 219.351562 145.726562 220.226562 142.230469 221.550781 140.925781 C 221.972656 140.507812 222.476562 140.242188 223.058594 140.121094 C 225.269531 139.625 228.601562 140.527344 230.738281 141.101562 C 232.945312 141.699219 235.136719 142.292969 237.550781 142.238281 C 239.167969 142.207031 240.734375 141.921875 242.257812 141.382812 C 244.300781 140.636719 246.105469 139.511719 247.671875 138.003906 C 247.734375 137.945312 247.75 137.878906 247.71875 137.800781 C 247.691406 137.722656 247.632812 137.683594 247.546875 137.679688 C 245.007812 137.628906 242.527344 137.207031 240.109375 136.425781 C 240.058594 136.410156 240.039062 136.375 240.050781 136.320312 C 240.058594 136.265625 240.089844 136.242188 240.144531 136.242188 C 243.378906 136.386719 247.164062 136.503906 250.585938 135.65625 C 251.90625 135.324219 254.285156 134.542969 255.160156 133.394531 C 255.632812 132.734375 255.761719 132.015625 255.539062 131.238281 Z M 248.328125 123.496094 C 248.324219 123.546875 248.292969 123.574219 248.238281 123.574219 C 248.183594 123.574219 248.152344 123.546875 248.144531 123.496094 C 247.609375 119.84375 247.109375 117.757812 245.097656 114.164062 C 242.761719 109.976562 239.851562 105.609375 240.917969 101.5625 C 240.929688 101.519531 240.960938 101.496094 241.003906 101.492188 C 241.050781 101.488281 241.082031 101.507812 241.097656 101.550781 C 241.441406 102.40625 241.933594 103.164062 242.574219 103.824219 C 243.210938 104.488281 243.949219 105.007812 244.789062 105.382812 C 244.832031 105.40625 244.847656 105.4375 244.839844 105.484375 C 244.832031 105.53125 244.804688 105.554688 244.757812 105.558594 C 244.003906 105.605469 243.277344 105.480469 242.585938 105.175781 C 242.550781 105.15625 242.519531 105.164062 242.488281 105.1875 C 242.460938 105.210938 242.449219 105.242188 242.457031 105.277344 C 243.078125 108.003906 245.140625 111.136719 246.414062 113.625 C 248.050781 116.8125 248.820312 119.976562 248.328125 123.496094 Z M 128.582031 113.625 C 129.855469 111.136719 131.917969 108.003906 132.539062 105.28125 C 132.550781 105.242188 132.539062 105.214844 132.507812 105.191406 C 132.476562 105.164062 132.445312 105.160156 132.410156 105.175781 C 131.71875 105.480469 130.996094 105.609375 130.242188 105.5625 C 130.195312 105.558594 130.167969 105.53125 130.160156 105.488281 C 130.148438 105.441406 130.164062 105.40625 130.207031 105.386719 C 131.046875 105.007812 131.785156 104.488281 132.425781 103.828125 C 133.0625 103.164062 133.554688 102.40625 133.902344 101.554688 C 133.917969 101.511719 133.949219 101.492188 133.992188 101.496094 C 134.039062 101.496094 134.066406 101.519531 134.078125 101.5625 C 135.144531 105.609375 132.238281 109.980469 129.898438 114.164062 C 127.886719 117.761719 127.390625 119.847656 126.851562 123.5 C 126.84375 123.554688 126.8125 123.582031 126.757812 123.582031 C 126.703125 123.582031 126.675781 123.554688 126.667969 123.5 C 126.175781 119.976562 126.945312 116.8125 128.582031 113.625 Z M 149.734375 131.492188 C 148.140625 131.46875 146.5625 131.605469 144.996094 131.90625 C 143.222656 132.242188 141.417969 132.871094 139.371094 133.257812 C 138.347656 133.453125 137.316406 133.546875 136.277344 133.53125 C 135.269531 133.511719 134.273438 133.386719 133.292969 133.148438 C 131.644531 132.773438 130.128906 132.101562 128.738281 131.144531 C 128.695312 131.113281 128.683594 131.074219 128.707031 131.027344 C 128.730469 130.980469 128.769531 130.964844 128.820312 130.976562 C 130.351562 131.417969 131.910156 131.6875 133.503906 131.78125 C 135.363281 131.910156 137.203125 131.792969 139.03125 131.425781 C 140.945312 130.972656 142.886719 130.675781 144.847656 130.535156 C 146.535156 130.496094 148.175781 130.753906 149.765625 131.316406 C 149.816406 131.332031 149.835938 131.367188 149.828125 131.417969 C 149.816406 131.472656 149.785156 131.496094 149.734375 131.496094 Z M 210.996094 127.101562 C 211.058594 127.101562 211.089844 127.132812 211.085938 127.195312 C 211.085938 127.257812 211.054688 127.285156 210.992188 127.285156 C 203.476562 128.222656 194.257812 129.683594 189.273438 135.796875 C 189.238281 135.839844 189.199219 135.847656 189.152344 135.820312 C 189.109375 135.792969 189.09375 135.757812 189.113281 135.707031 C 190.542969 131.589844 195.457031 128.796875 199.414062 127.652344 C 203.234375 126.558594 207.097656 126.378906 211 127.101562 Z M 199.917969 120.902344 C 199.941406 120.859375 199.976562 120.84375 200.023438 120.855469 C 200.074219 120.871094 200.09375 120.902344 200.09375 120.949219 C 200.0625 121.722656 199.898438 122.46875 199.601562 123.183594 C 199.21875 124.101562 198.65625 124.898438 197.917969 125.5625 C 197.183594 126.226562 196.34375 126.707031 195.398438 127.007812 C 194.660156 127.242188 193.898438 127.355469 193.121094 127.347656 C 193.074219 127.347656 193.042969 127.324219 193.03125 127.277344 C 193.019531 127.230469 193.035156 127.195312 193.078125 127.171875 C 196.472656 125.292969 197.878906 124.511719 199.917969 120.902344 Z M 179.90625 116.511719 C 179.953125 116.480469 179.992188 116.488281 180.027344 116.53125 C 181.058594 117.9375 182.300781 119.121094 183.753906 120.085938 C 184.332031 120.394531 184.933594 120.628906 185.570312 120.785156 C 186.203125 120.945312 186.847656 121.027344 187.5 121.027344 C 188.152344 121.027344 188.796875 120.945312 189.429688 120.785156 C 190.0625 120.628906 190.667969 120.394531 191.246094 120.085938 C 192.695312 119.121094 193.9375 117.9375 194.96875 116.53125 C 195.003906 116.488281 195.042969 116.480469 195.089844 116.511719 C 195.136719 116.539062 195.152344 116.578125 195.128906 116.628906 C 193.65625 119.941406 190.753906 122.898438 187.5 122.898438 C 184.246094 122.898438 181.339844 119.941406 179.871094 116.628906 C 179.847656 116.578125 179.859375 116.539062 179.90625 116.511719 Z M 174.96875 120.855469 C 175.015625 120.84375 175.050781 120.859375 175.078125 120.902344 C 177.117188 124.511719 178.519531 125.292969 181.917969 127.171875 C 181.960938 127.195312 181.976562 127.230469 181.964844 127.277344 C 181.953125 127.324219 181.921875 127.347656 181.875 127.347656 C 181.09375 127.355469 180.335938 127.242188 179.59375 127.007812 C 178.652344 126.707031 177.8125 126.226562 177.078125 125.5625 C 176.335938 124.898438 175.773438 124.101562 175.390625 123.183594 C 175.09375 122.46875 174.929688 121.722656 174.898438 120.949219 C 174.894531 120.898438 174.921875 120.867188 174.96875 120.855469 Z M 163.996094 127.101562 C 167.898438 126.375 171.761719 126.558594 175.578125 127.648438 C 179.535156 128.796875 184.449219 131.585938 185.878906 135.707031 C 185.898438 135.753906 185.886719 135.792969 185.839844 135.816406 C 185.792969 135.84375 185.753906 135.835938 185.71875 135.796875 C 180.734375 129.679688 171.515625 128.21875 164 127.285156 C 163.949219 127.277344 163.921875 127.246094 163.921875 127.191406 C 163.917969 127.140625 163.945312 127.109375 163.996094 127.101562 Z M 171.082031 160.441406 C 170.066406 160.324219 169.078125 160.089844 168.117188 159.742188 C 167.574219 159.542969 167.050781 159.304688 166.546875 159.027344 C 166.507812 159.007812 166.476562 159.011719 166.441406 159.039062 C 166.410156 159.066406 166.398438 159.101562 166.414062 159.140625 C 166.90625 160.355469 167.582031 161.453125 168.4375 162.445312 C 168.46875 162.480469 168.46875 162.519531 168.4375 162.558594 C 168.410156 162.59375 168.375 162.605469 168.328125 162.585938 C 166.113281 161.722656 164.667969 159.433594 164.101562 157.195312 C 163.402344 156.5 162.808594 155.71875 162.324219 154.855469 C 161.820312 153.957031 161.445312 153.011719 161.191406 152.011719 C 161.179688 151.964844 161.195312 151.929688 161.242188 151.90625 C 161.289062 151.882812 161.328125 151.894531 161.359375 151.933594 C 164.296875 155.859375 166.878906 157.898438 171.136719 160.265625 C 171.179688 160.289062 171.195312 160.328125 171.179688 160.375 C 171.164062 160.425781 171.132812 160.445312 171.082031 160.441406 Z M 176.601562 180.367188 C 176.570312 180.40625 176.53125 180.410156 176.484375 180.386719 C 175.898438 180.039062 175.371094 179.613281 174.910156 179.109375 C 174.289062 178.425781 173.824219 177.648438 173.519531 176.777344 C 173.214844 175.898438 173.097656 175 173.175781 174.074219 C 173.230469 173.375 173.398438 172.703125 173.683594 172.0625 C 173.703125 172.015625 173.738281 171.996094 173.789062 172.007812 C 173.835938 172.019531 173.863281 172.050781 173.863281 172.101562 C 173.828125 175.589844 174.539062 177.609375 176.605469 180.246094 C 176.640625 180.289062 176.640625 180.328125 176.605469 180.367188 Z M 186.148438 197.539062 C 186.128906 197.589844 186.09375 197.605469 186.042969 197.597656 C 184.71875 197.253906 183.53125 196.644531 182.484375 195.765625 C 181.203125 194.71875 180.125 193.496094 179.253906 192.089844 C 177.644531 189.554688 176.816406 186.785156 176.769531 183.78125 C 176.769531 183.726562 176.796875 183.695312 176.847656 183.6875 C 176.902344 183.679688 176.9375 183.699219 176.953125 183.75 C 178.578125 188.722656 182.171875 194.867188 186.113281 197.425781 C 186.160156 197.453125 186.171875 197.492188 186.148438 197.539062 Z M 195.742188 192.089844 C 194.875 193.496094 193.796875 194.71875 192.519531 195.765625 C 191.46875 196.644531 190.28125 197.253906 188.957031 197.597656 C 188.90625 197.609375 188.871094 197.589844 188.851562 197.542969 C 188.828125 197.492188 188.839844 197.453125 188.886719 197.425781 C 192.828125 194.867188 196.417969 188.726562 198.046875 183.75 C 198.0625 183.703125 198.097656 183.679688 198.148438 183.691406 C 198.203125 183.699219 198.230469 183.726562 198.226562 183.78125 C 198.179688 186.785156 197.351562 189.554688 195.742188 192.089844 Z M 201.476562 176.777344 C 201.171875 177.652344 200.707031 178.429688 200.085938 179.109375 C 199.625 179.613281 199.101562 180.039062 198.511719 180.386719 C 198.46875 180.414062 198.429688 180.40625 198.394531 180.367188 C 198.359375 180.328125 198.359375 180.289062 198.394531 180.25 C 200.460938 177.613281 201.171875 175.59375 201.136719 172.101562 C 201.136719 172.050781 201.160156 172.019531 201.210938 172.007812 C 201.261719 172 201.296875 172.015625 201.316406 172.0625 C 201.601562 172.707031 201.769531 173.375 201.824219 174.074219 C 201.898438 175 201.78125 175.902344 201.472656 176.777344 Z M 212.667969 154.859375 C 212.183594 155.71875 211.59375 156.5 210.894531 157.199219 C 210.324219 159.433594 208.878906 161.726562 206.664062 162.589844 C 206.621094 162.605469 206.582031 162.597656 206.554688 162.558594 C 206.527344 162.519531 206.527344 162.484375 206.554688 162.445312 C 207.414062 161.457031 208.089844 160.355469 208.582031 159.144531 C 208.597656 159.101562 208.585938 159.070312 208.554688 159.039062 C 208.523438 159.011719 208.484375 159.007812 208.449219 159.03125 C 207.941406 159.308594 207.417969 159.546875 206.878906 159.742188 C 205.917969 160.089844 204.929688 160.324219 203.914062 160.441406 C 203.863281 160.449219 203.832031 160.425781 203.816406 160.378906 C 203.800781 160.328125 203.8125 160.292969 203.855469 160.269531 C 208.117188 157.898438 210.695312 155.863281 213.636719 151.9375 C 213.667969 151.894531 213.703125 151.886719 213.75 151.910156 C 213.796875 151.929688 213.8125 151.964844 213.800781 152.015625 C 213.550781 153.011719 213.171875 153.960938 212.667969 154.859375 Z M 219.933594 135.632812 C 218.554688 136.28125 217.4375 137.234375 216.582031 138.496094 C 216.011719 139.289062 215.515625 140.121094 215.089844 141 C 213.703125 143.792969 212.785156 146.960938 211.132812 149.578125 C 209.175781 152.824219 206.121094 154.632812 202.53125 155.59375 C 200.648438 156.066406 198.738281 156.21875 196.800781 156.050781 C 194.863281 155.878906 193.011719 155.394531 191.238281 154.597656 C 188.367188 153.605469 188.058594 156.964844 188.566406 158.90625 C 189.410156 162.113281 193.304688 162.800781 196.21875 163.777344 C 196.890625 164 197.546875 164.253906 198.1875 164.546875 C 199.109375 164.960938 199.976562 165.472656 200.792969 166.070312 C 200.839844 166.105469 200.847656 166.144531 200.816406 166.195312 C 200.789062 166.242188 200.75 166.257812 200.699219 166.234375 C 199.796875 165.847656 198.871094 165.539062 197.921875 165.300781 C 196.195312 164.828125 194.445312 164.5 192.664062 164.316406 C 191.515625 164.167969 190.425781 164.363281 189.394531 164.890625 C 187.933594 165.851562 188.1875 168.101562 189.40625 169.15625 C 190.519531 170.121094 192.449219 170.355469 193.960938 170.457031 C 194.871094 170.515625 195.769531 170.574219 196.640625 170.65625 C 196.699219 170.65625 196.726562 170.683594 196.730469 170.742188 C 196.734375 170.796875 196.710938 170.832031 196.652344 170.839844 C 195.832031 171.027344 194.984375 171.203125 194.117188 171.363281 C 191.359375 171.875 188.914062 172.015625 188.550781 175.4375 C 188.367188 177.171875 189.070312 179.070312 190.476562 179.890625 C 191.175781 180.242188 191.914062 180.453125 192.691406 180.523438 C 193.46875 180.597656 194.230469 180.523438 194.980469 180.304688 C 195.03125 180.292969 195.070312 180.3125 195.089844 180.359375 C 195.109375 180.40625 195.101562 180.445312 195.054688 180.476562 C 193.734375 181.339844 192.613281 181.519531 191.085938 181.898438 C 190.289062 182.039062 189.644531 182.429688 189.15625 183.074219 C 188.253906 184.277344 187.894531 186.210938 187.585938 187.828125 C 187.585938 187.890625 187.554688 187.917969 187.492188 187.917969 C 187.429688 187.917969 187.398438 187.890625 187.398438 187.828125 C 187.089844 186.210938 186.726562 184.277344 185.828125 183.074219 C 185.335938 182.429688 184.691406 182.039062 183.894531 181.898438 C 182.371094 181.527344 181.25 181.339844 179.925781 180.476562 C 179.882812 180.445312 179.871094 180.40625 179.894531 180.359375 C 179.914062 180.3125 179.949219 180.292969 180 180.304688 C 180.75 180.523438 181.515625 180.597656 182.292969 180.523438 C 183.070312 180.453125 183.808594 180.242188 184.503906 179.890625 C 185.914062 179.070312 186.617188 177.175781 186.429688 175.4375 C 186.066406 172.015625 183.625 171.875 180.867188 171.363281 C 180.003906 171.203125 179.15625 171.027344 178.332031 170.839844 C 178.269531 170.835938 178.242188 170.800781 178.246094 170.742188 C 178.25 170.679688 178.285156 170.652344 178.347656 170.65625 C 179.21875 170.574219 180.113281 170.519531 181.027344 170.457031 C 182.539062 170.355469 184.46875 170.121094 185.582031 169.15625 C 186.800781 168.105469 187.054688 165.851562 185.59375 164.890625 C 184.5625 164.363281 183.472656 164.167969 182.324219 164.316406 C 180.542969 164.503906 178.792969 164.832031 177.066406 165.300781 C 176.117188 165.539062 175.191406 165.847656 174.289062 166.234375 C 174.238281 166.257812 174.199219 166.242188 174.171875 166.195312 C 174.144531 166.148438 174.152344 166.109375 174.195312 166.074219 C 175.011719 165.472656 175.878906 164.964844 176.800781 164.550781 C 177.441406 164.257812 178.097656 164.003906 178.769531 163.78125 C 181.683594 162.804688 185.578125 162.113281 186.421875 158.910156 C 186.929688 156.96875 186.621094 153.609375 183.753906 154.601562 C 181.980469 155.398438 180.128906 155.878906 178.191406 156.050781 C 176.257812 156.222656 174.347656 156.070312 172.460938 155.597656 C 168.871094 154.632812 165.816406 152.828125 163.859375 149.582031 C 162.210938 146.960938 161.292969 143.796875 159.902344 141.003906 C 159.480469 140.125 158.984375 139.289062 158.410156 138.5 C 157.554688 137.238281 156.4375 136.28125 155.058594 135.636719 C 155.007812 135.609375 154.992188 135.570312 155.011719 135.519531 C 155.027344 135.464844 155.066406 135.445312 155.121094 135.457031 C 156.664062 135.925781 157.96875 136.769531 159.023438 137.988281 C 159.722656 138.75 160.339844 139.574219 160.878906 140.457031 C 163.195312 144.175781 164.988281 148.324219 168.195312 150.972656 C 172.027344 154.140625 180.3125 154.726562 184.023438 151.074219 C 186.144531 148.980469 186.882812 145.703125 187.40625 141.671875 C 187.40625 141.609375 187.4375 141.578125 187.496094 141.578125 C 187.558594 141.578125 187.589844 141.609375 187.589844 141.671875 C 188.113281 145.703125 188.851562 148.980469 190.972656 151.074219 C 194.683594 154.726562 202.964844 154.140625 206.800781 150.972656 C 210.007812 148.324219 211.800781 144.171875 214.117188 140.457031 C 214.65625 139.574219 215.273438 138.75 215.972656 137.988281 C 217.027344 136.769531 218.328125 135.925781 219.875 135.457031 C 219.929688 135.445312 219.964844 135.464844 219.984375 135.519531 C 220.003906 135.570312 219.988281 135.609375 219.9375 135.636719 Z M 246.257812 131.136719 C 244.871094 132.097656 243.351562 132.765625 241.703125 133.144531 C 240.722656 133.382812 239.730469 133.511719 238.722656 133.53125 C 237.679688 133.542969 236.648438 133.453125 235.625 133.257812 C 233.578125 132.871094 231.773438 132.242188 230 131.90625 C 228.433594 131.605469 226.855469 131.46875 225.261719 131.492188 C 225.210938 131.492188 225.179688 131.46875 225.167969 131.414062 C 225.160156 131.363281 225.179688 131.328125 225.230469 131.308594 C 226.820312 130.75 228.460938 130.492188 230.148438 130.53125 C 232.109375 130.671875 234.050781 130.96875 235.964844 131.421875 C 237.792969 131.789062 239.636719 131.90625 241.492188 131.777344 C 243.085938 131.679688 244.648438 131.414062 246.179688 130.972656 C 246.230469 130.960938 246.265625 130.976562 246.289062 131.023438 C 246.3125 131.070312 246.304688 131.109375 246.257812 131.140625 Z M 246.257812 131.136719 " fill-opacity="1" fill-rule="evenodd"/></g><g fill="#ffffff" fill-opacity="1"><g transform="translate(106.824036, 185.908989)"><g><path d="M 11.046875 -7.453125 L 12.515625 -8.53125 L 16.25 -3.484375 L 14.78125 -2.40625 L 13.5625 -3.53125 L 10.046875 -0.921875 L 13.71875 4.046875 L 17.234375 1.4375 L 16.515625 -0.0625 L 17.984375 -1.140625 L 18.953125 0.171875 L 20.75 2.609375 L 21.71875 3.921875 L 20.25 5 L 19.03125 3.875 L 10.28125 10.34375 L 11 11.84375 L 9.546875 12.921875 L 5.8125 7.859375 L 7.265625 6.78125 L 8.484375 7.90625 L 11.84375 5.421875 L 8.171875 0.453125 L 4.8125 2.9375 L 5.53125 4.4375 L 4.078125 5.515625 L 0.34375 0.46875 L 1.796875 -0.609375 L 3 0.5 L 11.75 -5.96875 Z M 11.046875 -7.453125 "/></g></g></g><g fill="#ffffff" fill-opacity="1"><g transform="translate(122.022717, 204.649833)"><g><path d="M 12.21875 1.53125 L 8.28125 -1.75 L 5.5 1.578125 L 9.265625 4.703125 L 10.53125 3.390625 L 12.296875 4.875 L 9.640625 8.046875 L 0.4375 0.375 L 1.59375 -1.015625 L 3.03125 -0.21875 L 10 -8.578125 L 8.96875 -9.84375 L 10.140625 -11.25 L 11.375 -10.21875 L 19.34375 -3.59375 L 16.671875 -0.40625 L 14.875 -1.890625 L 15.9375 -3.375 L 12.21875 -6.46875 L 9.78125 -3.546875 L 13.71875 -0.265625 Z M 12.21875 1.53125 "/></g></g></g><g fill="#ffffff" fill-opacity="1"><g transform="translate(138.680211, 217.605856)"><g><path d="M 21.09375 -6.484375 L 20.296875 -4.84375 L 18.703125 -5.28125 L 12.953125 6.375 L 10.234375 5.046875 L 9.25 -6.796875 L 9.203125 -6.828125 L 5.640625 0.40625 L 6.953125 1.40625 L 6.15625 3.03125 L 0.515625 0.25 L 1.3125 -1.375 L 2.90625 -0.9375 L 7.71875 -10.6875 L 6.40625 -11.6875 L 7.203125 -13.328125 L 8.65625 -12.609375 L 11.390625 -11.265625 L 12.359375 0.578125 L 12.421875 0.609375 L 15.984375 -6.609375 L 14.671875 -7.609375 L 15.46875 -9.25 L 19.640625 -7.203125 Z M 21.09375 -6.484375 "/></g></g></g><g fill="#ffffff" fill-opacity="1"><g transform="translate(160.625113, 227.271876)"><g><path d="M 10.4375 -13.234375 C 12.25 -12.835938 13.613281 -11.929688 14.53125 -10.515625 C 15.457031 -9.109375 15.722656 -7.5 15.328125 -5.6875 L 14.796875 -3.25 C 14.398438 -1.4375 13.488281 -0.0820312 12.0625 0.8125 C 10.644531 1.707031 9.03125 1.957031 7.21875 1.5625 L 0.5625 0.125 L 0.953125 -1.640625 L 2.59375 -1.609375 L 4.90625 -12.234375 L 3.390625 -12.890625 L 3.78125 -14.671875 L 5.359375 -14.328125 Z M 7.828125 -11.390625 L 5.609375 -1.171875 L 7.5625 -0.75 C 8.632812 -0.507812 9.546875 -0.679688 10.296875 -1.265625 C 11.054688 -1.847656 11.5625 -2.722656 11.8125 -3.890625 L 12.34375 -6.359375 C 12.59375 -7.503906 12.492188 -8.5 12.046875 -9.34375 C 11.609375 -10.1875 10.851562 -10.726562 9.78125 -10.96875 Z M 7.828125 -11.390625 "/></g></g></g><g fill="#ffffff" fill-opacity="1"><g transform="translate(182.365017, 231.073281)"><g><path d="M 10.265625 -6.796875 L 5.140625 -6.71875 L 5.203125 -2.390625 L 10.09375 -2.46875 L 10.1875 -4.28125 L 12.5 -4.3125 L 12.5625 -0.171875 L 0.578125 0 L 0.546875 -1.8125 L 2.15625 -2.15625 L 2.015625 -13.03125 L 0.40625 -13.3125 L 0.375 -15.140625 L 1.984375 -15.171875 L 12.34375 -15.3125 L 12.40625 -11.15625 L 10.078125 -11.125 L 9.90625 -12.9375 L 5.0625 -12.859375 L 5.109375 -9.0625 L 10.234375 -9.140625 Z M 10.265625 -6.796875 "/></g></g></g><g fill="#ffffff" fill-opacity="1"><g transform="translate(203.344995, 230.011444)"><g><path d="M 3.5625 -16.46875 C 5.238281 -16.875 6.640625 -16.804688 7.765625 -16.265625 C 8.898438 -15.734375 9.632812 -14.796875 9.96875 -13.453125 C 10.144531 -12.710938 10.101562 -12.019531 9.84375 -11.375 C 9.59375 -10.738281 9.125 -10.160156 8.4375 -9.640625 C 9.363281 -9.585938 10.085938 -9.3125 10.609375 -8.8125 C 11.140625 -8.3125 11.515625 -7.617188 11.734375 -6.734375 L 11.921875 -6 C 11.992188 -5.664062 12.113281 -5.425781 12.28125 -5.28125 C 12.445312 -5.132812 12.6875 -5.082031 13 -5.125 L 13.375 -5.171875 L 13.8125 -3.390625 L 12.296875 -3.015625 C 11.328125 -2.773438 10.585938 -2.863281 10.078125 -3.28125 C 9.566406 -3.707031 9.207031 -4.335938 9 -5.171875 L 8.796875 -6 C 8.617188 -6.707031 8.285156 -7.21875 7.796875 -7.53125 C 7.316406 -7.851562 6.734375 -7.941406 6.046875 -7.796875 L 3.625 -7.203125 L 4.578125 -3.3125 L 6.21875 -3.40625 L 6.65625 -1.640625 L 0.5625 -0.140625 L 0.125 -1.90625 L 1.625 -2.578125 L -0.96875 -13.140625 L -2.609375 -13.0625 L -3.046875 -14.84375 L -1.484375 -15.21875 Z M 3.0625 -9.46875 L 5.109375 -9.96875 C 5.921875 -10.164062 6.492188 -10.488281 6.828125 -10.9375 C 7.160156 -11.382812 7.242188 -11.941406 7.078125 -12.609375 C 6.921875 -13.265625 6.585938 -13.738281 6.078125 -14.03125 C 5.566406 -14.320312 4.914062 -14.375 4.125 -14.1875 L 2.03125 -13.671875 Z M 3.0625 -9.46875 "/></g></g></g><g fill="#ffffff" fill-opacity="1"><g transform="translate(224.476617, 223.884212)"><g><path d="M 6.1875 -14.625 L 4.171875 -13.609375 L 2.859375 -15.28125 C 2.554688 -15.320312 2.148438 -15.285156 1.640625 -15.171875 C 1.140625 -15.054688 0.632812 -14.867188 0.125 -14.609375 C -0.613281 -14.234375 -1.109375 -13.785156 -1.359375 -13.265625 C -1.609375 -12.742188 -1.609375 -12.238281 -1.359375 -11.75 C -1.128906 -11.289062 -0.726562 -11.019531 -0.15625 -10.9375 C 0.40625 -10.863281 1.289062 -10.914062 2.5 -11.09375 C 4.195312 -11.4375 5.601562 -11.457031 6.71875 -11.15625 C 7.832031 -10.863281 8.664062 -10.160156 9.21875 -9.046875 C 9.800781 -7.890625 9.800781 -6.742188 9.21875 -5.609375 C 8.632812 -4.484375 7.59375 -3.546875 6.09375 -2.796875 C 5.019531 -2.253906 3.960938 -1.9375 2.921875 -1.84375 C 1.890625 -1.757812 0.941406 -1.878906 0.078125 -2.203125 L -1.34375 -5.03125 L 0.75 -6.078125 L 2.015625 -4.28125 C 2.398438 -4.195312 2.859375 -4.195312 3.390625 -4.28125 C 3.929688 -4.375 4.492188 -4.566406 5.078125 -4.859375 C 5.816406 -5.234375 6.300781 -5.664062 6.53125 -6.15625 C 6.769531 -6.65625 6.765625 -7.160156 6.515625 -7.671875 C 6.253906 -8.191406 5.859375 -8.515625 5.328125 -8.640625 C 4.796875 -8.773438 4 -8.753906 2.9375 -8.578125 C 1.101562 -8.242188 -0.382812 -8.1875 -1.53125 -8.40625 C -2.675781 -8.632812 -3.523438 -9.304688 -4.078125 -10.421875 C -4.628906 -11.515625 -4.613281 -12.640625 -4.03125 -13.796875 C -3.445312 -14.960938 -2.457031 -15.90625 -1.0625 -16.625 C -0.0195312 -17.144531 1.003906 -17.460938 2.015625 -17.578125 C 3.035156 -17.691406 3.960938 -17.628906 4.796875 -17.390625 Z M 6.1875 -14.625 "/></g></g></g><g fill="#ffffff" fill-opacity="1"><g transform="translate(242.314668, 214.16823)"><g><path d="M 6.390625 -14.921875 C 7.796875 -13.210938 8.472656 -11.394531 8.421875 -9.46875 C 8.367188 -7.539062 7.550781 -5.925781 5.96875 -4.625 C 4.382812 -3.320312 2.644531 -2.832031 0.75 -3.15625 C -1.132812 -3.476562 -2.78125 -4.492188 -4.1875 -6.203125 L -4.34375 -6.390625 C -5.738281 -8.085938 -6.414062 -9.894531 -6.375 -11.8125 C -6.332031 -13.738281 -5.523438 -15.351562 -3.953125 -16.65625 C -2.367188 -17.957031 -0.625 -18.445312 1.28125 -18.125 C 3.1875 -17.8125 4.835938 -16.804688 6.234375 -15.109375 Z M 3.890625 -13.1875 C 2.890625 -14.40625 1.828125 -15.179688 0.703125 -15.515625 C -0.410156 -15.847656 -1.457031 -15.613281 -2.4375 -14.8125 C -3.425781 -13.988281 -3.851562 -13.003906 -3.71875 -11.859375 C -3.59375 -10.722656 -3.03125 -9.539062 -2.03125 -8.3125 L -1.859375 -8.125 C -0.847656 -6.894531 0.210938 -6.109375 1.328125 -5.765625 C 2.441406 -5.421875 3.488281 -5.648438 4.46875 -6.453125 C 5.457031 -7.265625 5.890625 -8.25 5.765625 -9.40625 C 5.640625 -10.570312 5.070312 -11.769531 4.0625 -13 Z M 3.890625 -13.1875 "/></g></g></g><g fill="#ffffff" fill-opacity="1"><g transform="translate(259.222411, 199.139365)"><g><path d="M -2.671875 -21.921875 L -1.1875 -20.828125 L -1.890625 -19.359375 L 8.578125 -11.625 L 6.78125 -9.1875 L -5.0625 -10.328125 L -5.09375 -10.265625 L 1.390625 -5.484375 L 2.609375 -6.59375 L 4.078125 -5.515625 L 0.34375 -0.46875 L -1.125 -1.546875 L -0.40625 -3.03125 L -9.15625 -9.5 L -10.375 -8.375 L -11.859375 -9.46875 L -10.890625 -10.765625 L -9.09375 -13.21875 L 2.765625 -12.078125 L 2.78125 -12.140625 L -3.6875 -16.921875 L -4.90625 -15.796875 L -6.390625 -16.890625 L -3.625 -20.625 Z M -2.671875 -21.921875 "/></g></g></g><g fill="#ffffff" fill-opacity="1"><g transform="translate(136.773006, 266.245237)"><g><path d="M 3.066406 -11.066406 C 1.597656 -11.066406 0.789062 -10.277344 0.789062 -8.789062 L 0.789062 -6.054688 C 0.789062 -5.753906 0.933594 -5.566406 1.21875 -5.46875 L 5.011719 -4.238281 L 5.011719 -2.640625 C 5.011719 -2.214844 4.789062 -2.007812 4.378906 -2.007812 L 3.527344 -2.007812 C 3.128906 -2.007812 2.894531 -2.214844 2.894531 -2.640625 L 2.894531 -3.304688 C 2.894531 -3.476562 2.8125 -3.558594 2.640625 -3.558594 L 1.042969 -3.558594 C 0.886719 -3.558594 0.789062 -3.476562 0.789062 -3.304688 L 0.789062 -2.277344 C 0.789062 -0.789062 1.597656 0 3.066406 0 L 4.839844 0 C 6.324219 0 7.113281 -0.789062 7.113281 -2.277344 L 7.113281 -5.25 C 7.113281 -5.550781 6.972656 -5.738281 6.703125 -5.835938 L 2.878906 -7.066406 L 2.878906 -8.410156 C 2.878906 -8.824219 3.113281 -9.042969 3.511719 -9.042969 L 4.378906 -9.042969 C 4.804688 -9.042969 5.011719 -8.824219 5.011719 -8.410156 L 5.011719 -7.746094 C 5.011719 -7.589844 5.105469 -7.496094 5.265625 -7.496094 L 6.863281 -7.496094 C 7.035156 -7.496094 7.113281 -7.589844 7.113281 -7.746094 L 7.113281 -8.789062 C 7.113281 -10.277344 6.324219 -11.066406 4.839844 -11.066406 Z M 3.066406 -11.066406 "/></g></g></g><g fill="#ffffff" fill-opacity="1"><g transform="translate(147.759107, 266.245237)"><g><path d="M 0.789062 -0.253906 C 0.789062 -0.09375 0.886719 0 1.042969 0 L 2.59375 0.015625 C 2.765625 0.015625 2.847656 -0.078125 2.847656 -0.238281 L 2.847656 -3.398438 L 4.839844 -3.414062 C 6.324219 -3.429688 7.113281 -4.222656 7.113281 -5.691406 L 7.113281 -8.789062 C 7.113281 -10.277344 6.324219 -11.066406 4.839844 -11.066406 L 1.042969 -11.066406 C 0.886719 -11.066406 0.789062 -10.972656 0.789062 -10.816406 Z M 2.847656 -5.4375 L 2.847656 -9.011719 L 4.425781 -9.027344 C 4.855469 -9.027344 5.058594 -8.808594 5.058594 -8.394531 L 5.058594 -6.085938 C 5.058594 -5.691406 4.855469 -5.453125 4.425781 -5.453125 Z M 2.847656 -5.4375 "/></g></g></g><g fill="#ffffff" fill-opacity="1"><g transform="translate(158.745207, 266.245237)"><g><path d="M 0.789062 -2.277344 C 0.789062 -0.789062 1.582031 0 3.066406 0 L 4.839844 0 C 6.324219 0 7.113281 -0.789062 7.113281 -2.277344 L 7.113281 -8.789062 C 7.113281 -10.277344 6.324219 -11.066406 4.839844 -11.066406 L 3.066406 -11.066406 C 1.582031 -11.066406 0.789062 -10.277344 0.789062 -8.789062 Z M 3.476562 -2.039062 C 3.066406 -2.039062 2.847656 -2.246094 2.847656 -2.671875 L 2.847656 -8.394531 C 2.847656 -8.808594 3.066406 -9.027344 3.476562 -9.027344 L 4.492188 -9.027344 C 4.902344 -9.027344 5.121094 -8.808594 5.121094 -8.394531 L 5.121094 -2.671875 C 5.121094 -2.246094 4.902344 -2.039062 4.492188 -2.039062 Z M 3.476562 -2.039062 "/></g></g></g><g fill="#ffffff" fill-opacity="1"><g transform="translate(169.731309, 266.245237)"><g><path d="M 7.113281 -8.789062 C 7.113281 -10.277344 6.324219 -11.066406 4.839844 -11.066406 L 1.042969 -11.066406 C 0.886719 -11.066406 0.789062 -10.972656 0.789062 -10.816406 L 0.789062 -0.253906 C 0.789062 -0.09375 0.886719 0 1.042969 0 L 2.59375 0 C 2.75 0 2.847656 -0.09375 2.847656 -0.253906 L 2.847656 -3.335938 L 4.253906 -3.335938 L 5.011719 -0.222656 C 5.042969 -0.078125 5.121094 0 5.28125 0 L 6.832031 0 C 7.003906 0 7.097656 -0.09375 7.050781 -0.285156 L 6.230469 -3.683594 C 6.816406 -4.046875 7.113281 -4.695312 7.113281 -5.613281 Z M 2.847656 -5.375 L 2.847656 -9.027344 L 4.425781 -9.027344 C 4.839844 -9.027344 5.058594 -8.808594 5.058594 -8.394531 L 5.058594 -6.007812 C 5.058594 -5.597656 4.839844 -5.375 4.425781 -5.375 Z M 2.847656 -5.375 "/></g></g></g><g fill="#ffffff" fill-opacity="1"><g transform="translate(180.717408, 266.245237)"><g><path d="M 6.546875 -11.066406 C 6.71875 -11.066406 6.796875 -10.972656 6.796875 -10.816406 L 6.796875 -9.234375 C 6.796875 -9.074219 6.71875 -8.980469 6.546875 -8.980469 L 4.710938 -8.980469 L 4.710938 -0.253906 C 4.710938 -0.078125 4.632812 0 4.457031 0 L 2.8125 0 C 2.65625 0 2.5625 -0.078125 2.5625 -0.253906 L 2.5625 -8.980469 L 0.726562 -8.980469 C 0.570312 -8.980469 0.472656 -9.074219 0.472656 -9.234375 L 0.472656 -10.816406 C 0.472656 -10.972656 0.570312 -11.066406 0.726562 -11.066406 Z M 6.546875 -11.066406 "/></g></g></g><g fill="#ffffff" fill-opacity="1"><g transform="translate(191.071285, 266.245237)"><g/></g></g><g fill="#ffffff" fill-opacity="1"><g transform="translate(198.10596, 266.245237)"><g><path d="M 7.128906 -8.789062 C 7.128906 -10.277344 6.324219 -11.066406 4.855469 -11.066406 L 3.082031 -11.066406 C 1.597656 -11.066406 0.789062 -10.277344 0.789062 -8.789062 L 0.789062 -2.277344 C 0.789062 -0.789062 1.597656 0 3.082031 0 L 4.855469 0 C 6.324219 0 7.128906 -0.789062 7.128906 -2.277344 L 7.128906 -3.984375 C 7.128906 -4.140625 7.035156 -4.238281 6.878906 -4.238281 L 5.390625 -4.238281 C 5.21875 -4.238281 5.136719 -4.140625 5.136719 -3.984375 L 5.136719 -2.640625 C 5.136719 -2.214844 4.917969 -2.007812 4.507812 -2.007812 L 3.496094 -2.007812 C 3.082031 -2.007812 2.863281 -2.214844 2.863281 -2.640625 L 2.863281 -8.378906 C 2.863281 -8.789062 3.066406 -9.011719 3.496094 -9.011719 L 4.507812 -9.011719 C 4.917969 -9.011719 5.136719 -8.789062 5.136719 -8.378906 L 5.136719 -7.082031 C 5.136719 -6.925781 5.21875 -6.832031 5.390625 -6.832031 L 6.878906 -6.832031 C 7.035156 -6.832031 7.128906 -6.925781 7.128906 -7.082031 Z M 7.128906 -8.789062 "/></g></g></g><g fill="#ffffff" fill-opacity="1"><g transform="translate(209.107866, 266.245237)"><g><path d="M 2.941406 -2.085938 L 6.070312 -2.085938 C 6.246094 -2.085938 6.324219 -1.992188 6.324219 -1.835938 L 6.324219 -0.253906 C 6.324219 -0.078125 6.246094 0 6.070312 0 L 1.042969 0 C 0.886719 0 0.789062 -0.078125 0.789062 -0.253906 L 0.789062 -10.816406 C 0.789062 -10.972656 0.886719 -11.066406 1.042969 -11.066406 L 2.6875 -11.066406 C 2.863281 -11.066406 2.941406 -10.972656 2.941406 -10.816406 Z M 2.941406 -2.085938 "/></g></g></g><g fill="#ffffff" fill-opacity="1"><g transform="translate(219.303686, 266.245237)"><g><path d="M 5.34375 -11.066406 C 5.171875 -11.066406 5.027344 -10.925781 5.027344 -10.75 L 5.027344 -2.71875 C 5.027344 -2.292969 4.804688 -2.085938 4.394531 -2.085938 L 3.574219 -2.085938 C 3.164062 -2.085938 2.941406 -2.292969 2.941406 -2.71875 L 2.941406 -10.75 C 2.941406 -10.925781 2.796875 -11.066406 2.625 -11.066406 L 1.105469 -11.066406 C 0.933594 -11.066406 0.789062 -10.925781 0.789062 -10.75 L 0.789062 -2.277344 C 0.789062 -0.789062 1.582031 0 3.066406 0 L 4.839844 0 C 6.324219 0 7.113281 -0.789062 7.113281 -2.277344 L 7.113281 -10.75 C 7.113281 -10.925781 6.972656 -11.066406 6.796875 -11.066406 Z M 5.34375 -11.066406 "/></g></g></g><g fill="#ffffff" fill-opacity="1"><g transform="translate(230.289784, 266.245237)"><g><path d="M 7.128906 -8.789062 C 7.128906 -10.277344 6.324219 -11.066406 4.839844 -11.066406 L 1.042969 -11.066406 C 0.886719 -11.066406 0.789062 -10.988281 0.789062 -10.816406 L 0.789062 -0.253906 C 0.789062 -0.09375 0.886719 0 1.042969 0 L 4.839844 0 C 6.324219 0 7.128906 -0.789062 7.128906 -2.277344 L 7.128906 -4.378906 C 7.128906 -4.964844 6.703125 -5.40625 6.132812 -5.503906 L 6.132812 -5.535156 C 6.703125 -5.628906 7.128906 -6.070312 7.128906 -6.65625 Z M 5.121094 -7.179688 C 5.121094 -6.78125 4.902344 -6.5625 4.492188 -6.5625 L 2.75 -6.5625 L 2.75 -9.074219 L 4.492188 -9.074219 C 4.917969 -9.074219 5.121094 -8.855469 5.121094 -8.441406 Z M 5.121094 -2.625 C 5.121094 -2.199219 4.902344 -1.992188 4.492188 -1.992188 L 2.75 -1.992188 L 2.75 -4.472656 L 4.492188 -4.472656 C 4.917969 -4.472656 5.121094 -4.253906 5.121094 -3.84375 Z M 5.121094 -2.625 "/></g></g></g><g clip-path="url(#a79037ece0)"><path fill="#ffffff" d="M 261.007812 258.4375 L 248.753906 258.445312 L 251.765625 260.921875 L 246.277344 263.179688 L 258.535156 263.171875 L 255.523438 260.695312 Z M 261.007812 258.4375 " fill-opacity="1" fill-rule="evenodd"/></g><g clip-path="url(#9aefba3a1a)"><path fill="#ffffff" d="M 112.292969 258.4375 L 124.550781 258.445312 L 121.539062 260.921875 L 127.023438 263.179688 L 114.769531 263.171875 L 117.777344 260.695312 Z M 112.292969 258.4375 " fill-opacity="1" fill-rule="evenodd"/></g><g fill="#ffffff" fill-opacity="1"><g transform="translate(158.683553, 284.560862)"><g><path d="M 3.03125 -6.265625 C 3.757812 -6.265625 4.332031 -6.117188 4.75 -5.828125 C 5.164062 -5.546875 5.375 -5.117188 5.375 -4.546875 C 5.375 -4.253906 5.296875 -3.992188 5.140625 -3.765625 C 4.984375 -3.535156 4.757812 -3.363281 4.46875 -3.25 C 4.84375 -3.175781 5.125 -3.003906 5.3125 -2.734375 C 5.5 -2.472656 5.59375 -2.171875 5.59375 -1.828125 C 5.59375 -1.222656 5.394531 -0.765625 5 -0.453125 C 4.601562 -0.148438 4.046875 0 3.328125 0 L 0.234375 0 L 0.234375 -0.75 L 0.90625 -0.875 L 0.90625 -5.375 L 0.234375 -5.515625 L 0.234375 -6.265625 Z M 2.171875 -2.765625 L 2.171875 -0.96875 L 3.328125 -0.96875 C 3.660156 -0.96875 3.910156 -1.039062 4.078125 -1.1875 C 4.253906 -1.332031 4.34375 -1.546875 4.34375 -1.828125 C 4.34375 -2.128906 4.269531 -2.359375 4.125 -2.515625 C 3.976562 -2.679688 3.742188 -2.765625 3.421875 -2.765625 Z M 2.171875 -3.640625 L 3.0625 -3.640625 C 3.40625 -3.640625 3.664062 -3.707031 3.84375 -3.84375 C 4.019531 -3.976562 4.109375 -4.179688 4.109375 -4.453125 C 4.109375 -4.742188 4.015625 -4.957031 3.828125 -5.09375 C 3.648438 -5.226562 3.382812 -5.296875 3.03125 -5.296875 L 2.171875 -5.296875 Z M 2.171875 -3.640625 "/></g></g></g><g fill="#ffffff" fill-opacity="1"><g transform="translate(166.255627, 284.560862)"><g><path d="M 5.96875 -3.078125 C 5.96875 -2.160156 5.703125 -1.398438 5.171875 -0.796875 C 4.648438 -0.203125 3.96875 0.09375 3.125 0.09375 C 2.269531 0.09375 1.582031 -0.203125 1.0625 -0.796875 C 0.539062 -1.398438 0.28125 -2.160156 0.28125 -3.078125 L 0.28125 -3.1875 C 0.28125 -4.09375 0.539062 -4.847656 1.0625 -5.453125 C 1.582031 -6.054688 2.265625 -6.359375 3.109375 -6.359375 C 3.960938 -6.359375 4.648438 -6.054688 5.171875 -5.453125 C 5.703125 -4.847656 5.96875 -4.09375 5.96875 -3.1875 Z M 4.71875 -3.1875 C 4.71875 -3.832031 4.582031 -4.359375 4.3125 -4.765625 C 4.039062 -5.171875 3.640625 -5.375 3.109375 -5.375 C 2.585938 -5.375 2.195312 -5.171875 1.9375 -4.765625 C 1.675781 -4.367188 1.546875 -3.84375 1.546875 -3.1875 L 1.546875 -3.078125 C 1.546875 -2.421875 1.675781 -1.890625 1.9375 -1.484375 C 2.195312 -1.085938 2.59375 -0.890625 3.125 -0.890625 C 3.65625 -0.890625 4.050781 -1.085938 4.3125 -1.484375 C 4.582031 -1.890625 4.71875 -2.421875 4.71875 -3.078125 Z M 4.71875 -3.1875 "/></g></g></g><g fill="#ffffff" fill-opacity="1"><g transform="translate(174.232232, 284.560862)"><g><path d="M 3.0625 -6.265625 C 3.769531 -6.265625 4.320312 -6.097656 4.71875 -5.765625 C 5.125 -5.441406 5.328125 -4.992188 5.328125 -4.421875 C 5.328125 -4.109375 5.242188 -3.832031 5.078125 -3.59375 C 4.910156 -3.363281 4.664062 -3.179688 4.34375 -3.046875 C 4.707031 -2.929688 4.96875 -2.742188 5.125 -2.484375 C 5.289062 -2.234375 5.375 -1.921875 5.375 -1.546875 L 5.375 -1.234375 C 5.375 -1.097656 5.398438 -0.988281 5.453125 -0.90625 C 5.515625 -0.832031 5.609375 -0.789062 5.734375 -0.78125 L 5.890625 -0.75 L 5.890625 0 L 5.234375 0 C 4.828125 0 4.539062 -0.109375 4.375 -0.328125 C 4.207031 -0.546875 4.125 -0.832031 4.125 -1.1875 L 4.125 -1.546875 C 4.125 -1.847656 4.039062 -2.082031 3.875 -2.25 C 3.71875 -2.425781 3.488281 -2.519531 3.1875 -2.53125 L 2.171875 -2.53125 L 2.171875 -0.875 L 2.828125 -0.75 L 2.828125 0 L 0.234375 0 L 0.234375 -0.75 L 0.90625 -0.875 L 0.90625 -5.375 L 0.234375 -5.515625 L 0.234375 -6.265625 Z M 2.171875 -3.5 L 3.03125 -3.5 C 3.382812 -3.5 3.644531 -3.570312 3.8125 -3.71875 C 3.988281 -3.875 4.078125 -4.09375 4.078125 -4.375 C 4.078125 -4.65625 3.988281 -4.878906 3.8125 -5.046875 C 3.644531 -5.210938 3.394531 -5.296875 3.0625 -5.296875 L 2.171875 -5.296875 Z M 2.171875 -3.5 "/></g></g></g><g fill="#ffffff" fill-opacity="1"><g transform="translate(182.036696, 284.560862)"><g><path d="M 5.375 -4.15625 L 4.4375 -4.15625 L 4.3125 -4.984375 C 4.1875 -5.109375 4.03125 -5.207031 3.84375 -5.28125 C 3.65625 -5.351562 3.4375 -5.390625 3.1875 -5.390625 C 2.632812 -5.390625 2.210938 -5.191406 1.921875 -4.796875 C 1.628906 -4.398438 1.484375 -3.882812 1.484375 -3.25 L 1.484375 -3.03125 C 1.484375 -2.382812 1.628906 -1.863281 1.921875 -1.46875 C 2.210938 -1.070312 2.625 -0.875 3.15625 -0.875 C 3.40625 -0.875 3.628906 -0.910156 3.828125 -0.984375 C 4.035156 -1.054688 4.195312 -1.15625 4.3125 -1.28125 L 4.4375 -2.109375 L 5.375 -2.109375 L 5.375 -0.875 C 5.125 -0.582031 4.800781 -0.347656 4.40625 -0.171875 C 4.019531 0.00390625 3.582031 0.09375 3.09375 0.09375 C 2.25 0.09375 1.554688 -0.195312 1.015625 -0.78125 C 0.484375 -1.363281 0.21875 -2.113281 0.21875 -3.03125 L 0.21875 -3.234375 C 0.21875 -4.140625 0.484375 -4.882812 1.015625 -5.46875 C 1.554688 -6.0625 2.25 -6.359375 3.09375 -6.359375 C 3.582031 -6.359375 4.019531 -6.269531 4.40625 -6.09375 C 4.789062 -5.914062 5.113281 -5.679688 5.375 -5.390625 Z M 5.375 -4.15625 "/></g></g></g><g fill="#ffffff" fill-opacity="1"><g transform="translate(189.492574, 284.560862)"><g><path d="M 4.28125 -2.75 L 2.171875 -2.75 L 2.171875 -0.96875 L 4.1875 -0.96875 L 4.25 -1.71875 L 5.203125 -1.71875 L 5.203125 0 L 0.234375 0 L 0.234375 -0.75 L 0.90625 -0.875 L 0.90625 -5.375 L 0.234375 -5.515625 L 0.234375 -6.265625 L 5.1875 -6.265625 L 5.1875 -4.546875 L 4.21875 -4.546875 L 4.171875 -5.296875 L 2.171875 -5.296875 L 2.171875 -3.71875 L 4.28125 -3.71875 Z M 4.28125 -2.75 "/></g></g></g><g fill="#ffffff" fill-opacity="1"><g transform="translate(196.866686, 284.560862)"><g><path d="M 0.234375 0 L 0.234375 -0.75 L 0.90625 -0.875 L 0.90625 -5.375 L 0.234375 -5.515625 L 0.234375 -6.265625 L 2.828125 -6.265625 L 2.828125 -5.515625 L 2.171875 -5.375 L 2.171875 -0.96875 L 3.9375 -0.96875 L 4 -1.75 L 4.953125 -1.75 L 4.953125 0 Z M 0.234375 0 "/></g></g></g><g fill="#ffffff" fill-opacity="1"><g transform="translate(203.776016, 284.560862)"><g><path d="M 0.234375 0 L 0.234375 -0.75 L 0.90625 -0.875 L 0.90625 -5.375 L 0.234375 -5.515625 L 0.234375 -6.265625 L 2.828125 -6.265625 L 2.828125 -5.515625 L 2.171875 -5.375 L 2.171875 -0.96875 L 3.9375 -0.96875 L 4 -1.75 L 4.953125 -1.75 L 4.953125 0 Z M 0.234375 0 "/></g></g></g><g fill="#ffffff" fill-opacity="1"><g transform="translate(210.685347, 284.560862)"><g><path d="M 4.28125 -2.75 L 2.171875 -2.75 L 2.171875 -0.96875 L 4.1875 -0.96875 L 4.25 -1.71875 L 5.203125 -1.71875 L 5.203125 0 L 0.234375 0 L 0.234375 -0.75 L 0.90625 -0.875 L 0.90625 -5.375 L 0.234375 -5.515625 L 0.234375 -6.265625 L 5.1875 -6.265625 L 5.1875 -4.546875 L 4.21875 -4.546875 L 4.171875 -5.296875 L 2.171875 -5.296875 L 2.171875 -3.71875 L 4.28125 -3.71875 Z M 4.28125 -2.75 "/></g></g></g></svg>