<svg xmlns="http://www.w3.org/2000/svg" xmlns:xlink="http://www.w3.org/1999/xlink" zoomAndPan="magnify" preserveAspectRatio="xMidYMid meet" version="1.0" viewBox="60.03 83.48 254.97 209"><defs><g/><clipPath id="0b3856adbe"><path d="M 84.789062 83.480469 L 290.289062 83.480469 L 290.289062 216.980469 L 84.789062 216.980469 Z M 84.789062 83.480469 " clip-rule="nonzero"/></clipPath><clipPath id="57474ec9f1"><path d="M 94 183.074219 L 281 183.074219 L 281 217 L 94 217 Z M 94 183.074219 " clip-rule="nonzero"/></clipPath><clipPath id="340bbc66f2"><path d="M 60.027344 225 L 315 225 L 315 273.824219 L 60.027344 273.824219 Z M 60.027344 225 " clip-rule="nonzero"/></clipPath><clipPath id="76ebe767b1"><path d="M 168.359375 281.0625 L 175.109375 281.0625 L 175.109375 287.8125 L 168.359375 287.8125 Z M 168.359375 281.0625 " clip-rule="nonzero"/></clipPath><clipPath id="c3ad219ce6"><path d="M 199.765625 281.0625 L 206.515625 281.0625 L 206.515625 287.8125 L 199.765625 287.8125 Z M 199.765625 281.0625 " clip-rule="nonzero"/></clipPath><clipPath id="0fd40eaba8"><path d="M 181.789062 281.0625 L 193.039062 281.0625 L 193.039062 292.3125 L 181.789062 292.3125 Z M 181.789062 281.0625 " clip-rule="nonzero"/></clipPath></defs><g clip-path="url(#0b3856adbe)"><path fill="#ffffff" d="M 285.113281 99.859375 C 279.066406 88.320312 270.0625 81.117188 264.183594 84.195312 C 263.617188 84.492188 261.382812 85.664062 260.804688 85.96875 C 259.699219 86.558594 258.820312 87.386719 258.160156 88.449219 C 257.152344 88.476562 256.199219 88.722656 255.300781 89.1875 L 251.851562 91 C 249.027344 92.480469 247.476562 95.789062 247.203125 100.042969 C 246.105469 99.875 244.515625 100.691406 243.714844 101.273438 C 243.5 101.429688 243.332031 101.625 243.203125 101.855469 L 242.660156 102.824219 C 242.660156 102.824219 242.199219 102.742188 241.601562 102.699219 C 241.109375 102.660156 240.648438 102.769531 240.222656 103.019531 L 237.664062 104.464844 C 237.210938 104.984375 236.859375 105.5625 236.609375 106.203125 C 236.050781 106.03125 235.476562 105.945312 234.894531 105.941406 C 234.644531 105.957031 234.417969 106.03125 234.207031 106.164062 L 232.285156 107.390625 C 232 107.574219 231.785156 107.820312 231.644531 108.128906 L 231.578125 108.277344 C 231.132812 109.253906 230.910156 110.277344 230.902344 111.351562 C 230.902344 111.851562 230.902344 112.371094 230.902344 112.902344 C 230.003906 112.316406 229.050781 111.84375 228.042969 111.480469 C 227.992188 112.152344 227.910156 112.820312 227.792969 113.488281 C 228.933594 113.855469 229.980469 114.402344 230.933594 115.128906 C 230.960938 117.21875 231.144531 119.292969 231.484375 121.355469 C 231.566406 122.003906 231.851562 122.546875 232.34375 122.976562 L 230.855469 123.820312 C 230.054688 124.242188 230.230469 126.15625 231.246094 128.097656 C 232.257812 130.035156 233.738281 131.269531 234.539062 130.847656 L 237.207031 129.566406 C 239.101562 134.324219 239.507812 138.4375 238.136719 139.890625 C 238.105469 139.921875 238.101562 139.953125 238.121094 139.992188 C 238.140625 140.027344 238.171875 140.039062 238.210938 140.03125 C 238.378906 139.992188 238.539062 139.933594 238.691406 139.855469 C 240.921875 138.6875 240.902344 134.0625 238.898438 128.753906 L 240.101562 128.179688 C 242.484375 134.546875 242.296875 140.253906 239.320312 141.8125 C 235.757812 143.679688 229.5625 138.886719 225.488281 131.109375 C 224.273438 128.820312 223.355469 126.421875 222.730469 123.90625 C 222.726562 123.894531 222.71875 123.886719 222.707031 123.882812 C 222.699219 123.882812 222.6875 123.882812 222.679688 123.894531 C 220.585938 126.285156 218.199219 128.332031 215.519531 130.039062 C 216.070312 131.832031 216.785156 133.554688 217.65625 135.214844 C 220.566406 140.769531 224.789062 144.828125 228.898438 146.519531 C 228.9375 146.539062 228.957031 146.570312 228.949219 146.613281 C 228.941406 146.65625 228.917969 146.683594 228.871094 146.6875 C 225.109375 147.089844 220 143.117188 216.476562 136.832031 C 216.460938 136.804688 216.441406 136.796875 216.414062 136.804688 C 216.386719 136.8125 216.375 136.832031 216.378906 136.863281 C 216.566406 137.976562 216.917969 141.617188 213.605469 141.839844 C 212.414062 141.882812 211.253906 141.714844 210.125 141.339844 C 210.097656 141.332031 210.078125 141.339844 210.058594 141.363281 C 210.042969 141.382812 210.042969 141.402344 210.054688 141.429688 C 214.917969 149.382812 222.625 153.523438 227.90625 150.757812 L 231.082031 149.089844 C 231.886719 148.660156 232.578125 148.09375 233.160156 147.390625 C 234.296875 147.375 235.375 147.105469 236.386719 146.582031 C 236.921875 146.300781 238.976562 145.226562 239.5 144.949219 C 244.050781 142.566406 244.703125 135.503906 241.925781 127.863281 C 241.910156 127.820312 241.921875 127.789062 241.960938 127.769531 C 242 127.746094 242.035156 127.753906 242.058594 127.792969 C 250.117188 138.441406 244.796875 147.828125 243.992188 156.675781 C 237.410156 154.5625 230.707031 157.667969 230.707031 157.667969 C 222.386719 150.222656 211.589844 153.820312 211.589844 153.820312 C 210.601562 150.855469 207.394531 149.367188 205.53125 144.695312 C 205.511719 144.652344 205.484375 144.640625 205.441406 144.660156 C 201.652344 146.101562 199.566406 149.726562 198.6875 151.671875 C 198.644531 151.769531 198.574219 151.800781 198.472656 151.769531 C 198.375 151.738281 198.335938 151.671875 198.355469 151.570312 C 199.632812 144.074219 205.503906 142.523438 205.503906 142.523438 C 205.964844 140.636719 206.175781 138.71875 206.132812 136.777344 C 206.132812 136.742188 206.148438 136.714844 206.183594 136.703125 C 206.214844 136.6875 206.246094 136.695312 206.273438 136.722656 C 208.042969 138.558594 211.703125 139.789062 213.625 140.109375 C 213.792969 140.136719 213.953125 140.121094 214.113281 140.066406 C 214.273438 140.011719 214.410156 139.925781 214.523438 139.800781 C 214.640625 139.675781 214.71875 139.535156 214.761719 139.371094 C 214.804688 139.207031 214.804688 139.042969 214.765625 138.878906 C 214.019531 135.742188 212.714844 132.859375 210.84375 130.230469 C 210.84375 130.230469 225.992188 123.523438 225.992188 109.992188 C 225.992188 98.882812 216.171875 93.539062 218.378906 85.179688 C 218.390625 85.152344 218.382812 85.128906 218.359375 85.109375 C 218.335938 85.089844 218.3125 85.089844 218.285156 85.105469 C 214.433594 87.164062 213.695312 89.996094 213.433594 92.976562 C 213.078125 96.953125 215.6875 100.304688 215.6875 104.652344 C 215.6875 113.09375 208.113281 115.578125 208.113281 115.578125 C 206.996094 113.46875 204.265625 113.964844 202.898438 115.578125 C 198.429688 112.847656 191.476562 112.972656 187.503906 115.828125 C 183.527344 112.976562 176.578125 112.851562 172.105469 115.578125 C 170.742188 113.964844 168.011719 113.46875 166.890625 115.578125 C 166.890625 115.578125 159.316406 113.09375 159.316406 104.652344 C 159.316406 100.304688 161.925781 96.953125 161.574219 92.976562 C 161.308594 89.996094 160.570312 87.164062 156.722656 85.105469 C 156.695312 85.085938 156.671875 85.085938 156.644531 85.105469 C 156.621094 85.125 156.613281 85.152344 156.625 85.179688 C 158.835938 93.539062 149.015625 98.882812 149.015625 109.992188 C 149.015625 123.523438 164.164062 130.230469 164.164062 130.230469 C 162.292969 132.859375 160.988281 135.742188 160.242188 138.878906 C 160.203125 139.042969 160.203125 139.207031 160.246094 139.371094 C 160.289062 139.53125 160.367188 139.675781 160.480469 139.800781 C 160.597656 139.921875 160.734375 140.011719 160.890625 140.066406 C 161.050781 140.121094 161.214844 140.136719 161.378906 140.109375 C 163.304688 139.789062 166.960938 138.554688 168.734375 136.722656 C 168.761719 136.695312 168.789062 136.6875 168.824219 136.703125 C 168.859375 136.714844 168.875 136.742188 168.875 136.777344 C 168.832031 138.71875 169.039062 140.636719 169.503906 142.523438 C 169.503906 142.523438 175.375 144.074219 176.652344 151.570312 C 176.671875 151.671875 176.632812 151.738281 176.53125 151.769531 C 176.433594 151.800781 176.363281 151.769531 176.320312 151.671875 C 175.441406 149.730469 173.355469 146.097656 169.566406 144.660156 C 169.523438 144.640625 169.496094 144.652344 169.476562 144.695312 C 167.613281 149.367188 164.40625 150.855469 163.417969 153.820312 C 163.417969 153.820312 152.617188 150.222656 144.296875 157.671875 C 144.296875 157.671875 137.59375 154.566406 131.011719 156.675781 C 130.203125 147.828125 124.882812 138.441406 132.941406 127.792969 C 132.96875 127.757812 133 127.75 133.039062 127.769531 C 133.082031 127.792969 133.09375 127.824219 133.078125 127.867188 C 130.300781 135.507812 130.953125 142.566406 135.503906 144.953125 C 136.027344 145.226562 138.082031 146.300781 138.617188 146.582031 C 139.628906 147.105469 140.703125 147.378906 141.84375 147.394531 C 142.421875 148.097656 143.113281 148.664062 143.917969 149.09375 L 147.097656 150.761719 C 152.375 153.527344 160.085938 149.378906 164.949219 141.429688 C 164.960938 141.40625 164.957031 141.382812 164.941406 141.363281 C 164.925781 141.34375 164.90625 141.335938 164.878906 141.339844 C 163.75 141.71875 162.585938 141.882812 161.398438 141.84375 C 158.085938 141.621094 158.4375 137.976562 158.625 136.863281 C 158.628906 136.835938 158.617188 136.816406 158.589844 136.804688 C 158.5625 136.796875 158.539062 136.804688 158.527344 136.832031 C 155.003906 143.113281 149.890625 147.09375 146.128906 146.6875 C 146.085938 146.683594 146.058594 146.660156 146.050781 146.617188 C 146.046875 146.570312 146.0625 146.539062 146.105469 146.523438 C 150.210938 144.828125 154.433594 140.773438 157.34375 135.21875 C 158.21875 133.558594 158.929688 131.832031 159.480469 130.039062 C 156.800781 128.335938 154.414062 126.285156 152.324219 123.894531 C 152.316406 123.886719 152.304688 123.882812 152.292969 123.886719 C 152.28125 123.886719 152.273438 123.894531 152.273438 123.90625 C 151.648438 126.421875 150.730469 128.824219 149.515625 131.113281 C 145.4375 138.890625 139.246094 143.683594 135.683594 141.816406 C 132.707031 140.253906 132.515625 134.546875 134.902344 128.179688 L 136.101562 128.757812 C 134.101562 134.0625 134.078125 138.6875 136.308594 139.855469 C 136.460938 139.9375 136.621094 139.996094 136.789062 140.03125 C 136.832031 140.042969 136.859375 140.027344 136.882812 139.992188 C 136.902344 139.957031 136.898438 139.921875 136.867188 139.894531 C 135.492188 138.4375 135.902344 134.328125 137.796875 129.570312 L 140.460938 130.851562 C 141.265625 131.269531 142.742188 130.039062 143.757812 128.097656 C 144.773438 126.15625 144.949219 124.242188 144.144531 123.824219 L 142.65625 122.972656 C 143.148438 122.542969 143.433594 122.003906 143.515625 121.351562 C 143.851562 119.292969 144.035156 117.214844 144.066406 115.128906 C 145.019531 114.398438 146.066406 113.851562 147.207031 113.484375 C 147.09375 112.832031 147.007812 112.167969 146.957031 111.476562 C 145.945312 111.839844 144.992188 112.3125 144.097656 112.898438 C 144.097656 112.371094 144.097656 111.847656 144.097656 111.347656 C 144.089844 110.277344 143.863281 109.25 143.421875 108.273438 L 143.351562 108.128906 C 143.210938 107.820312 143 107.574219 142.714844 107.390625 L 140.796875 106.167969 C 140.585938 106.03125 140.355469 105.960938 140.109375 105.945312 C 139.523438 105.945312 138.953125 106.035156 138.394531 106.207031 C 138.140625 105.566406 137.792969 104.988281 137.339844 104.46875 L 134.78125 103.019531 C 134.355469 102.769531 133.894531 102.664062 133.402344 102.699219 C 132.800781 102.742188 132.34375 102.824219 132.34375 102.824219 L 131.796875 101.859375 C 131.667969 101.625 131.496094 101.433594 131.285156 101.277344 C 130.480469 100.695312 128.894531 99.878906 127.796875 100.046875 C 127.523438 95.792969 125.976562 92.484375 123.148438 91 L 119.695312 89.1875 C 118.800781 88.722656 117.847656 88.476562 116.835938 88.449219 C 116.179688 87.386719 115.296875 86.558594 114.195312 85.96875 C 113.613281 85.664062 111.382812 84.492188 110.8125 84.195312 C 104.9375 81.117188 95.929688 88.320312 89.882812 99.859375 C 83.835938 111.398438 83.035156 122.90625 88.914062 125.984375 C 89.484375 126.28125 91.714844 127.449219 92.296875 127.753906 C 93.410156 128.324219 94.59375 128.578125 95.839844 128.515625 C 96.4375 129.332031 97.179688 129.972656 98.070312 130.449219 L 101.519531 132.253906 C 107.144531 135.203125 115.859375 129.882812 121.871094 120.203125 C 121.914062 120.132812 121.972656 120.113281 122.046875 120.152344 C 122.121094 120.1875 122.144531 120.242188 122.117188 120.320312 C 121 123.503906 118.835938 128.035156 113.683594 132.996094 C 112.140625 144.5625 99.992188 161.308594 108.851562 176.625 C 108.867188 176.65625 108.890625 176.664062 108.925781 176.652344 C 108.957031 176.640625 108.96875 176.621094 108.960938 176.585938 C 108.648438 174.832031 107.378906 166.375 110.535156 160.09375 C 110.550781 160.0625 110.574219 160.054688 110.605469 160.0625 C 110.636719 160.074219 110.648438 160.097656 110.644531 160.128906 C 110.242188 161.925781 109.089844 168.886719 111.710938 181.488281 C 111.796875 181.90625 111.949219 182.296875 112.171875 182.660156 C 112.394531 183.023438 112.667969 183.339844 113 183.609375 C 113.328125 183.878906 113.695312 184.085938 114.09375 184.230469 C 114.496094 184.371094 114.910156 184.445312 115.335938 184.445312 L 115.363281 184.445312 C 117.5625 184.449219 119.539062 185.109375 121.296875 186.429688 C 125.074219 189.273438 132.554688 192.953125 141.117188 190.75 C 141.238281 190.714844 141.320312 190.757812 141.359375 190.878906 C 143.53125 197.203125 146.699219 202.980469 150.863281 208.207031 C 150.863281 208.207031 151.082031 209.40625 151.492188 211.347656 C 160.84375 213.664062 186.628906 217.289062 187.488281 217.289062 C 188.351562 217.289062 214.132812 213.664062 223.488281 211.347656 C 223.898438 209.40625 224.117188 208.207031 224.117188 208.207031 C 228.28125 202.976562 231.449219 197.203125 233.617188 190.878906 C 233.660156 190.757812 233.742188 190.714844 233.863281 190.75 C 242.425781 192.949219 249.902344 189.273438 253.683594 186.429688 C 255.4375 185.109375 257.414062 184.449219 259.613281 184.445312 L 259.640625 184.445312 C 260.066406 184.445312 260.480469 184.375 260.878906 184.230469 C 261.28125 184.089844 261.644531 183.882812 261.976562 183.613281 C 262.304688 183.347656 262.582031 183.03125 262.800781 182.667969 C 263.023438 182.304688 263.179688 181.914062 263.265625 181.5 C 265.890625 168.890625 264.738281 161.929688 264.332031 160.132812 C 264.324219 160.097656 264.339844 160.078125 264.371094 160.066406 C 264.402344 160.054688 264.425781 160.0625 264.441406 160.09375 C 267.597656 166.378906 266.328125 174.832031 266.015625 176.589844 C 266.007812 176.621094 266.023438 176.640625 266.050781 176.652344 C 266.082031 176.664062 266.105469 176.65625 266.121094 176.625 C 274.988281 161.308594 262.839844 144.5625 261.292969 132.996094 C 256.164062 128.058594 253.996094 123.542969 252.871094 120.367188 C 252.839844 120.285156 252.863281 120.226562 252.941406 120.1875 C 253.019531 120.148438 253.082031 120.167969 253.125 120.242188 C 259.140625 129.898438 267.835938 135.199219 273.453125 132.257812 L 276.902344 130.449219 C 277.796875 129.976562 278.542969 129.332031 279.140625 128.515625 C 280.390625 128.578125 281.570312 128.324219 282.683594 127.757812 C 283.265625 127.453125 285.496094 126.285156 286.066406 125.984375 C 291.960938 122.90625 291.164062 111.398438 285.113281 99.859375 Z M 207.8125 119.285156 C 213.589844 117.382812 217.789062 111.367188 217.699219 105.710938 C 217.597656 99.242188 214.90625 96.675781 214.847656 92.980469 C 214.824219 91.46875 215.257812 89.070312 216.917969 87.660156 C 216.9375 87.640625 216.960938 87.640625 216.984375 87.652344 C 217.007812 87.667969 217.015625 87.6875 217.011719 87.714844 C 215.59375 94.625 223.742188 100.296875 222.539062 110.460938 C 221.1875 121.898438 210.105469 124.667969 207.921875 125.105469 C 207.855469 125.117188 207.832031 125.027344 207.890625 124.996094 C 219.363281 119.03125 219.953125 111.109375 219.945312 109.464844 C 219.941406 109.429688 219.925781 109.414062 219.894531 109.410156 C 219.859375 109.410156 219.839844 109.421875 219.835938 109.457031 C 216.746094 118.503906 209.542969 119.328125 207.828125 119.394531 C 207.792969 119.394531 207.777344 119.378906 207.773438 119.347656 C 207.769531 119.316406 207.78125 119.292969 207.8125 119.285156 Z M 207.949219 131.230469 C 209.957031 132.074219 211.953125 134.851562 212.410156 137.183594 C 212.421875 137.261719 212.398438 137.332031 212.339844 137.390625 C 212.28125 137.449219 212.210938 137.46875 212.128906 137.453125 C 208.773438 136.832031 206.519531 134.851562 205.972656 132.949219 C 205.902344 132.679688 205.910156 132.414062 205.996094 132.148438 C 206.078125 131.882812 206.222656 131.660156 206.433594 131.480469 C 206.640625 131.296875 206.882812 131.183594 207.15625 131.140625 C 207.429688 131.09375 207.695312 131.125 207.949219 131.230469 Z M 152.453125 110.460938 C 151.253906 100.300781 159.402344 94.625 157.984375 87.714844 C 157.980469 87.6875 157.988281 87.667969 158.011719 87.652344 C 158.035156 87.640625 158.058594 87.640625 158.078125 87.660156 C 159.738281 89.070312 160.171875 91.46875 160.148438 92.980469 C 160.089844 96.675781 157.398438 99.242188 157.296875 105.710938 C 157.203125 111.367188 161.40625 117.382812 167.183594 119.285156 C 167.214844 119.292969 167.226562 119.316406 167.222656 119.347656 C 167.21875 119.378906 167.199219 119.394531 167.167969 119.394531 C 165.449219 119.328125 158.246094 118.503906 155.160156 109.457031 C 155.140625 109.394531 155.050781 109.398438 155.050781 109.464844 C 155.042969 111.109375 155.632812 119.03125 167.105469 124.996094 C 167.132812 125.007812 167.144531 125.03125 167.136719 125.0625 C 167.128906 125.097656 167.105469 125.109375 167.074219 125.105469 C 164.890625 124.667969 153.808594 121.898438 152.453125 110.460938 Z M 169.027344 132.949219 C 168.480469 134.851562 166.226562 136.832031 162.867188 137.453125 C 162.789062 137.46875 162.71875 137.449219 162.65625 137.390625 C 162.597656 137.332031 162.574219 137.261719 162.589844 137.183594 C 163.042969 134.851562 165.039062 132.074219 167.046875 131.230469 C 167.300781 131.125 167.566406 131.09375 167.839844 131.140625 C 168.113281 131.183594 168.355469 131.296875 168.5625 131.480469 C 168.773438 131.660156 168.917969 131.882812 169.003906 132.148438 C 169.085938 132.414062 169.09375 132.679688 169.027344 132.949219 Z M 89.332031 122.140625 C 85.460938 120.109375 86.476562 110.539062 91.601562 100.761719 C 96.726562 90.984375 104.019531 84.699219 107.890625 86.726562 C 111.761719 88.757812 110.746094 98.332031 105.621094 108.109375 C 100.5 117.886719 93.203125 124.167969 89.332031 122.140625 Z M 115.878906 113.484375 C 111.378906 122.070312 104.90625 127.773438 100.53125 127.363281 C 100.503906 127.359375 100.484375 127.34375 100.480469 127.316406 C 100.476562 127.285156 100.488281 127.265625 100.511719 127.253906 C 105.300781 124.945312 110.421875 119.652344 114.132812 112.566406 C 117.84375 105.484375 119.285156 98.261719 118.460938 93.011719 C 118.453125 92.984375 118.464844 92.960938 118.492188 92.949219 C 118.519531 92.9375 118.542969 92.945312 118.5625 92.96875 C 121.386719 96.328125 120.378906 104.898438 115.878906 113.484375 Z M 244.320312 115.113281 C 244.230469 115.109375 244.171875 115.0625 244.148438 114.972656 C 243.777344 113.773438 243.53125 112.550781 243.410156 111.300781 C 243.394531 111.164062 243.332031 111.050781 243.226562 110.960938 C 243.125 110.871094 243.003906 110.824219 242.867188 110.824219 C 242.726562 110.824219 242.605469 110.867188 242.503906 110.957031 C 242.398438 111.046875 242.335938 111.160156 242.316406 111.296875 C 242.164062 112.828125 242.144531 114.359375 242.253906 115.894531 C 242.257812 115.933594 242.25 115.96875 242.230469 116 C 241.269531 117.820312 238.160156 118.367188 237.910156 117.8125 C 237.582031 116.21875 237.367188 114.609375 237.257812 112.988281 C 237.1875 112.445312 236.300781 112.546875 236.191406 113.082031 C 235.847656 114.722656 235.988281 119.519531 235.988281 119.519531 C 235.386719 120.472656 233.980469 120.773438 233.457031 120.859375 C 233.324219 120.882812 233.246094 120.824219 233.230469 120.691406 C 232.714844 117.390625 232.539062 114.070312 232.699219 110.734375 C 232.785156 110.09375 233.132812 109.183594 234.839844 108.378906 C 235.695312 108.417969 236.535156 108.558594 237.351562 108.8125 C 237.351562 108.8125 237.863281 107.464844 238.011719 107.246094 C 238.835938 106.183594 239.90625 105.523438 241.226562 105.265625 C 241.679688 105.164062 243.621094 105.765625 243.621094 105.765625 L 244.367188 104.09375 C 244.683594 103.679688 245.070312 103.347656 245.527344 103.101562 C 245.988281 102.855469 246.476562 102.71875 246.996094 102.6875 C 247.128906 102.675781 247.199219 102.734375 247.207031 102.871094 C 247.375 105.355469 247.824219 107.789062 248.558594 110.167969 C 248.628906 111.023438 248.597656 111.875 248.464844 112.71875 C 247.832031 114.066406 245.046875 115.148438 244.320312 115.117188 Z M 202.839844 134.800781 C 203.136719 135.980469 203.101562 138.0625 202.332031 139.035156 C 202.320312 139.050781 202.316406 139.070312 202.324219 139.089844 C 202.332031 139.109375 202.347656 139.121094 202.367188 139.121094 C 203.082031 139.226562 203.769531 139.125 204.425781 138.820312 C 204.449219 138.804688 204.472656 138.808594 204.492188 138.824219 C 204.511719 138.84375 204.515625 138.867188 204.503906 138.890625 C 203.980469 139.949219 201.238281 142.679688 197.085938 141.023438 C 197.054688 141.007812 197.042969 140.988281 197.050781 140.957031 C 197.054688 140.925781 197.074219 140.90625 197.105469 140.902344 C 198.179688 140.847656 201.882812 140.261719 202.65625 134.808594 C 202.664062 134.757812 202.691406 134.730469 202.746094 134.730469 C 202.796875 134.726562 202.828125 134.75 202.839844 134.800781 Z M 191.472656 160.527344 C 191.472656 160.738281 191.539062 160.929688 191.671875 161.097656 C 191.757812 161.203125 191.8125 161.324219 191.84375 161.460938 C 191.871094 161.59375 191.867188 161.730469 191.828125 161.863281 C 191.792969 161.996094 191.726562 162.113281 191.632812 162.214844 C 191.542969 162.3125 191.429688 162.390625 191.300781 162.4375 C 190.070312 162.859375 188.800781 163.070312 187.5 163.070312 C 186.195312 163.070312 184.929688 162.859375 183.695312 162.4375 C 183.566406 162.390625 183.457031 162.316406 183.363281 162.214844 C 183.269531 162.113281 183.203125 161.996094 183.167969 161.863281 C 183.132812 161.730469 183.128906 161.59375 183.15625 161.460938 C 183.183594 161.324219 183.242188 161.203125 183.328125 161.097656 C 183.457031 160.929688 183.523438 160.738281 183.523438 160.527344 C 183.460938 158.105469 180.113281 158.476562 180.546875 160.460938 C 180.828125 161.765625 180.546875 162.078125 179.988281 162.078125 C 179.488281 162.078125 177.382812 159.65625 177.382812 158.847656 C 177.382812 158.113281 178.683594 157.484375 179.269531 155.484375 C 179.355469 155.269531 179.480469 155.082031 179.644531 154.917969 C 179.808594 154.757812 180 154.632812 180.214844 154.550781 C 180.429688 154.46875 180.652344 154.429688 180.882812 154.441406 C 181.113281 154.449219 181.332031 154.503906 181.539062 154.605469 C 183.4375 155.445312 185.421875 155.863281 187.496094 155.863281 C 189.570312 155.863281 191.558594 155.445312 193.457031 154.605469 C 193.664062 154.503906 193.882812 154.449219 194.113281 154.441406 C 194.34375 154.429688 194.566406 154.46875 194.78125 154.550781 C 194.996094 154.632812 195.1875 154.757812 195.351562 154.917969 C 195.515625 155.082031 195.640625 155.269531 195.726562 155.484375 C 196.3125 157.484375 197.617188 158.113281 197.617188 158.847656 C 197.617188 159.65625 195.503906 162.078125 195.007812 162.078125 C 194.449219 162.078125 194.164062 161.765625 194.449219 160.460938 C 194.886719 158.476562 191.535156 158.105469 191.472656 160.527344 Z M 176.386719 138.238281 C 175.460938 137.871094 174.167969 136.703125 174.210938 133.949219 C 174.214844 133.914062 174.234375 133.890625 174.265625 133.886719 C 175.675781 133.675781 176.984375 133.945312 178.195312 134.695312 C 179.6875 135.78125 179.582031 137.765625 179.964844 138.859375 C 179.976562 138.902344 179.96875 138.9375 179.929688 138.964844 C 179.894531 138.992188 179.859375 138.992188 179.820312 138.964844 C 178.773438 138.210938 177.269531 138.589844 176.386719 138.238281 Z M 195.035156 138.859375 C 195.414062 137.765625 195.3125 135.785156 196.800781 134.695312 C 198.011719 133.949219 199.320312 133.679688 200.730469 133.886719 C 200.761719 133.890625 200.78125 133.914062 200.785156 133.949219 C 200.828125 136.703125 199.535156 137.871094 198.613281 138.242188 C 197.730469 138.59375 196.226562 138.210938 195.175781 138.964844 C 195.140625 138.992188 195.101562 138.992188 195.066406 138.964844 C 195.03125 138.9375 195.019531 138.902344 195.035156 138.859375 Z M 173.210938 118.546875 C 173.976562 118.421875 174.742188 118.421875 175.511719 118.542969 C 176.277344 118.664062 177.007812 118.902344 177.699219 119.257812 C 178.390625 119.613281 179.007812 120.066406 179.554688 120.617188 C 180.101562 121.167969 180.550781 121.792969 180.898438 122.488281 C 180.914062 122.515625 180.9375 122.523438 180.96875 122.515625 C 181 122.503906 181.011719 122.484375 181.007812 122.453125 C 180.523438 118.332031 176.796875 116.957031 175.734375 116.648438 C 175.691406 116.636719 175.667969 116.605469 175.667969 116.558594 C 175.667969 116.515625 175.6875 116.484375 175.730469 116.46875 C 182.117188 114.066406 185.796875 117.332031 187.332031 119.546875 C 187.371094 119.601562 187.425781 119.628906 187.496094 119.628906 C 187.566406 119.628906 187.621094 119.601562 187.660156 119.546875 C 189.195312 117.332031 192.878906 114.066406 199.265625 116.46875 C 199.308594 116.484375 199.328125 116.515625 199.328125 116.558594 C 199.324219 116.605469 199.300781 116.636719 199.257812 116.648438 C 198.199219 116.957031 194.46875 118.332031 193.984375 122.453125 C 193.976562 122.484375 193.992188 122.507812 194.023438 122.515625 C 194.054688 122.527344 194.078125 122.515625 194.09375 122.488281 C 194.441406 121.792969 194.890625 121.167969 195.4375 120.617188 C 195.984375 120.066406 196.601562 119.613281 197.292969 119.257812 C 197.984375 118.902344 198.714844 118.664062 199.480469 118.542969 C 200.25 118.421875 201.015625 118.421875 201.78125 118.546875 C 201.863281 118.554688 201.890625 118.59375 201.859375 118.671875 C 200.863281 121.957031 200.664062 125.292969 201.265625 128.675781 C 201.273438 128.722656 201.257812 128.753906 201.21875 128.777344 C 199.785156 129.558594 198.570312 130.59375 197.574219 131.886719 C 197.542969 131.925781 197.503906 131.9375 197.457031 131.914062 C 197.410156 131.890625 197.394531 131.851562 197.40625 131.804688 C 197.863281 130.21875 198.726562 128.910156 200.003906 127.867188 C 200.027344 127.851562 200.035156 127.832031 200.023438 127.804688 C 200.011719 127.777344 199.992188 127.769531 199.964844 127.773438 C 198.070312 128.078125 193.382812 131.660156 194.820312 133.214844 C 194.820312 133.214844 190.042969 141.035156 187.664062 137.371094 C 187.625 137.308594 187.566406 137.277344 187.496094 137.277344 C 187.421875 137.277344 187.367188 137.308594 187.328125 137.371094 C 184.945312 141.035156 180.171875 133.214844 180.171875 133.214844 C 181.609375 131.65625 176.921875 128.078125 175.027344 127.773438 C 175 127.769531 174.980469 127.777344 174.96875 127.804688 C 174.957031 127.828125 174.964844 127.851562 174.984375 127.867188 C 176.261719 128.910156 177.128906 130.21875 177.582031 131.804688 C 177.597656 131.851562 177.578125 131.890625 177.535156 131.914062 C 177.488281 131.9375 177.449219 131.925781 177.417969 131.886719 C 176.417969 130.59375 175.207031 129.558594 173.773438 128.777344 C 173.734375 128.753906 173.71875 128.722656 173.722656 128.675781 C 174.324219 125.292969 174.128906 121.957031 173.132812 118.671875 C 173.101562 118.59375 173.125 118.550781 173.210938 118.546875 Z M 170.492188 138.890625 C 170.480469 138.867188 170.484375 138.84375 170.503906 138.828125 C 170.523438 138.808594 170.546875 138.804688 170.570312 138.820312 C 171.226562 139.125 171.914062 139.226562 172.628906 139.121094 C 172.652344 139.121094 172.664062 139.109375 172.671875 139.089844 C 172.679688 139.070312 172.675781 139.050781 172.660156 139.035156 C 171.894531 138.0625 171.859375 135.980469 172.15625 134.800781 C 172.167969 134.75 172.199219 134.726562 172.253906 134.730469 C 172.304688 134.730469 172.332031 134.757812 172.339844 134.808594 C 173.113281 140.261719 176.816406 140.851562 177.890625 140.90625 C 177.921875 140.910156 177.941406 140.925781 177.945312 140.957031 C 177.953125 140.988281 177.941406 141.011719 177.910156 141.023438 C 173.757812 142.679688 171.019531 139.949219 170.492188 138.890625 Z M 126.441406 110.171875 C 127.175781 107.792969 127.625 105.359375 127.792969 102.875 C 127.800781 102.742188 127.875 102.679688 128.007812 102.691406 C 128.527344 102.722656 129.015625 102.863281 129.476562 103.105469 C 129.933594 103.351562 130.320312 103.683594 130.632812 104.097656 L 131.378906 105.769531 C 131.378906 105.769531 133.324219 105.164062 133.773438 105.269531 C 135.09375 105.527344 136.167969 106.1875 136.988281 107.25 C 137.140625 107.46875 137.648438 108.816406 137.648438 108.816406 C 138.46875 108.5625 139.308594 108.421875 140.164062 108.386719 C 141.871094 109.1875 142.214844 110.101562 142.304688 110.738281 C 142.464844 114.078125 142.285156 117.394531 141.773438 120.695312 C 141.753906 120.828125 141.679688 120.886719 141.546875 120.863281 C 141.023438 120.78125 139.613281 120.476562 139.015625 119.523438 C 139.015625 119.523438 139.152344 114.726562 138.8125 113.085938 C 138.699219 112.550781 137.816406 112.449219 137.746094 112.992188 C 137.636719 114.617188 137.417969 116.226562 137.089844 117.820312 C 136.84375 118.375 133.734375 117.832031 132.769531 116.007812 C 132.753906 115.976562 132.746094 115.941406 132.746094 115.902344 C 132.855469 114.367188 132.835938 112.835938 132.683594 111.304688 C 132.664062 111.167969 132.601562 111.054688 132.496094 110.964844 C 132.394531 110.875 132.273438 110.832031 132.132812 110.832031 C 131.996094 110.832031 131.875 110.878906 131.773438 110.96875 C 131.667969 111.058594 131.609375 111.171875 131.589844 111.308594 C 131.46875 112.558594 131.222656 113.78125 130.851562 114.980469 C 130.828125 115.070312 130.769531 115.117188 130.679688 115.121094 C 129.949219 115.152344 127.167969 114.074219 126.539062 112.730469 C 126.40625 111.882812 126.375 111.027344 126.441406 110.171875 Z M 123.214844 164.449219 C 122.109375 162.078125 122.378906 157.8125 122.539062 155.722656 C 122.539062 155.695312 122.523438 155.679688 122.496094 155.671875 C 122.46875 155.664062 122.445312 155.671875 122.429688 155.691406 C 121.339844 157.875 121.222656 160.898438 121.414062 163.546875 C 121.414062 163.582031 121.398438 163.601562 121.367188 163.609375 C 121.332031 163.617188 121.308594 163.605469 121.296875 163.570312 C 117.460938 152.675781 123.738281 135.710938 125.324219 132.054688 C 125.339844 132.007812 125.375 131.992188 125.421875 132.007812 C 125.472656 132.023438 125.488281 132.054688 125.476562 132.105469 C 123.929688 139.378906 129.050781 152.601562 128.648438 159.90625 C 128.613281 161.617188 128.164062 163.214844 127.296875 164.695312 C 127.066406 165.050781 126.765625 165.324219 126.386719 165.515625 C 126.007812 165.707031 125.609375 165.789062 125.1875 165.765625 C 124.761719 165.738281 124.375 165.609375 124.023438 165.371094 C 123.671875 165.136719 123.402344 164.828125 123.214844 164.449219 Z M 147.179688 166.390625 C 145.34375 164.511719 143.75 164.5 143.164062 164.578125 C 143.132812 164.578125 143.117188 164.597656 143.113281 164.628906 C 143.113281 164.660156 143.128906 164.679688 143.160156 164.6875 C 145.527344 165.480469 147.253906 170.957031 142.925781 170.957031 C 138.816406 170.957031 135.335938 166.019531 134.804688 165.226562 C 134.789062 165.207031 134.769531 165.199219 134.746094 165.203125 C 134.71875 165.210938 134.707031 165.226562 134.703125 165.25 C 134.167969 167.546875 133.351562 169.738281 132.25 171.824219 C 133.636719 173.371094 135.257812 174.613281 137.113281 175.550781 C 138.96875 176.488281 140.929688 177.058594 143 177.257812 C 143.070312 177.261719 143.066406 177.367188 142.996094 177.375 C 132.09375 178.675781 128.398438 173.191406 128.398438 173.191406 C 130.335938 169.277344 131.316406 165.140625 131.347656 160.777344 C 141.613281 157.160156 147.175781 164.765625 147.277344 166.355469 C 147.28125 166.40625 147.214844 166.425781 147.179688 166.390625 Z M 148.335938 159.945312 C 159.480469 157.101562 164.183594 163.28125 164.40625 164.5 C 164.65625 165.867188 163.785156 167.480469 162.046875 167.105469 C 160.808594 166.839844 157.828125 164 155.605469 163.53125 C 155.578125 163.527344 155.558594 163.539062 155.546875 163.558594 C 155.535156 163.582031 155.535156 163.605469 155.550781 163.625 C 156.234375 164.597656 156.667969 165.671875 156.859375 166.839844 C 157.046875 168.011719 156.972656 169.167969 156.636719 170.304688 C 156.628906 170.332031 156.609375 170.34375 156.582031 170.34375 C 156.554688 170.34375 156.539062 170.332031 156.53125 170.304688 C 155.34375 166.941406 152.597656 162.558594 148.320312 160.050781 C 148.300781 160.035156 148.289062 160.015625 148.292969 159.992188 C 148.296875 159.964844 148.3125 159.949219 148.335938 159.945312 Z M 160.914062 203.847656 C 159.800781 203.242188 155.429688 200.710938 153.292969 196.996094 C 153.273438 196.953125 153.242188 196.941406 153.203125 196.953125 C 153.160156 196.96875 153.140625 196.996094 153.152344 197.039062 C 153.316406 198.148438 154.140625 201.609375 158.1875 206.527344 C 158.210938 206.554688 158.210938 206.578125 158.191406 206.605469 C 158.171875 206.628906 158.144531 206.636719 158.117188 206.617188 C 156.410156 205.417969 148.652344 199.386719 149.359375 189.382812 C 149.363281 189.320312 149.453125 189.304688 149.472656 189.359375 C 149.898438 190.59375 150.613281 191.628906 151.613281 192.46875 C 151.632812 192.484375 151.65625 192.484375 151.679688 192.472656 C 151.703125 192.460938 151.710938 192.441406 151.707031 192.414062 C 151.535156 191.621094 150.789062 187.808594 151.664062 184.636719 C 151.675781 184.609375 151.695312 184.601562 151.726562 184.601562 C 151.753906 184.605469 151.773438 184.621094 151.777344 184.648438 C 152.667969 191.394531 155.003906 196.878906 160.976562 203.753906 C 161.003906 203.773438 161.007812 203.800781 160.988281 203.828125 C 160.96875 203.855469 160.941406 203.859375 160.914062 203.84375 Z M 164.484375 190.820312 C 165.554688 191.125 170.703125 192.453125 174.964844 191.359375 C 174.992188 191.347656 175.003906 191.324219 175 191.296875 C 174.996094 191.265625 174.980469 191.246094 174.953125 191.238281 C 173.167969 191.136719 165.515625 190.402344 161.824219 185.476562 C 161.808594 185.453125 161.804688 185.433594 161.820312 185.410156 C 161.832031 185.390625 161.851562 185.378906 161.875 185.382812 C 164.5 185.785156 167.125 185.789062 169.753906 185.390625 C 169.78125 185.386719 169.792969 185.371094 169.800781 185.34375 C 169.804688 185.316406 169.792969 185.296875 169.769531 185.285156 C 168.785156 184.8125 163.707031 182.238281 163.539062 179.214844 C 163.347656 175.960938 166.691406 174.832031 170.25 176.308594 C 170.269531 176.316406 170.292969 176.3125 170.308594 176.296875 C 170.328125 176.28125 170.332031 176.261719 170.328125 176.238281 C 170.121094 175.613281 169.78125 175.070312 169.3125 174.609375 C 169.292969 174.59375 169.285156 174.574219 169.292969 174.550781 C 169.300781 174.53125 169.316406 174.515625 169.339844 174.515625 C 171.253906 174.390625 173.0625 174.777344 174.761719 175.664062 C 174.78125 175.675781 174.804688 175.675781 174.824219 175.65625 C 174.839844 175.640625 174.847656 175.621094 174.835938 175.597656 C 174.496094 174.832031 172.613281 171.152344 167.25 169.460938 C 167.222656 169.453125 167.210938 169.433594 167.210938 169.40625 C 167.210938 169.378906 167.222656 169.363281 167.25 169.355469 C 168.125 169.132812 172.179688 168.414062 179.011719 171.804688 C 179.050781 171.824219 179.085938 171.816406 179.113281 171.785156 C 179.144531 171.75 179.148438 171.714844 179.125 171.679688 C 178.4375 170.6875 177.578125 169.886719 176.539062 169.277344 C 176.511719 169.261719 176.503906 169.242188 176.511719 169.210938 C 176.519531 169.183594 176.539062 169.167969 176.566406 169.171875 C 179.152344 169.316406 183.503906 170.804688 184.703125 173.691406 C 184.703125 173.691406 184.746094 173.84375 184.8125 174.109375 C 184.820312 174.152344 184.808594 174.183594 184.773438 174.207031 C 184.738281 174.230469 184.703125 174.226562 184.667969 174.199219 C 184.011719 173.644531 183.253906 173.324219 182.398438 173.230469 C 182.371094 173.226562 182.351562 173.238281 182.335938 173.265625 C 182.324219 173.292969 182.328125 173.316406 182.351562 173.335938 C 182.96875 173.828125 184.910156 175.671875 185.308594 179.679688 C 185.3125 179.707031 185.300781 179.726562 185.277344 179.738281 C 185.253906 179.75 185.230469 179.75 185.210938 179.734375 C 184.5 178.980469 183.625 178.613281 182.589844 178.632812 C 182.558594 178.636719 182.542969 178.652344 182.535156 178.683594 C 182.53125 178.710938 182.539062 178.734375 182.566406 178.75 C 183.765625 179.3125 186.015625 181.582031 185.238281 184.527344 C 185.15625 185.007812 184.949219 185.425781 184.617188 185.785156 C 184.285156 186.144531 183.882812 186.378906 183.40625 186.496094 C 183.355469 186.523438 183.351562 186.554688 183.398438 186.59375 C 183.664062 186.769531 183.957031 186.867188 184.273438 186.886719 C 184.589844 186.910156 184.894531 186.851562 185.179688 186.714844 C 185.234375 186.6875 185.265625 186.703125 185.273438 186.761719 C 185.636719 190.757812 181.855469 194.300781 174.710938 193.929688 C 167.589844 193.554688 165.019531 191.503906 164.425781 190.917969 C 164.390625 190.898438 164.382812 190.871094 164.402344 190.839844 C 164.421875 190.804688 164.449219 190.796875 164.484375 190.816406 Z M 185.015625 211.621094 C 184.585938 212.238281 174.113281 215.792969 175.546875 205.449219 C 175.550781 205.417969 175.539062 205.398438 175.515625 205.386719 C 175.488281 205.375 175.464844 205.378906 175.445312 205.402344 C 175.0625 205.953125 174.769531 206.546875 174.570312 207.183594 C 174.367188 207.820312 174.269531 208.472656 174.269531 209.144531 C 174.269531 209.8125 174.367188 210.464844 174.570312 211.105469 C 174.769531 211.742188 175.0625 212.335938 175.445312 212.882812 C 175.460938 212.902344 175.460938 212.921875 175.449219 212.945312 C 175.433594 212.964844 175.417969 212.972656 175.390625 212.96875 C 174.027344 212.640625 169.363281 207.339844 174.273438 200.914062 C 174.296875 200.882812 174.300781 200.851562 174.28125 200.820312 C 174.261719 200.789062 174.234375 200.773438 174.199219 200.777344 C 171.136719 201.054688 168.910156 199.660156 167.875 198.09375 C 167.859375 198.066406 167.863281 198.042969 167.882812 198.023438 C 167.902344 198.003906 167.925781 198 167.953125 198.015625 C 171.167969 199.792969 176.65625 198.257812 179.949219 196.691406 C 180.800781 196.277344 181.691406 196.167969 182.617188 196.367188 C 183.863281 196.644531 185.476562 197.296875 186.191406 198.832031 C 187.003906 206.15625 185.449219 210.996094 185.015625 211.617188 Z M 183.699219 165.085938 C 183.574219 164.902344 183.578125 164.71875 183.714844 164.546875 C 183.855469 164.371094 184.027344 164.320312 184.238281 164.402344 C 185.285156 164.898438 186.347656 164.933594 187.425781 164.511719 C 187.472656 164.492188 187.523438 164.492188 187.574219 164.511719 C 188.652344 164.933594 189.714844 164.898438 190.761719 164.402344 C 190.972656 164.320312 191.144531 164.371094 191.28125 164.546875 C 191.421875 164.722656 191.425781 164.902344 191.296875 165.085938 C 190.84375 165.785156 189.816406 166.546875 187.5 166.546875 C 185.183594 166.546875 184.15625 165.785156 183.699219 165.085938 Z M 200.796875 200.773438 C 200.757812 200.769531 200.730469 200.785156 200.710938 200.816406 C 200.695312 200.851562 200.695312 200.882812 200.71875 200.910156 C 205.632812 207.335938 200.964844 212.640625 199.605469 212.964844 C 199.578125 212.972656 199.558594 212.964844 199.546875 212.941406 C 199.535156 212.921875 199.535156 212.898438 199.546875 212.878906 C 199.933594 212.332031 200.226562 211.738281 200.425781 211.101562 C 200.628906 210.464844 200.726562 209.808594 200.726562 209.140625 C 200.726562 208.472656 200.628906 207.816406 200.425781 207.179688 C 200.226562 206.542969 199.933594 205.949219 199.546875 205.402344 C 199.53125 205.378906 199.507812 205.371094 199.480469 205.382812 C 199.453125 205.394531 199.445312 205.414062 199.449219 205.445312 C 200.882812 215.789062 190.410156 212.234375 189.980469 211.617188 C 189.546875 211 187.992188 206.15625 188.796875 198.828125 C 189.511719 197.292969 191.128906 196.644531 192.375 196.363281 C 193.300781 196.164062 194.191406 196.273438 195.042969 196.691406 C 198.335938 198.257812 203.820312 199.789062 207.039062 198.011719 C 207.0625 197.996094 207.085938 198 207.109375 198.019531 C 207.128906 198.042969 207.128906 198.066406 207.113281 198.089844 C 206.085938 199.65625 203.855469 201.054688 200.796875 200.773438 Z M 213.175781 185.472656 C 209.480469 190.398438 201.832031 191.132812 200.046875 191.238281 C 200.015625 191.246094 200 191.261719 200 191.292969 C 199.996094 191.324219 200.007812 191.34375 200.035156 191.355469 C 204.296875 192.453125 209.445312 191.121094 210.515625 190.816406 C 210.542969 190.808594 210.566406 190.816406 210.582031 190.84375 C 210.597656 190.867188 210.59375 190.890625 210.574219 190.914062 C 209.980469 191.5 207.40625 193.550781 200.289062 193.921875 C 193.140625 194.296875 189.359375 190.753906 189.726562 186.753906 C 189.734375 186.699219 189.765625 186.683594 189.816406 186.707031 C 190.105469 186.84375 190.40625 186.902344 190.722656 186.882812 C 191.042969 186.859375 191.335938 186.761719 191.601562 186.589844 C 191.644531 186.550781 191.640625 186.515625 191.589844 186.488281 C 191.113281 186.375 190.710938 186.136719 190.378906 185.777344 C 190.046875 185.421875 189.839844 185 189.757812 184.519531 C 188.976562 181.578125 191.230469 179.308594 192.429688 178.742188 C 192.457031 178.726562 192.464844 178.707031 192.460938 178.675781 C 192.457031 178.648438 192.4375 178.628906 192.410156 178.625 C 191.375 178.609375 190.5 178.976562 189.789062 179.726562 C 189.765625 179.742188 189.746094 179.746094 189.722656 179.730469 C 189.699219 179.71875 189.6875 179.703125 189.6875 179.675781 C 190.085938 175.667969 192.027344 173.824219 192.648438 173.332031 C 192.667969 173.308594 192.671875 173.285156 192.660156 173.257812 C 192.648438 173.234375 192.628906 173.222656 192.597656 173.222656 C 191.742188 173.316406 190.988281 173.640625 190.328125 174.191406 C 190.296875 174.222656 190.261719 174.222656 190.222656 174.203125 C 190.1875 174.179688 190.175781 174.144531 190.1875 174.105469 C 190.25 173.835938 190.292969 173.6875 190.292969 173.6875 C 191.496094 170.800781 195.84375 169.308594 198.429688 169.164062 C 198.460938 169.160156 198.480469 169.175781 198.488281 169.203125 C 198.496094 169.234375 198.484375 169.257812 198.457031 169.269531 C 197.421875 169.882812 196.558594 170.683594 195.875 171.671875 C 195.851562 171.710938 195.855469 171.746094 195.882812 171.777344 C 195.914062 171.8125 195.949219 171.816406 195.988281 171.796875 C 202.816406 168.40625 206.875 169.128906 207.746094 169.347656 C 207.773438 169.355469 207.785156 169.375 207.785156 169.402344 C 207.785156 169.429688 207.773438 169.445312 207.746094 169.453125 C 202.386719 171.148438 200.5 174.824219 200.160156 175.589844 C 200.152344 175.613281 200.15625 175.632812 200.171875 175.652344 C 200.191406 175.667969 200.214844 175.671875 200.234375 175.660156 C 201.9375 174.769531 203.742188 174.386719 205.65625 174.507812 C 205.679688 174.511719 205.695312 174.523438 205.703125 174.546875 C 205.710938 174.570312 205.703125 174.589844 205.6875 174.605469 C 205.214844 175.0625 204.875 175.605469 204.667969 176.230469 C 204.664062 176.253906 204.671875 176.273438 204.6875 176.289062 C 204.707031 176.308594 204.726562 176.3125 204.75 176.304688 C 208.308594 174.824219 211.648438 175.953125 211.460938 179.210938 C 211.289062 182.230469 206.210938 184.808594 205.226562 185.277344 C 205.203125 185.289062 205.191406 185.3125 205.199219 185.339844 C 205.203125 185.367188 205.21875 185.382812 205.246094 185.386719 C 207.871094 185.78125 210.496094 185.78125 213.121094 185.378906 C 213.148438 185.371094 213.167969 185.378906 213.183594 185.40625 C 213.199219 185.429688 213.195312 185.453125 213.175781 185.472656 Z M 216.882812 206.613281 C 216.824219 206.652344 216.765625 206.578125 216.808594 206.527344 C 220.855469 201.605469 221.683594 198.144531 221.847656 197.035156 C 221.859375 196.992188 221.839844 196.964844 221.796875 196.949219 C 221.757812 196.9375 221.726562 196.949219 221.707031 196.992188 C 219.570312 200.703125 215.199219 203.242188 214.085938 203.84375 C 214.054688 203.859375 214.03125 203.851562 214.011719 203.824219 C 213.992188 203.796875 213.996094 203.773438 214.023438 203.75 C 219.996094 196.878906 222.332031 191.394531 223.21875 184.648438 C 223.226562 184.621094 223.246094 184.605469 223.273438 184.601562 C 223.304688 184.597656 223.324219 184.609375 223.335938 184.636719 C 224.210938 187.804688 223.460938 191.617188 223.289062 192.414062 C 223.289062 192.4375 223.300781 192.457031 223.320312 192.46875 C 223.34375 192.480469 223.363281 192.480469 223.386719 192.46875 C 224.386719 191.628906 225.101562 190.59375 225.527344 189.359375 C 225.546875 189.304688 225.636719 189.320312 225.640625 189.382812 C 226.347656 199.382812 218.589844 205.414062 216.882812 206.617188 Z M 226.679688 160.050781 C 222.402344 162.558594 219.652344 166.941406 218.46875 170.304688 C 218.460938 170.332031 218.441406 170.34375 218.414062 170.34375 C 218.386719 170.34375 218.371094 170.332031 218.363281 170.304688 C 218.023438 169.167969 217.949219 168.011719 218.140625 166.839844 C 218.332031 165.671875 218.765625 164.597656 219.449219 163.625 C 219.464844 163.605469 219.464844 163.582031 219.453125 163.558594 C 219.441406 163.539062 219.421875 163.527344 219.394531 163.53125 C 217.171875 164 214.1875 166.839844 212.953125 167.105469 C 211.214844 167.480469 210.34375 165.867188 210.59375 164.5 C 210.816406 163.28125 215.519531 157.097656 226.664062 159.945312 C 226.6875 159.949219 226.703125 159.96875 226.707031 159.992188 C 226.707031 160.015625 226.699219 160.035156 226.679688 160.050781 Z M 232.003906 177.375 C 231.933594 177.367188 231.929688 177.261719 232 177.257812 C 234.066406 177.058594 236.03125 176.488281 237.886719 175.550781 C 239.738281 174.613281 241.363281 173.371094 242.75 171.824219 C 241.648438 169.738281 240.832031 167.546875 240.296875 165.25 C 240.292969 165.226562 240.277344 165.210938 240.253906 165.207031 C 240.230469 165.199219 240.210938 165.207031 240.195312 165.226562 C 239.664062 166.019531 236.183594 170.953125 232.070312 170.953125 C 227.742188 170.953125 229.46875 165.480469 231.839844 164.6875 C 231.871094 164.679688 231.882812 164.660156 231.882812 164.628906 C 231.878906 164.597656 231.863281 164.582031 231.835938 164.578125 C 231.25 164.5 229.65625 164.511719 227.820312 166.390625 C 227.804688 166.410156 227.785156 166.414062 227.757812 166.40625 C 227.734375 166.398438 227.722656 166.378906 227.722656 166.355469 C 227.824219 164.765625 233.386719 157.160156 243.652344 160.777344 C 243.683594 165.140625 244.664062 169.277344 246.597656 173.1875 C 246.597656 173.1875 242.902344 178.675781 232.003906 177.375 Z M 253.699219 163.570312 C 253.6875 163.601562 253.664062 163.617188 253.632812 163.609375 C 253.597656 163.601562 253.582031 163.582031 253.585938 163.546875 C 253.773438 160.898438 253.65625 157.875 252.570312 155.691406 C 252.554688 155.667969 252.53125 155.660156 252.503906 155.667969 C 252.472656 155.675781 252.457031 155.695312 252.457031 155.722656 C 252.621094 157.8125 252.886719 162.078125 251.78125 164.449219 C 251.59375 164.828125 251.328125 165.136719 250.972656 165.371094 C 250.621094 165.605469 250.234375 165.738281 249.8125 165.761719 C 249.390625 165.789062 248.988281 165.707031 248.609375 165.515625 C 248.234375 165.324219 247.929688 165.050781 247.699219 164.695312 C 246.832031 163.214844 246.382812 161.617188 246.347656 159.902344 C 245.949219 152.601562 251.066406 139.375 249.523438 132.105469 C 249.507812 132.054688 249.527344 132.023438 249.574219 132.007812 C 249.625 131.988281 249.65625 132.007812 249.675781 132.054688 C 251.257812 135.710938 257.535156 152.675781 253.699219 163.570312 Z M 274.464844 127.363281 C 270.089844 127.773438 263.613281 122.066406 259.121094 113.480469 C 254.625 104.894531 253.609375 96.328125 256.4375 92.96875 C 256.457031 92.945312 256.476562 92.9375 256.503906 92.949219 C 256.53125 92.960938 256.542969 92.984375 256.539062 93.011719 C 255.710938 98.261719 257.152344 105.484375 260.867188 112.566406 C 264.582031 119.652344 269.695312 124.945312 274.484375 127.253906 C 274.511719 127.265625 274.523438 127.285156 274.515625 127.316406 C 274.511719 127.34375 274.492188 127.359375 274.464844 127.363281 Z M 285.664062 122.136719 C 281.792969 124.167969 274.5 117.886719 269.375 108.109375 C 264.25 98.332031 263.234375 88.757812 267.105469 86.726562 C 270.980469 84.699219 278.269531 90.980469 283.394531 100.757812 C 288.523438 110.539062 289.535156 120.109375 285.664062 122.140625 Z M 146.105469 121.257812 C 146.070312 121.261719 146.046875 121.28125 146.035156 121.3125 C 146.023438 121.34375 146.027344 121.371094 146.050781 121.398438 C 147.167969 122.507812 146.761719 125.785156 145.019531 129.109375 C 143.277344 132.433594 140.8125 134.632812 139.265625 134.347656 C 139.230469 134.34375 139.207031 134.355469 139.1875 134.382812 C 139.164062 134.410156 139.164062 134.4375 139.179688 134.46875 C 139.320312 134.753906 139.53125 134.972656 139.808594 135.125 C 141.375 135.949219 144.261719 133.542969 146.246094 129.753906 C 148.230469 125.96875 148.570312 122.226562 147 121.402344 C 146.714844 121.261719 146.417969 121.214844 146.105469 121.261719 Z M 235.1875 135.125 C 235.464844 134.972656 235.675781 134.753906 235.816406 134.46875 C 235.832031 134.4375 235.832031 134.410156 235.8125 134.382812 C 235.792969 134.351562 235.765625 134.339844 235.730469 134.347656 C 234.1875 134.632812 231.722656 132.433594 229.980469 129.109375 C 228.238281 125.785156 227.828125 122.507812 228.945312 121.394531 C 228.96875 121.371094 228.972656 121.34375 228.960938 121.3125 C 228.949219 121.277344 228.925781 121.261719 228.894531 121.257812 C 228.578125 121.210938 228.277344 121.261719 227.992188 121.402344 C 226.425781 122.222656 226.761719 125.964844 228.746094 129.753906 C 230.730469 133.542969 233.617188 135.953125 235.1875 135.128906 Z M 107.820312 89.570312 C 107.863281 89.597656 107.902344 89.59375 107.941406 89.558594 C 107.976562 89.519531 107.980469 89.480469 107.953125 89.4375 C 107.710938 89.035156 107.382812 88.71875 106.964844 88.496094 C 103.816406 86.84375 97.523438 92.640625 92.90625 101.441406 C 88.292969 110.246094 87.105469 118.71875 90.257812 120.371094 C 90.679688 120.585938 91.125 120.679688 91.597656 120.648438 C 91.644531 120.644531 91.675781 120.617188 91.6875 120.570312 C 91.695312 120.519531 91.679688 120.484375 91.632812 120.464844 C 88.867188 119.011719 90.253906 110.921875 94.722656 102.394531 C 99.1875 93.867188 105.054688 88.125 107.820312 89.570312 Z M 274.898438 99.585938 C 274.023438 100.042969 274.351562 102.390625 275.628906 104.832031 C 276.90625 107.269531 278.652344 108.875 279.527344 108.417969 C 280.398438 107.957031 280.070312 105.613281 278.792969 103.171875 C 277.511719 100.734375 275.769531 99.125 274.894531 99.585938 Z M 282.089844 101.441406 C 277.476562 92.640625 271.183594 86.84375 268.03125 88.496094 C 267.617188 88.71875 267.289062 89.03125 267.046875 89.4375 C 267.019531 89.480469 267.023438 89.519531 267.058594 89.554688 C 267.089844 89.59375 267.132812 89.597656 267.175781 89.574219 C 269.945312 88.125 275.808594 93.863281 280.277344 102.394531 C 284.746094 110.925781 286.128906 119.015625 283.367188 120.457031 C 283.320312 120.476562 283.300781 120.515625 283.3125 120.566406 C 283.320312 120.617188 283.351562 120.640625 283.402344 120.644531 C 283.875 120.675781 284.320312 120.582031 284.742188 120.367188 C 287.890625 118.71875 286.703125 110.246094 282.089844 101.441406 Z M 100.101562 99.585938 C 99.230469 99.125 97.484375 100.734375 96.207031 103.171875 C 94.929688 105.613281 94.597656 107.960938 95.472656 108.417969 C 96.34375 108.871094 98.089844 107.265625 99.367188 104.832031 C 100.644531 102.394531 100.972656 100.042969 100.101562 99.585938 Z M 100.101562 99.585938 " fill-opacity="1" fill-rule="evenodd"/></g><path fill="#ffffff" d="M 204.171875 93.984375 C 203.925781 93.984375 203.683594 94.015625 203.445312 94.074219 C 203.207031 94.136719 202.980469 94.226562 202.761719 94.34375 C 202.546875 94.460938 202.347656 94.605469 202.167969 94.773438 C 201.984375 94.9375 201.828125 95.125 201.695312 95.332031 C 201.558594 95.539062 201.453125 95.761719 201.375 95.992188 C 201.296875 96.226562 201.246094 96.464844 201.226562 96.710938 C 201.207031 96.957031 201.21875 97.203125 201.261719 97.445312 C 201.304688 97.6875 201.375 97.921875 201.476562 98.148438 C 201.53125 98.265625 201.507812 98.371094 201.410156 98.457031 C 197.628906 101.765625 189.925781 99.902344 189.050781 93.808594 C 189.03125 93.691406 189.070312 93.601562 189.175781 93.542969 C 189.382812 93.421875 189.570312 93.277344 189.746094 93.113281 C 189.921875 92.953125 190.078125 92.769531 190.214844 92.574219 C 190.351562 92.375 190.464844 92.167969 190.554688 91.945312 C 190.644531 91.722656 190.710938 91.492188 190.75 91.257812 C 190.789062 91.019531 190.804688 90.78125 190.792969 90.542969 C 190.78125 90.300781 190.742188 90.066406 190.679688 89.835938 C 190.617188 89.605469 190.527344 89.382812 190.417969 89.171875 C 190.304688 88.957031 190.171875 88.761719 190.019531 88.578125 C 189.863281 88.394531 189.691406 88.230469 189.5 88.085938 C 189.308594 87.9375 189.105469 87.816406 188.886719 87.714844 C 188.671875 87.613281 188.445312 87.539062 188.210938 87.484375 C 187.976562 87.433594 187.738281 87.40625 187.5 87.40625 C 187.261719 87.40625 187.023438 87.433594 186.789062 87.484375 C 186.554688 87.539062 186.328125 87.613281 186.109375 87.714844 C 185.894531 87.816406 185.691406 87.9375 185.5 88.085938 C 185.308594 88.230469 185.136719 88.394531 184.980469 88.578125 C 184.828125 88.761719 184.691406 88.957031 184.582031 89.171875 C 184.46875 89.382812 184.382812 89.605469 184.320312 89.835938 C 184.257812 90.066406 184.21875 90.300781 184.207031 90.542969 C 184.195312 90.78125 184.210938 91.019531 184.25 91.257812 C 184.289062 91.492188 184.355469 91.722656 184.445312 91.945312 C 184.535156 92.167969 184.648438 92.375 184.785156 92.574219 C 184.921875 92.769531 185.078125 92.953125 185.25 93.113281 C 185.425781 93.277344 185.617188 93.421875 185.824219 93.542969 C 185.925781 93.601562 185.96875 93.691406 185.949219 93.808594 C 185.074219 99.902344 177.367188 101.765625 173.589844 98.457031 C 173.488281 98.371094 173.46875 98.265625 173.523438 98.148438 C 173.609375 97.953125 173.675781 97.753906 173.71875 97.546875 C 173.761719 97.339844 173.78125 97.128906 173.78125 96.917969 C 173.777344 96.707031 173.753906 96.5 173.707031 96.292969 C 173.664062 96.085938 173.59375 95.886719 173.503906 95.695312 C 173.417969 95.503906 173.308594 95.324219 173.179688 95.152344 C 173.050781 94.984375 172.90625 94.832031 172.746094 94.695312 C 172.585938 94.558594 172.414062 94.4375 172.226562 94.335938 C 172.039062 94.238281 171.847656 94.15625 171.644531 94.097656 C 171.4375 94.039062 171.230469 94.003906 171.019531 93.988281 C 170.808594 93.976562 170.601562 93.984375 170.390625 94.015625 C 170.179688 94.046875 169.976562 94.097656 169.78125 94.175781 C 169.582031 94.25 169.394531 94.34375 169.214844 94.457031 C 169.039062 94.574219 168.875 94.707031 168.726562 94.855469 C 168.578125 95.007812 168.445312 95.171875 168.332031 95.347656 C 168.21875 95.527344 168.125 95.714844 168.050781 95.914062 C 167.976562 96.113281 167.925781 96.316406 167.898438 96.527344 C 167.867188 96.734375 167.859375 96.945312 167.875 97.15625 C 167.890625 97.367188 167.929688 97.574219 167.988281 97.777344 C 168.046875 97.980469 168.128906 98.175781 168.230469 98.359375 C 168.332031 98.546875 168.453125 98.71875 168.589844 98.878906 C 168.730469 99.039062 168.882812 99.179688 169.054688 99.308594 C 169.222656 99.433594 169.402344 99.542969 169.597656 99.628906 C 169.789062 99.71875 169.988281 99.785156 170.195312 99.828125 C 170.402344 99.875 170.609375 99.894531 170.824219 99.894531 C 170.953125 99.894531 171.085938 99.886719 171.214844 99.871094 C 171.328125 99.855469 171.410156 99.890625 171.46875 99.988281 L 175.8125 106.515625 C 175.855469 106.574219 175.871094 106.644531 175.851562 106.714844 C 175.835938 106.792969 175.796875 106.847656 175.730469 106.886719 C 175.445312 107.078125 175.261719 107.339844 175.175781 107.667969 C 175.089844 108 175.125 108.316406 175.277344 108.621094 C 175.433594 108.925781 175.671875 109.140625 175.988281 109.261719 C 176.308594 109.386719 176.625 109.390625 176.945312 109.269531 C 178.628906 108.625 180.359375 108.140625 182.132812 107.8125 C 183.90625 107.484375 185.695312 107.320312 187.496094 107.320312 C 189.300781 107.320312 191.089844 107.484375 192.863281 107.8125 C 194.636719 108.140625 196.363281 108.625 198.046875 109.269531 C 198.367188 109.390625 198.6875 109.386719 199.003906 109.261719 C 199.324219 109.140625 199.5625 108.925781 199.714844 108.621094 C 199.871094 108.316406 199.90625 108 199.820312 107.667969 C 199.734375 107.339844 199.546875 107.078125 199.265625 106.886719 C 199.199219 106.847656 199.160156 106.792969 199.144531 106.71875 C 199.128906 106.644531 199.140625 106.574219 199.179688 106.511719 L 203.523438 99.984375 C 203.582031 99.890625 203.667969 99.851562 203.777344 99.871094 C 203.910156 99.886719 204.039062 99.894531 204.171875 99.894531 C 204.5625 99.894531 204.941406 99.820312 205.300781 99.667969 C 205.664062 99.519531 205.984375 99.304688 206.261719 99.027344 C 206.539062 98.75 206.753906 98.429688 206.902344 98.070312 C 207.050781 97.707031 207.128906 97.328125 207.128906 96.9375 C 207.128906 96.546875 207.050781 96.167969 206.902344 95.808594 C 206.753906 95.445312 206.539062 95.125 206.261719 94.847656 C 205.984375 94.570312 205.664062 94.355469 205.300781 94.207031 C 204.941406 94.058594 204.5625 93.980469 204.171875 93.980469 Z M 204.171875 93.984375 " fill-opacity="1" fill-rule="evenodd"/><g clip-path="url(#57474ec9f1)"><path fill="#ffffff" d="M 94.808594 183.316406 C 94.859375 183.253906 94.925781 183.21875 95.003906 183.207031 C 95.085938 183.199219 95.15625 183.21875 95.21875 183.265625 C 95.980469 183.691406 97 184.335938 98.253906 185.183594 C 99.527344 186.003906 101.089844 186.957031 102.832031 188.117188 C 103.695312 188.714844 104.664062 189.277344 105.675781 189.890625 L 108.859375 191.847656 C 109.984375 192.511719 111.191406 193.164062 112.425781 193.875 L 114.316406 194.960938 C 114.960938 195.320312 115.640625 195.648438 116.316406 196.007812 C 129.605469 203.109375 143.628906 208.1875 158.382812 211.242188 C 167.988281 213.214844 177.695312 214.214844 187.5 214.234375 C 197.308594 214.214844 207.011719 213.214844 216.617188 211.242188 C 231.371094 208.1875 245.394531 203.109375 258.683594 196.007812 C 259.363281 195.648438 260.042969 195.320312 260.6875 194.960938 L 262.578125 193.875 C 263.808594 193.164062 265.015625 192.511719 266.140625 191.847656 L 269.324219 189.890625 C 270.335938 189.277344 271.304688 188.714844 272.167969 188.117188 C 273.914062 186.957031 275.472656 186.007812 276.746094 185.183594 C 277.996094 184.332031 279.019531 183.691406 279.777344 183.265625 C 279.839844 183.21875 279.914062 183.199219 279.992188 183.207031 C 280.070312 183.21875 280.136719 183.253906 280.1875 183.316406 C 280.257812 183.492188 280.210938 183.632812 280.050781 183.734375 C 273.574219 189.046875 266.695312 193.765625 259.410156 197.890625 C 252.125 202.019531 244.539062 205.492188 236.65625 208.3125 C 228.765625 211.125 220.695312 213.246094 212.441406 214.671875 C 204.1875 216.101562 195.875 216.816406 187.5 216.820312 C 179.121094 216.816406 170.808594 216.101562 162.554688 214.671875 C 154.300781 213.246094 146.230469 211.125 138.339844 208.3125 C 130.457031 205.492188 122.871094 202.019531 115.585938 197.890625 C 108.300781 193.765625 101.421875 189.046875 94.949219 183.734375 C 94.785156 183.632812 94.742188 183.492188 94.808594 183.316406 Z M 94.808594 183.316406 " fill-opacity="1" fill-rule="evenodd"/></g><g clip-path="url(#340bbc66f2)"><path fill="#ffffff" d="M 314.910156 225.460938 C 315.019531 225.550781 314.972656 225.753906 314.796875 225.9375 C 313.972656 226.792969 312.777344 227.949219 311.234375 229.367188 C 309.671875 230.757812 307.707031 232.34375 305.445312 234.183594 C 304.320312 235.121094 303.066406 236.035156 301.734375 237.007812 L 297.511719 240.066406 C 296.015625 241.105469 294.398438 242.136719 292.730469 243.230469 L 290.171875 244.898438 C 289.296875 245.453125 288.371094 245.972656 287.449219 246.519531 C 279.105469 251.535156 270.414062 255.839844 261.371094 259.445312 C 250.738281 263.71875 239.804688 267.011719 228.578125 269.324219 C 215.027344 272.109375 201.332031 273.511719 187.5 273.535156 C 173.664062 273.511719 159.972656 272.109375 146.421875 269.324219 C 135.195312 267.011719 124.261719 263.71875 113.625 259.445312 C 104.585938 255.839844 95.890625 251.535156 87.550781 246.519531 C 86.625 245.96875 85.703125 245.449219 84.828125 244.894531 L 82.269531 243.234375 C 80.601562 242.136719 78.988281 241.105469 77.488281 240.066406 L 73.265625 237.007812 C 71.933594 236.035156 70.675781 235.121094 69.554688 234.1875 C 67.292969 232.347656 65.328125 230.757812 63.765625 229.367188 C 62.222656 227.949219 61.027344 226.796875 60.207031 225.9375 C 60.03125 225.75 59.980469 225.550781 60.089844 225.460938 C 60.199219 225.371094 60.4375 225.433594 60.640625 225.597656 C 69.515625 232.878906 78.949219 239.347656 88.9375 245.003906 C 98.929688 250.660156 109.328125 255.421875 120.136719 259.289062 C 130.949219 263.140625 142.011719 266.046875 153.320312 268.007812 C 164.632812 269.964844 176.027344 270.945312 187.507812 270.949219 C 198.984375 270.945312 210.378906 269.964844 221.691406 268.007812 C 233 266.046875 244.0625 263.140625 254.875 259.289062 C 265.683594 255.421875 276.082031 250.660156 286.074219 245.003906 C 296.0625 239.347656 305.496094 232.878906 314.371094 225.597656 C 314.566406 225.433594 314.800781 225.375 314.910156 225.460938 Z M 314.910156 225.460938 " fill-opacity="1" fill-rule="evenodd"/></g><g clip-path="url(#76ebe767b1)"><path fill="#ffffff" d="M 175.21875 283.785156 C 175.183594 283.6875 175.117188 283.636719 175.011719 283.640625 L 172.808594 283.640625 L 171.996094 281.210938 C 171.964844 281.113281 171.894531 281.0625 171.792969 281.0625 C 171.691406 281.0625 171.625 281.113281 171.589844 281.210938 L 170.78125 283.636719 L 168.574219 283.636719 C 168.472656 283.636719 168.402344 283.6875 168.371094 283.785156 C 168.335938 283.882812 168.363281 283.964844 168.449219 284.027344 L 170.226562 285.304688 L 169.445312 287.644531 C 169.410156 287.742188 169.4375 287.824219 169.519531 287.886719 C 169.558594 287.914062 169.601562 287.925781 169.648438 287.925781 C 169.695312 287.925781 169.738281 287.914062 169.773438 287.886719 L 171.792969 286.433594 L 173.8125 287.886719 C 173.851562 287.914062 173.890625 287.929688 173.9375 287.929688 C 174.011719 287.929688 174.070312 287.898438 174.113281 287.839844 C 174.15625 287.78125 174.164062 287.714844 174.140625 287.648438 L 173.363281 285.304688 L 175.136719 284.027344 C 175.222656 283.964844 175.25 283.886719 175.21875 283.785156 Z M 175.21875 283.785156 " fill-opacity="1" fill-rule="evenodd"/></g><g clip-path="url(#c3ad219ce6)"><path fill="#ffffff" d="M 206.625 283.785156 C 206.589844 283.6875 206.523438 283.636719 206.417969 283.640625 L 204.214844 283.640625 L 203.402344 281.210938 C 203.371094 281.113281 203.300781 281.0625 203.199219 281.0625 C 203.097656 281.0625 203.03125 281.113281 202.996094 281.210938 L 202.1875 283.636719 L 199.980469 283.636719 C 199.878906 283.636719 199.808594 283.6875 199.777344 283.785156 C 199.742188 283.882812 199.769531 283.964844 199.855469 284.027344 L 201.632812 285.304688 L 200.851562 287.644531 C 200.816406 287.742188 200.84375 287.824219 200.925781 287.886719 C 200.964844 287.914062 201.007812 287.925781 201.054688 287.925781 C 201.101562 287.925781 201.144531 287.914062 201.179688 287.886719 L 203.199219 286.433594 L 205.21875 287.886719 C 205.257812 287.914062 205.296875 287.929688 205.34375 287.929688 C 205.417969 287.929688 205.476562 287.898438 205.519531 287.839844 C 205.5625 287.78125 205.570312 287.714844 205.546875 287.648438 L 204.769531 285.304688 L 206.542969 284.027344 C 206.628906 283.964844 206.65625 283.886719 206.625 283.785156 Z M 206.625 283.785156 " fill-opacity="1" fill-rule="evenodd"/></g><g clip-path="url(#0fd40eaba8)"><path fill="#ffffff" d="M 193.1875 285.589844 C 193.132812 285.425781 193.019531 285.34375 192.847656 285.34375 L 189.179688 285.34375 L 187.832031 281.304688 C 187.78125 281.144531 187.667969 281.066406 187.496094 281.066406 C 187.328125 281.066406 187.214844 281.144531 187.160156 281.304688 L 185.8125 285.34375 L 182.148438 285.34375 C 181.976562 285.34375 181.863281 285.425781 181.808594 285.585938 C 181.75 285.753906 181.792969 285.886719 181.9375 285.988281 L 184.890625 288.113281 L 183.59375 292.003906 C 183.539062 292.167969 183.578125 292.300781 183.71875 292.402344 C 183.78125 292.449219 183.851562 292.472656 183.933594 292.472656 C 184.007812 292.472656 184.078125 292.449219 184.140625 292.40625 L 187.5 289.988281 L 190.851562 292.40625 C 190.914062 292.453125 190.984375 292.472656 191.0625 292.476562 C 191.183594 292.476562 191.28125 292.425781 191.351562 292.328125 C 191.421875 292.230469 191.4375 292.121094 191.398438 292.007812 L 190.105469 288.113281 L 193.054688 285.988281 C 193.199219 285.886719 193.242188 285.753906 193.1875 285.589844 Z M 193.1875 285.589844 " fill-opacity="1" fill-rule="evenodd"/></g><g fill="#ffffff" fill-opacity="1"><g transform="translate(79.237914, 222.693153)"><g><path d="M 4.507812 -3.566406 C 2.601562 -0.578125 3.179688 2.027344 6.167969 3.929688 L 10.367188 6.605469 C 13.324219 8.488281 15.957031 7.933594 17.863281 4.945312 L 23.496094 -3.894531 C 23.71875 -4.246094 23.628906 -4.527344 23.3125 -4.730469 L 17.96875 -8.132812 C 17.621094 -8.355469 17.359375 -8.296875 17.136719 -7.949219 L 15.109375 -4.769531 C 14.90625 -4.449219 14.945312 -4.160156 15.292969 -3.9375 L 16.949219 -2.882812 L 14.234375 1.378906 C 13.6875 2.238281 12.976562 2.367188 12.152344 1.839844 L 9.859375 0.382812 C 9.035156 -0.144531 8.851562 -0.84375 9.398438 -1.699219 L 18.640625 -16.203125 C 19.167969 -17.027344 19.863281 -17.210938 20.722656 -16.664062 L 23.011719 -15.203125 C 23.839844 -14.675781 24 -13.949219 23.472656 -13.121094 L 21.933594 -10.703125 C 21.730469 -10.386719 21.769531 -10.09375 22.117188 -9.871094 L 25.296875 -7.84375 C 25.617188 -7.644531 25.929688 -7.710938 26.128906 -8.03125 L 28.238281 -11.335938 C 30.140625 -14.328125 29.535156 -16.949219 26.578125 -18.835938 L 22.378906 -21.507812 C 19.390625 -23.414062 16.785156 -22.835938 14.882812 -19.847656 Z M 4.507812 -3.566406 "/></g></g></g><g fill="#ffffff" fill-opacity="1"><g transform="translate(102.154283, 236.653275)"><g><path d="M 3.957031 -4.167969 C 2.496094 -0.941406 3.433594 1.554688 6.664062 3.015625 L 10.511719 4.757812 C 13.742188 6.21875 16.234375 5.28125 17.695312 2.050781 L 25.660156 -15.535156 C 27.121094 -18.765625 26.179688 -21.261719 22.949219 -22.722656 L 19.105469 -24.464844 C 15.875 -25.925781 13.378906 -24.984375 11.917969 -21.757812 Z M 9.667969 -0.964844 C 8.773438 -1.367188 8.496094 -2.03125 8.914062 -2.960938 L 16.097656 -18.828125 C 16.503906 -19.722656 17.199219 -19.984375 18.09375 -19.582031 L 20.085938 -18.679688 C 20.980469 -18.277344 21.242188 -17.578125 20.839844 -16.683594 L 13.65625 -0.8125 C 13.234375 0.113281 12.550781 0.34375 11.660156 -0.0625 Z M 9.667969 -0.964844 "/></g></g></g><g fill="#ffffff" fill-opacity="1"><g transform="translate(126.101718, 246.949392)"><g><path d="M 23.613281 -18.878906 C 24.605469 -22.28125 23.324219 -24.617188 19.921875 -25.609375 L 10.835938 -28.261719 C 10.472656 -28.367188 10.195312 -28.214844 10.089844 -27.851562 L 1.980469 -0.0507812 C 1.875 0.3125 2.027344 0.589844 2.390625 0.695312 L 6.152344 1.796875 C 6.515625 1.902344 6.796875 1.746094 6.902344 1.382812 L 9.5625 -7.738281 L 12.058594 -7.007812 L 11.804688 2.894531 C 11.78125 3.238281 11.910156 3.472656 12.269531 3.578125 L 16.035156 4.675781 C 16.433594 4.792969 16.714844 4.640625 16.730469 4.171875 L 17 -6.039062 C 18.960938 -6.292969 20.328125 -7.621094 21.039062 -10.046875 Z M 10.957031 -12.515625 L 13.785156 -22.214844 L 17.371094 -21.171875 C 18.3125 -20.894531 18.667969 -20.242188 18.394531 -19.300781 L 16.410156 -12.496094 C 16.136719 -11.554688 15.480469 -11.195312 14.539062 -11.46875 Z M 10.957031 -12.515625 "/></g></g></g><g fill="#ffffff" fill-opacity="1"><g transform="translate(151.664453, 253.859869)"><g><path d="M 1.953125 -0.328125 C 1.894531 0.0820312 2.054688 0.292969 2.464844 0.355469 L 11.421875 1.640625 C 14.929688 2.144531 17.0625 0.542969 17.566406 -2.964844 L 20.304688 -22.035156 C 20.808594 -25.542969 19.214844 -27.714844 15.707031 -28.21875 L 6.75 -29.503906 C 6.339844 -29.5625 6.121094 -29.367188 6.066406 -28.992188 Z M 7.648438 -3.929688 L 10.519531 -23.9375 L 13.953125 -23.441406 C 14.925781 -23.304688 15.371094 -22.707031 15.226562 -21.699219 L 12.789062 -4.714844 C 12.644531 -3.707031 12.054688 -3.296875 11.082031 -3.4375 Z M 7.648438 -3.929688 "/></g></g></g><g fill="#ffffff" fill-opacity="1"><g transform="translate(177.515424, 257.061105)"><g><path d="M 1.898438 -5.425781 C 1.890625 -1.878906 3.769531 0.0078125 7.316406 0.0195312 L 11.539062 0.0273438 C 15.082031 0.0390625 16.972656 -1.84375 16.980469 -5.386719 L 17.03125 -24.691406 C 17.039062 -28.238281 15.160156 -30.125 11.613281 -30.136719 L 7.390625 -30.144531 C 3.847656 -30.15625 1.957031 -28.273438 1.949219 -24.730469 Z M 8.421875 -4.84375 C 7.441406 -4.84375 6.914062 -5.335938 6.917969 -6.355469 L 6.960938 -23.773438 C 6.960938 -24.753906 7.492188 -25.28125 8.472656 -25.28125 L 10.660156 -25.273438 C 11.640625 -25.273438 12.167969 -24.742188 12.164062 -23.761719 L 12.121094 -6.339844 C 12.117188 -5.324219 11.589844 -4.835938 10.609375 -4.835938 Z M 8.421875 -4.84375 "/></g></g></g><g fill="#ffffff" fill-opacity="1"><g transform="translate(203.606492, 256.645149)"><g><path d="M 9.105469 -31.753906 C 8.695312 -31.695312 8.539062 -31.445312 8.59375 -31.070312 L 10.820312 -15.316406 L 10.597656 -15.285156 L 2.675781 -30.347656 C 2.519531 -30.667969 2.273438 -30.785156 1.9375 -30.738281 L -1.757812 -30.214844 C -2.132812 -30.164062 -2.324219 -29.90625 -2.273438 -29.535156 L 1.78125 -0.863281 C 1.835938 -0.488281 2.089844 -0.296875 2.464844 -0.347656 L 6.347656 -0.898438 C 6.757812 -0.957031 6.914062 -1.207031 6.859375 -1.578125 L 4.621094 -17.410156 L 4.808594 -17.4375 L 12.773438 -2.300781 C 12.933594 -1.980469 13.179688 -1.863281 13.515625 -1.910156 L 17.210938 -2.433594 C 17.585938 -2.488281 17.777344 -2.742188 17.722656 -3.117188 L 13.667969 -31.789062 C 13.617188 -32.164062 13.359375 -32.355469 12.988281 -32.300781 Z M 9.105469 -31.753906 "/></g></g></g><g fill="#ffffff" fill-opacity="1"><g transform="translate(230.364634, 252.301205)"><g><path d="M -1.414062 -31.007812 C -4.78125 -30.027344 -6.101562 -27.679688 -5.109375 -24.273438 L -2.621094 -15.730469 C -2.417969 -15.042969 -1.96875 -14.703125 -1.25 -14.675781 L 8.152344 -14.351562 L 9.554688 -9.539062 C 9.839844 -8.5625 9.46875 -7.941406 8.527344 -7.667969 L 6.789062 -7.164062 C 5.882812 -6.898438 5.203125 -7.210938 4.917969 -8.1875 L 4.105469 -10.976562 C 3.992188 -11.375 3.757812 -11.503906 3.359375 -11.386719 L -0.40625 -10.289062 C -0.769531 -10.183594 -0.933594 -9.941406 -0.816406 -9.542969 L 0.292969 -5.742188 C 1.28125 -2.335938 3.65625 -1.066406 7.023438 -2.046875 L 11.078125 -3.226562 C 14.480469 -4.21875 15.761719 -6.554688 14.773438 -9.960938 L 12.335938 -18.320312 C 12.136719 -19.007812 11.691406 -19.3125 11.003906 -19.386719 L 1.566406 -19.699219 L 0.109375 -24.695312 C -0.164062 -25.636719 0.230469 -26.300781 1.136719 -26.566406 L 2.875 -27.070312 C 3.851562 -27.355469 4.46875 -26.988281 4.742188 -26.046875 L 5.566406 -23.222656 C 5.671875 -22.859375 5.953125 -22.707031 6.3125 -22.8125 L 10.078125 -23.910156 C 10.476562 -24.023438 10.59375 -24.292969 10.488281 -24.65625 L 9.371094 -28.492188 C 8.378906 -31.898438 6.042969 -33.179688 2.640625 -32.1875 Z M -1.414062 -31.007812 "/></g></g></g><g fill="#ffffff" fill-opacity="1"><g transform="translate(255.227575, 244.53237)"><g><path d="M -0.511719 -5.726562 C 0.945312 -2.492188 3.4375 -1.550781 6.667969 -3.007812 L 10.519531 -4.742188 C 13.75 -6.199219 14.695312 -8.691406 13.238281 -11.921875 L 5.304688 -29.523438 C 3.847656 -32.753906 1.351562 -33.699219 -1.878906 -32.242188 L -5.730469 -30.507812 C -8.960938 -29.050781 -9.902344 -26.554688 -8.445312 -23.324219 Z M 5.667969 -7.890625 C 4.773438 -7.488281 4.089844 -7.71875 3.671875 -8.644531 L -3.488281 -24.527344 C -3.890625 -25.421875 -3.625 -26.117188 -2.734375 -26.519531 L -0.738281 -27.421875 C 0.15625 -27.824219 0.851562 -27.558594 1.257812 -26.664062 L 8.414062 -10.785156 C 8.832031 -9.855469 8.554688 -9.191406 7.660156 -8.789062 Z M 5.667969 -7.890625 "/></g></g></g><g fill="#ffffff" fill-opacity="1"><g transform="translate(278.814225, 233.370493)"><g><path d="M -4.832031 -32.675781 C -5.183594 -32.453125 -5.21875 -32.164062 -5.015625 -31.84375 L 3.523438 -18.417969 L 3.332031 -18.296875 L -10.105469 -28.742188 C -10.382812 -28.96875 -10.652344 -28.972656 -10.941406 -28.792969 L -14.089844 -26.789062 C -14.410156 -26.585938 -14.476562 -26.273438 -14.277344 -25.953125 L 1.265625 -1.519531 C 1.46875 -1.203125 1.78125 -1.132812 2.101562 -1.335938 L 5.410156 -3.441406 C 5.757812 -3.664062 5.796875 -3.957031 5.59375 -4.273438 L -2.988281 -17.761719 L -2.828125 -17.863281 L 10.679688 -7.375 C 10.957031 -7.148438 11.230469 -7.144531 11.515625 -7.324219 L 14.667969 -9.328125 C 14.984375 -9.53125 15.054688 -9.84375 14.851562 -10.164062 L -0.691406 -34.597656 C -0.894531 -34.914062 -1.207031 -34.984375 -1.523438 -34.78125 Z M -4.832031 -32.675781 "/></g></g></g></svg>