<svg xmlns="http://www.w3.org/2000/svg" xmlns:xlink="http://www.w3.org/1999/xlink" zoomAndPan="magnify" preserveAspectRatio="xMidYMid meet" version="1.0" viewBox="57.31 117.42 260.25 159.49"><defs><g/><clipPath id="3281a53845"><path d="M 116.28125 135 L 258.78125 135 L 258.78125 197 L 116.28125 197 Z M 116.28125 135 " clip-rule="nonzero"/></clipPath></defs><g fill="#ffffff" fill-opacity="1"><g transform="translate(57.653507, 245.393583)"><g><path d="M 15.5 -30.0625 L 26.609375 0 L 20.515625 0 L 18.25 -6.171875 L 8.078125 -6.171875 L 5.671875 0 L -0.34375 0 L 11.078125 -30.0625 Z M 9.703125 -10.84375 L 16.65625 -10.84375 L 13.015625 -21.484375 L 12.9375 -21.484375 Z M 9.703125 -10.84375 "/></g></g></g><g fill="#ffffff" fill-opacity="1"><g transform="translate(90.559353, 245.393583)"><g><path d="M 7.8125 -29.28125 L 7.8125 -4.96875 L 15.890625 -4.96875 L 15.890625 0 L 2.09375 0 L 2.09375 -29.28125 Z M 7.8125 -29.28125 "/></g></g></g><g fill="#ffffff" fill-opacity="1"><g transform="translate(112.820978, 245.393583)"><g><path d="M 17.25 -29.28125 L 17.25 -24.3125 L 7.8125 -24.3125 L 7.8125 -17.875 L 16.890625 -17.875 L 16.890625 -12.890625 L 7.8125 -12.890625 L 7.8125 -4.96875 L 17.25 -4.96875 L 17.25 0 L 2.09375 0 L 2.09375 -29.28125 Z M 17.25 -29.28125 "/></g></g></g><g fill="#ffffff" fill-opacity="1"><g transform="translate(138.423491, 245.393583)"><g><path d="M 7.921875 -29.28125 L 12.578125 -20.203125 L 16.859375 -29.28125 L 23.609375 -29.28125 L 15.5 -15.5 L 24.515625 0 L 17.875 0 L 11.96875 -10.71875 L 6.375 0 L -0.3125 0 L 9.046875 -15.5 L 1.171875 -29.28125 Z M 7.921875 -29.28125 "/></g></g></g><g fill="#ffffff" fill-opacity="1"><g transform="translate(169.270416, 245.393583)"><g><path d="M 15.5 -30.0625 L 26.609375 0 L 20.515625 0 L 18.25 -6.171875 L 8.078125 -6.171875 L 5.671875 0 L -0.34375 0 L 11.078125 -30.0625 Z M 9.703125 -10.84375 L 16.65625 -10.84375 L 13.015625 -21.484375 L 12.9375 -21.484375 Z M 9.703125 -10.84375 "/></g></g></g><g fill="#ffffff" fill-opacity="1"><g transform="translate(202.176269, 245.393583)"><g><path d="M 6.21875 -30.0625 L 21.640625 -9.59375 L 21.71875 -9.59375 L 21.71875 -29.28125 L 27.421875 -29.28125 L 27.421875 0.578125 L 23.3125 0.578125 L 7.890625 -19.890625 L 7.8125 -19.890625 L 7.8125 0 L 2.09375 0 L 2.09375 -30.0625 Z M 6.21875 -30.0625 "/></g></g></g><g fill="#ffffff" fill-opacity="1"><g transform="translate(238.306466, 245.393583)"><g><path d="M 10.453125 -29.28125 C 12.160156 -29.28125 13.878906 -28.957031 15.609375 -28.3125 C 17.347656 -27.664062 18.894531 -26.671875 20.25 -25.328125 C 21.613281 -23.984375 22.644531 -22.382812 23.34375 -20.53125 C 24.039062 -18.675781 24.390625 -16.703125 24.390625 -14.609375 C 24.390625 -11.785156 23.757812 -9.253906 22.5 -7.015625 C 21.25 -4.773438 19.546875 -3.046875 17.390625 -1.828125 C 15.242188 -0.609375 12.914062 0 10.40625 0 L 2.09375 0 L 2.09375 -29.28125 Z M 7.8125 -4.96875 L 8.625 -4.96875 C 11.9375 -4.96875 14.40625 -5.773438 16.03125 -7.390625 C 17.664062 -9.015625 18.484375 -11.429688 18.484375 -14.640625 C 18.484375 -17.804688 17.679688 -20.207031 16.078125 -21.84375 C 14.472656 -23.488281 11.988281 -24.3125 8.625 -24.3125 L 7.8125 -24.3125 Z M 7.8125 -4.96875 "/></g></g></g><g fill="#ffffff" fill-opacity="1"><g transform="translate(270.046881, 245.393583)"><g><path d="M 17.25 -29.28125 L 17.25 -24.3125 L 7.8125 -24.3125 L 7.8125 -17.875 L 16.890625 -17.875 L 16.890625 -12.890625 L 7.8125 -12.890625 L 7.8125 -4.96875 L 17.25 -4.96875 L 17.25 0 L 2.09375 0 L 2.09375 -29.28125 Z M 17.25 -29.28125 "/></g></g></g><g fill="#ffffff" fill-opacity="1"><g transform="translate(295.649402, 245.393583)"><g><path d="M 9.984375 -29.28125 C 13.066406 -29.28125 15.441406 -28.523438 17.109375 -27.015625 C 18.773438 -25.503906 19.609375 -23.320312 19.609375 -20.46875 C 19.609375 -18.394531 19.046875 -16.585938 17.921875 -15.046875 C 16.796875 -13.503906 15.367188 -12.609375 13.640625 -12.359375 L 21.90625 0 L 15 0 L 7.890625 -11.8125 L 7.8125 -11.8125 L 7.8125 0 L 2.09375 0 L 2.09375 -29.28125 Z M 7.8125 -15.8125 L 8.421875 -15.8125 C 10.390625 -15.8125 11.796875 -16.171875 12.640625 -16.890625 C 13.484375 -17.617188 13.90625 -18.757812 13.90625 -20.3125 C 13.90625 -21.84375 13.488281 -22.941406 12.65625 -23.609375 C 11.832031 -24.285156 10.445312 -24.625 8.5 -24.625 L 7.8125 -24.625 Z M 7.8125 -15.8125 "/></g></g></g><g clip-path="url(#3281a53845)"><path fill="#ffffff" d="M 255.09375 151.4375 L 251.335938 151.4375 L 249.574219 163.792969 L 249.574219 146.257812 C 249.574219 144.269531 247.960938 142.65625 245.972656 142.65625 L 242.648438 142.65625 L 240.324219 158.964844 L 240.324219 142.320312 C 240.324219 138.285156 237.050781 135.011719 233.011719 135.011719 C 228.976562 135.011719 225.703125 138.285156 225.703125 142.320312 L 225.703125 161.164062 L 149.257812 161.164062 L 149.257812 142.320312 C 149.257812 138.285156 145.984375 135.011719 141.949219 135.011719 C 137.910156 135.011719 134.640625 138.285156 134.640625 142.320312 L 134.640625 158.964844 L 132.3125 142.65625 L 128.988281 142.65625 C 127 142.65625 125.386719 144.269531 125.386719 146.257812 L 125.386719 163.792969 L 123.625 151.4375 L 119.867188 151.4375 C 117.878906 151.4375 116.265625 153.046875 116.265625 155.035156 L 116.265625 176.945312 C 116.265625 178.933594 117.878906 180.546875 119.867188 180.546875 L 125.386719 180.546875 L 125.386719 185.726562 C 125.386719 187.714844 127 189.324219 128.988281 189.324219 L 133.773438 189.324219 L 134.796875 182.144531 L 134.796875 191.171875 C 135.492188 194.484375 138.429688 196.96875 141.949219 196.96875 C 145.984375 196.96875 149.257812 193.699219 149.257812 189.660156 L 149.257812 170.820312 L 225.703125 170.820312 L 225.703125 189.660156 C 225.703125 193.699219 228.976562 196.96875 233.011719 196.96875 C 236.53125 196.96875 239.46875 194.484375 240.164062 191.171875 L 240.164062 182.144531 L 241.191406 189.324219 L 245.972656 189.324219 C 247.960938 189.324219 249.574219 187.714844 249.574219 185.726562 L 249.574219 180.546875 L 255.09375 180.546875 C 257.082031 180.546875 258.695312 178.933594 258.695312 176.945312 L 258.695312 155.035156 C 258.695312 153.046875 257.082031 151.4375 255.09375 151.4375 " fill-opacity="1" fill-rule="nonzero"/></g><g fill="#ffffff" fill-opacity="1"><g transform="translate(219.137017, 119.407555)"><g><path d="M -14.265625 74.65625 L -32.1875 24.359375 L -32.375 24.359375 L -49.015625 74.65625 L -64.65625 74.65625 L -35.640625 -1.984375 L -27.125 -1.984375 L 1.390625 74.65625 Z M -14.265625 74.65625 "/></g></g></g><g fill="#ffffff" fill-opacity="1"><g transform="translate(137.409257, 276.197605)"><g><path d="M 8.84375 -15.90625 L 8.84375 -14.265625 L 3.375 -14.265625 L 3.375 -9.53125 L 8.671875 -9.53125 L 8.671875 -7.890625 L 3.375 -7.890625 L 3.375 0 L 1.609375 0 L 1.609375 -15.90625 Z M 8.84375 -15.90625 "/></g></g></g><g fill="#ffffff" fill-opacity="1"><g transform="translate(151.271774, 276.197605)"><g><path d="M 3.421875 -15.90625 L 3.421875 0 L 1.640625 0 L 1.640625 -15.90625 Z M 3.421875 -15.90625 "/></g></g></g><g fill="#ffffff" fill-opacity="1"><g transform="translate(160.091702, 276.197605)"><g><path d="M 9.703125 -15.90625 L 9.703125 -14.265625 L 5.828125 -14.265625 L 5.828125 0 L 4.046875 0 L 4.046875 -14.265625 L 0.21875 -14.265625 L 0.21875 -15.90625 Z M 9.703125 -15.90625 "/></g></g></g><g fill="#ffffff" fill-opacity="1"><g transform="translate(173.785434, 276.197605)"><g><path d="M 1.703125 -16.578125 L 14.109375 -3.59375 L 14.109375 -15.90625 L 15.890625 -15.90625 L 15.890625 0.71875 L 3.484375 -12.25 L 3.484375 0 L 1.703125 0 Z M 1.703125 -16.578125 "/></g></g></g><g fill="#ffffff" fill-opacity="1"><g transform="translate(195.159097, 276.197605)"><g><path d="M 9.84375 -15.90625 L 9.84375 -14.265625 L 3.375 -14.265625 L 3.375 -9.53125 L 9.65625 -9.53125 L 9.65625 -7.890625 L 3.375 -7.890625 L 3.375 -1.640625 L 9.84375 -1.640625 L 9.84375 0 L 1.609375 0 L 1.609375 -15.90625 Z M 9.84375 -15.90625 "/></g></g></g><g fill="#ffffff" fill-opacity="1"><g transform="translate(210.203143, 276.197605)"><g><path d="M 8.8125 -12.796875 C 8.46875 -13.421875 8.078125 -13.863281 7.640625 -14.125 C 7.210938 -14.394531 6.695312 -14.53125 6.09375 -14.53125 C 5.320312 -14.53125 4.6875 -14.289062 4.1875 -13.8125 C 3.6875 -13.332031 3.4375 -12.75 3.4375 -12.0625 C 3.4375 -11.53125 3.644531 -11.070312 4.0625 -10.6875 C 4.476562 -10.3125 4.976562 -9.988281 5.5625 -9.71875 C 6.15625 -9.457031 6.691406 -9.226562 7.171875 -9.03125 C 7.648438 -8.832031 8.203125 -8.535156 8.828125 -8.140625 C 9.460938 -7.742188 9.945312 -7.25 10.28125 -6.65625 C 10.625 -6.070312 10.796875 -5.398438 10.796875 -4.640625 C 10.796875 -3.765625 10.578125 -2.945312 10.140625 -2.1875 C 9.710938 -1.4375 9.109375 -0.835938 8.328125 -0.390625 C 7.554688 0.0546875 6.710938 0.28125 5.796875 0.28125 C 4.546875 0.28125 3.472656 -0.0859375 2.578125 -0.828125 C 1.691406 -1.566406 1.113281 -2.570312 0.84375 -3.84375 L 2.578125 -4.328125 C 2.710938 -3.453125 3.070312 -2.738281 3.65625 -2.1875 C 4.238281 -1.644531 4.941406 -1.375 5.765625 -1.375 C 6.648438 -1.375 7.414062 -1.675781 8.0625 -2.28125 C 8.707031 -2.882812 9.03125 -3.613281 9.03125 -4.46875 C 9.03125 -5.226562 8.78125 -5.847656 8.28125 -6.328125 C 7.789062 -6.816406 6.890625 -7.320312 5.578125 -7.84375 C 4.273438 -8.363281 3.296875 -8.945312 2.640625 -9.59375 C 1.992188 -10.238281 1.671875 -11.082031 1.671875 -12.125 C 1.671875 -13.3125 2.101562 -14.28125 2.96875 -15.03125 C 3.84375 -15.789062 4.894531 -16.171875 6.125 -16.171875 C 7.019531 -16.171875 7.816406 -15.957031 8.515625 -15.53125 C 9.210938 -15.113281 9.785156 -14.507812 10.234375 -13.71875 Z M 8.8125 -12.796875 "/></g></g></g><g fill="#ffffff" fill-opacity="1"><g transform="translate(225.774656, 276.197605)"><g><path d="M 8.8125 -12.796875 C 8.46875 -13.421875 8.078125 -13.863281 7.640625 -14.125 C 7.210938 -14.394531 6.695312 -14.53125 6.09375 -14.53125 C 5.320312 -14.53125 4.6875 -14.289062 4.1875 -13.8125 C 3.6875 -13.332031 3.4375 -12.75 3.4375 -12.0625 C 3.4375 -11.53125 3.644531 -11.070312 4.0625 -10.6875 C 4.476562 -10.3125 4.976562 -9.988281 5.5625 -9.71875 C 6.15625 -9.457031 6.691406 -9.226562 7.171875 -9.03125 C 7.648438 -8.832031 8.203125 -8.535156 8.828125 -8.140625 C 9.460938 -7.742188 9.945312 -7.25 10.28125 -6.65625 C 10.625 -6.070312 10.796875 -5.398438 10.796875 -4.640625 C 10.796875 -3.765625 10.578125 -2.945312 10.140625 -2.1875 C 9.710938 -1.4375 9.109375 -0.835938 8.328125 -0.390625 C 7.554688 0.0546875 6.710938 0.28125 5.796875 0.28125 C 4.546875 0.28125 3.472656 -0.0859375 2.578125 -0.828125 C 1.691406 -1.566406 1.113281 -2.570312 0.84375 -3.84375 L 2.578125 -4.328125 C 2.710938 -3.453125 3.070312 -2.738281 3.65625 -2.1875 C 4.238281 -1.644531 4.941406 -1.375 5.765625 -1.375 C 6.648438 -1.375 7.414062 -1.675781 8.0625 -2.28125 C 8.707031 -2.882812 9.03125 -3.613281 9.03125 -4.46875 C 9.03125 -5.226562 8.78125 -5.847656 8.28125 -6.328125 C 7.789062 -6.816406 6.890625 -7.320312 5.578125 -7.84375 C 4.273438 -8.363281 3.296875 -8.945312 2.640625 -9.59375 C 1.992188 -10.238281 1.671875 -11.082031 1.671875 -12.125 C 1.671875 -13.3125 2.101562 -14.28125 2.96875 -15.03125 C 3.84375 -15.789062 4.894531 -16.171875 6.125 -16.171875 C 7.019531 -16.171875 7.816406 -15.957031 8.515625 -15.53125 C 9.210938 -15.113281 9.785156 -14.507812 10.234375 -13.71875 Z M 8.8125 -12.796875 "/></g></g></g></svg>