<svg xmlns="http://www.w3.org/2000/svg" xmlns:xlink="http://www.w3.org/1999/xlink" zoomAndPan="magnify" preserveAspectRatio="xMidYMid meet" version="1.0" viewBox="95.04 134.27 183.83 103.5"><defs><g/><clipPath id="515a0488a4"><path d="M 146 134.273438 L 229 134.273438 L 229 192 L 146 192 Z M 146 134.273438 " clip-rule="nonzero"/></clipPath></defs><g clip-path="url(#515a0488a4)"><path fill="#ffffff" d="M 203.699219 167.980469 C 206.035156 164.773438 207.199219 161.644531 206.300781 160.988281 C 206.0625 160.792969 205.792969 160.691406 205.484375 160.679688 C 205.179688 160.667969 204.898438 160.75 204.648438 160.921875 C 204.628906 160.933594 204.621094 160.949219 204.632812 160.972656 C 204.644531 160.992188 204.660156 161 204.679688 160.992188 C 204.953125 160.890625 205.171875 160.886719 205.320312 160.996094 C 206.019531 161.507812 204.851562 164.308594 202.707031 167.253906 C 200.5625 170.203125 198.25 172.175781 197.550781 171.664062 C 197.402344 171.558594 197.339844 171.347656 197.351562 171.058594 C 197.351562 171.035156 197.339844 171.023438 197.316406 171.019531 C 197.292969 171.015625 197.277344 171.027344 197.273438 171.046875 C 197.1875 171.34375 197.195312 171.632812 197.300781 171.921875 C 197.40625 172.207031 197.589844 172.433594 197.84375 172.601562 C 198.742188 173.257812 201.367188 171.1875 203.699219 167.980469 Z M 225.792969 162.195312 C 229.921875 165.199219 228.328125 173.832031 222.578125 181.726562 C 216.828125 189.621094 209.105469 193.789062 204.976562 190.78125 L 191.550781 181.007812 C 189.390625 179.433594 191.089844 173.304688 195.328125 166.554688 C 195.355469 166.511719 195.347656 166.476562 195.304688 166.449219 L 187.535156 160.980469 C 187.503906 160.957031 187.472656 160.957031 187.445312 160.980469 L 179.671875 166.449219 C 179.628906 166.476562 179.625 166.511719 179.648438 166.554688 C 183.890625 173.300781 185.585938 179.433594 183.425781 181.007812 L 170 190.78125 C 165.871094 193.789062 158.148438 189.621094 152.398438 181.726562 C 146.652344 173.832031 145.054688 165.199219 149.1875 162.191406 L 162.609375 152.417969 C 164.777344 150.839844 170.117188 154.363281 175.253906 160.503906 C 175.285156 160.542969 175.320312 160.546875 175.359375 160.519531 L 181.164062 156.28125 C 178.589844 153.921875 176.234375 150.597656 175.78125 146.894531 C 175.339844 143.296875 176.734375 139.28125 180.597656 136.515625 C 182.652344 135.023438 184.949219 134.277344 187.488281 134.269531 C 190.027344 134.277344 192.324219 135.027344 194.382812 136.515625 C 198.242188 139.285156 199.640625 143.296875 199.199219 146.894531 C 198.75 150.566406 196.429688 153.863281 193.886719 156.21875 C 193.839844 156.261719 193.84375 156.300781 193.890625 156.339844 L 199.617188 160.519531 C 199.65625 160.550781 199.691406 160.542969 199.722656 160.507812 C 204.863281 154.363281 210.199219 150.839844 212.367188 152.417969 Z M 168.203125 188.433594 C 168.261719 188.445312 168.300781 188.421875 168.316406 188.367188 C 168.335938 188.308594 168.316406 188.269531 168.261719 188.246094 C 164.800781 186.832031 160.605469 183.265625 157.03125 178.355469 C 152.648438 172.339844 150.996094 166.863281 151.191406 163.375 C 151.195312 163.332031 151.179688 163.300781 151.140625 163.28125 C 151.105469 163.261719 151.070312 163.265625 151.039062 163.289062 L 150.347656 163.792969 C 147.570312 165.816406 148.550781 173.082031 153.996094 180.5625 C 155.378906 182.480469 156.953125 184.222656 158.71875 185.792969 C 158.808594 185.871094 158.902344 185.875 159 185.804688 L 160.800781 184.492188 C 160.839844 184.464844 160.875 184.46875 160.910156 184.5 C 163.980469 187.269531 166.734375 188.152344 168.203125 188.433594 Z M 172.4375 184.902344 C 172.496094 184.914062 172.535156 184.890625 172.554688 184.835938 C 172.570312 184.777344 172.554688 184.738281 172.5 184.714844 C 169.132812 183.183594 165.125 179.691406 161.683594 174.964844 C 157.75 169.558594 155.550781 163.917969 155.625 160.144531 C 155.625 160.105469 155.609375 160.074219 155.570312 160.054688 C 155.535156 160.039062 155.5 160.039062 155.46875 160.066406 L 153.515625 161.488281 C 152.65625 162.113281 152.769531 163.953125 153.371094 166.492188 C 154.140625 169.769531 155.820312 173.300781 158.644531 177.175781 C 160.023438 179.085938 161.570312 180.847656 163.28125 182.464844 C 163.371094 182.546875 163.46875 182.550781 163.566406 182.480469 L 165.457031 181.101562 C 165.496094 181.078125 165.53125 181.078125 165.566406 181.109375 C 168.300781 183.582031 170.863281 184.535156 172.4375 184.902344 Z M 177.261719 181.757812 C 177.316406 181.769531 177.355469 181.746094 177.371094 181.691406 C 177.390625 181.636719 177.371094 181.597656 177.316406 181.574219 C 173.921875 180.097656 169.796875 176.519531 166.246094 171.644531 C 162.300781 166.222656 160.085938 160.605469 160.125 156.867188 C 160.128906 156.824219 160.109375 156.796875 160.074219 156.777344 C 160.039062 156.757812 160.003906 156.761719 159.972656 156.785156 L 158.109375 158.144531 C 157.257812 158.761719 157.386719 160.59375 157.992188 163.125 C 158.773438 166.398438 160.65625 170.1875 163.285156 173.796875 C 164.664062 175.707031 166.207031 177.46875 167.914062 179.085938 C 168.003906 179.171875 168.101562 179.175781 168.199219 179.105469 L 169.996094 177.796875 C 170.03125 177.769531 170.070312 177.773438 170.105469 177.804688 C 173.195312 180.546875 175.777344 181.484375 177.261719 181.757812 Z M 184.210938 158.671875 C 184.257812 158.636719 184.257812 158.601562 184.210938 158.570312 C 183.921875 158.367188 182.832031 157.601562 182.445312 157.289062 C 182.421875 157.269531 182.398438 157.269531 182.371094 157.289062 C 177.992188 160.453125 173.183594 163.90625 172.394531 164.476562 C 172.320312 164.527344 172.261719 164.515625 172.222656 164.429688 C 171.859375 163.710938 171.71875 163.179688 171.898438 163.050781 L 173.714844 161.722656 C 173.769531 161.683594 173.773438 161.636719 173.730469 161.585938 C 169.84375 156.96875 165.953125 154.054688 163.929688 154.296875 C 163.902344 154.300781 163.886719 154.316406 163.886719 154.34375 C 163.886719 154.371094 163.898438 154.386719 163.925781 154.390625 C 166.269531 154.949219 169.535156 157.871094 171.550781 160.109375 C 171.578125 160.140625 171.578125 160.167969 171.550781 160.199219 C 171.523438 160.226562 171.496094 160.230469 171.464844 160.203125 C 169.847656 158.953125 165.171875 155.496094 163.679688 156.191406 C 163.625 156.21875 163.601562 156.261719 163.605469 156.320312 C 163.777344 158.59375 164.855469 162.816406 169.539062 169.246094 C 174.214844 175.667969 177.898438 177.992188 180.011719 178.859375 C 180.070312 178.882812 180.121094 178.871094 180.164062 178.820312 C 181.226562 177.460938 179.445312 172.132812 178.761719 170.242188 C 178.75 170.203125 178.761719 170.175781 178.796875 170.160156 C 178.832031 170.144531 178.859375 170.152344 178.882812 170.1875 C 180.386719 172.792969 182.140625 176.765625 181.953125 179.152344 C 181.949219 179.175781 181.960938 179.191406 181.988281 179.199219 C 182.011719 179.207031 182.03125 179.199219 182.042969 179.175781 C 182.894531 177.328125 181.324219 172.75 178.136719 167.648438 C 178.101562 167.589844 178.058594 167.582031 178.003906 167.621094 L 176.167969 168.914062 C 175.859375 169.136719 174.734375 168.121094 173.609375 166.617188 C 173.558594 166.554688 173.566406 166.496094 173.632812 166.449219 Z M 194.816406 178.816406 C 193.75 177.460938 195.535156 172.128906 196.214844 170.242188 C 196.226562 170.203125 196.21875 170.175781 196.179688 170.160156 C 196.144531 170.140625 196.117188 170.152344 196.097656 170.183594 C 194.589844 172.792969 192.839844 176.761719 193.027344 179.148438 C 193.027344 179.175781 193.015625 179.191406 192.992188 179.199219 C 192.964844 179.207031 192.949219 179.199219 192.9375 179.175781 C 192.085938 177.324219 193.65625 172.746094 196.839844 167.644531 C 196.875 167.589844 196.917969 167.582031 196.972656 167.617188 L 198.8125 168.910156 C 199.117188 169.136719 200.242188 168.121094 201.371094 166.617188 C 201.417969 166.550781 201.410156 166.496094 201.34375 166.449219 L 185.363281 154.84375 C 184.3125 154.09375 183.339844 153.257812 182.4375 152.335938 C 181.164062 151.023438 179.878906 149.324219 179.535156 147.277344 C 179.050781 144.34375 179.921875 141.378906 182.578125 139.363281 C 183.894531 138.363281 185.839844 137.875 187.488281 137.875 C 189.261719 137.917969 190.902344 138.417969 192.402344 139.363281 C 196.324219 141.949219 196.871094 147.164062 193.761719 151.265625 C 193.015625 152.246094 191.664062 153.414062 190.859375 154.066406 C 190.835938 154.085938 190.808594 154.085938 190.785156 154.066406 L 188.828125 152.640625 C 188.785156 152.605469 188.785156 152.574219 188.828125 152.539062 C 189.371094 152.128906 192.992188 149.25 192.992188 145.941406 C 193.003906 144.804688 192.691406 143.761719 192.050781 142.820312 C 191.53125 142.074219 190.867188 141.488281 190.0625 141.066406 C 189.257812 140.644531 188.398438 140.433594 187.488281 140.429688 C 186.578125 140.433594 185.722656 140.644531 184.917969 141.066406 C 184.109375 141.488281 183.449219 142.074219 182.929688 142.820312 C 182.289062 143.761719 181.976562 144.804688 181.988281 145.945312 C 181.988281 149.519531 186.21875 152.589844 186.21875 152.589844 L 187.488281 153.578125 C 192.027344 156.890625 201.449219 163.660156 202.582031 164.476562 C 202.65625 164.527344 202.714844 164.515625 202.757812 164.429688 C 203.121094 163.710938 203.261719 163.179688 203.082031 163.050781 L 201.265625 161.722656 C 201.210938 161.683594 201.207031 161.636719 201.25 161.585938 C 205.136719 156.96875 209.023438 154.054688 211.050781 154.296875 C 211.078125 154.300781 211.089844 154.316406 211.09375 154.34375 C 211.09375 154.367188 211.082031 154.386719 211.054688 154.390625 C 208.710938 154.949219 205.445312 157.871094 203.425781 160.109375 C 203.402344 160.140625 203.402344 160.167969 203.429688 160.199219 C 203.457031 160.226562 203.484375 160.230469 203.515625 160.203125 C 205.132812 158.953125 209.808594 155.496094 211.300781 156.191406 C 211.355469 156.21875 211.378906 156.261719 211.375 156.320312 C 211.203125 158.59375 210.121094 162.816406 205.441406 169.246094 C 200.765625 175.667969 197.082031 177.992188 194.96875 178.859375 C 194.910156 178.882812 194.859375 178.871094 194.816406 178.820312 Z M 187.527344 151.632812 C 187.929688 151.335938 191.507812 148.628906 191.507812 145.914062 C 191.519531 145.191406 191.339844 144.515625 190.972656 143.890625 C 190.792969 143.589844 190.578125 143.316406 190.324219 143.074219 C 190.074219 142.828125 189.796875 142.621094 189.492188 142.445312 C 189.183594 142.273438 188.863281 142.144531 188.523438 142.054688 C 188.183594 141.964844 187.839844 141.917969 187.488281 141.917969 C 187.136719 141.917969 186.792969 141.964844 186.453125 142.054688 C 186.113281 142.144531 185.792969 142.273438 185.484375 142.445312 C 185.179688 142.621094 184.902344 142.828125 184.652344 143.074219 C 184.398438 143.316406 184.183594 143.589844 184.003906 143.890625 C 183.636719 144.515625 183.460938 145.191406 183.472656 145.914062 C 183.472656 148.632812 187.046875 151.335938 187.453125 151.632812 C 187.476562 151.652344 187.5 151.652344 187.527344 151.632812 Z M 197.660156 181.574219 C 201.054688 180.097656 205.179688 176.519531 208.730469 171.644531 C 212.679688 166.222656 214.894531 160.605469 214.851562 156.863281 C 214.851562 156.824219 214.867188 156.792969 214.902344 156.777344 C 214.941406 156.757812 214.972656 156.761719 215.007812 156.785156 L 216.871094 158.144531 C 217.71875 158.761719 217.59375 160.589844 216.984375 163.125 C 216.203125 166.394531 214.320312 170.1875 211.691406 173.796875 C 210.316406 175.707031 208.769531 177.46875 207.0625 179.085938 C 206.972656 179.171875 206.875 179.175781 206.777344 179.101562 L 204.984375 177.796875 C 204.945312 177.769531 204.90625 177.773438 204.875 177.804688 C 201.78125 180.546875 199.203125 181.484375 197.71875 181.757812 C 197.660156 181.769531 197.621094 181.746094 197.605469 181.691406 C 197.589844 181.632812 197.605469 181.59375 197.660156 181.570312 Z M 202.539062 184.902344 C 202.480469 184.914062 202.441406 184.890625 202.421875 184.835938 C 202.40625 184.777344 202.421875 184.738281 202.480469 184.714844 C 205.84375 183.183594 209.851562 179.691406 213.292969 174.964844 C 217.226562 169.558594 219.425781 163.914062 219.355469 160.144531 C 219.351562 160.101562 219.371094 160.074219 219.40625 160.054688 C 219.441406 160.035156 219.476562 160.039062 219.507812 160.0625 L 221.464844 161.488281 C 222.320312 162.113281 222.207031 163.949219 221.605469 166.492188 C 220.835938 169.769531 219.152344 173.296875 216.332031 177.175781 C 214.953125 179.085938 213.40625 180.847656 211.695312 182.460938 C 211.605469 182.546875 211.507812 182.550781 211.410156 182.476562 L 209.519531 181.105469 C 209.484375 181.078125 209.445312 181.078125 209.410156 181.109375 C 206.675781 183.582031 204.113281 184.535156 202.539062 184.902344 Z M 220.980469 180.5625 C 219.597656 182.480469 218.023438 184.222656 216.257812 185.796875 C 216.167969 185.871094 216.074219 185.875 215.976562 185.804688 L 214.175781 184.492188 C 214.136719 184.464844 214.101562 184.46875 214.066406 184.5 C 210.996094 187.269531 208.242188 188.152344 206.773438 188.433594 C 206.714844 188.445312 206.679688 188.421875 206.660156 188.367188 C 206.644531 188.3125 206.664062 188.269531 206.71875 188.25 C 210.175781 186.832031 214.371094 183.265625 217.949219 178.355469 C 222.328125 172.339844 223.980469 166.863281 223.785156 163.375 C 223.78125 163.332031 223.796875 163.304688 223.835938 163.285156 C 223.871094 163.265625 223.90625 163.265625 223.9375 163.292969 L 224.628906 163.792969 C 227.410156 165.816406 226.425781 173.082031 220.980469 180.5625 Z M 169.65625 160.996094 C 169.804688 160.886719 170.023438 160.890625 170.296875 160.992188 C 170.320312 161 170.335938 160.992188 170.34375 160.972656 C 170.355469 160.949219 170.351562 160.933594 170.328125 160.921875 C 170.078125 160.75 169.796875 160.667969 169.492188 160.679688 C 169.183594 160.691406 168.914062 160.792969 168.675781 160.988281 C 167.777344 161.640625 168.941406 164.773438 171.277344 167.980469 C 173.613281 171.1875 176.234375 173.257812 177.132812 172.601562 C 177.390625 172.433594 177.570312 172.207031 177.675781 171.921875 C 177.78125 171.632812 177.789062 171.34375 177.703125 171.046875 C 177.699219 171.023438 177.683594 171.015625 177.660156 171.019531 C 177.636719 171.023438 177.625 171.035156 177.628906 171.058594 C 177.636719 171.347656 177.574219 171.558594 177.425781 171.664062 C 176.726562 172.175781 174.417969 170.203125 172.273438 167.253906 C 170.125 164.308594 168.957031 161.503906 169.65625 160.996094 Z M 169.65625 160.996094 " fill-opacity="1" fill-rule="evenodd"/></g><g fill="#ffffff" fill-opacity="1"><g transform="translate(93.064718, 219.08023)"><g><path d="M 17.308594 -10.023438 L 19.824219 -10.023438 C 19.824219 -13.726562 16.46875 -15.035156 11.160156 -15.035156 C 4.863281 -15.035156 2 -13.578125 2 -10.863281 L 2 -10.667969 C 2 -7.332031 4.691406 -6.886719 10.617188 -6.269531 C 17.0625 -5.679688 17.085938 -4.789062 17.085938 -4.394531 L 17.085938 -4.097656 C 17.085938 -2.371094 13.382812 -2.222656 10.640625 -2.222656 C 6.445312 -2.222656 4.492188 -3.332031 4.492188 -5.109375 L 1.976562 -5.109375 C 1.976562 -1.800781 4.839844 0.246094 10.640625 0.246094 C 16.839844 0.246094 19.679688 -0.914062 19.679688 -4.171875 L 19.679688 -4.417969 C 19.679688 -7.777344 16.371094 -8.246094 10.765625 -8.765625 C 4.617188 -9.332031 4.59375 -10.097656 4.59375 -10.691406 L 4.59375 -10.914062 C 4.59375 -12.097656 7.652344 -12.566406 11.160156 -12.566406 C 14.664062 -12.566406 17.308594 -11.925781 17.308594 -10.023438 Z M 17.308594 -10.023438 "/></g></g></g><g fill="#ffffff" fill-opacity="1"><g transform="translate(117.746175, 219.08023)"><g><path d="M 16.863281 -14.8125 L -0.0742188 -14.8125 L -0.0742188 -12.394531 L 7.136719 -12.394531 L 7.136719 0 L 9.652344 0 L 9.652344 -12.394531 L 16.863281 -12.394531 Z M 16.863281 -14.8125 "/></g></g></g><g fill="#ffffff" fill-opacity="1"><g transform="translate(137.392964, 219.08023)"><g><path d="M 20.589844 -10.492188 L 20.589844 -10.765625 C 20.589844 -13.429688 18.863281 -14.8125 15.972656 -14.8125 L 3.0625 -14.8125 L 3.0625 0 L 5.753906 0 L 5.753906 -5.726562 L 14.9375 -5.726562 C 17.429688 -5.726562 17.429688 -4.199219 17.429688 -3.035156 L 17.429688 -1.382812 C 17.429688 -0.9375 17.457031 -0.445312 17.53125 0 L 20.417969 0 C 20.34375 -0.445312 20.296875 -0.9375 20.296875 -1.480469 L 20.296875 -3.234375 C 20.296875 -4.765625 19.679688 -6.097656 18.246094 -6.886719 C 19.652344 -7.332031 20.589844 -8.34375 20.589844 -10.492188 Z M 5.753906 -8.371094 L 5.753906 -12.34375 L 15.972656 -12.34375 C 17.652344 -12.34375 18.023438 -11.480469 18.023438 -10.765625 L 18.023438 -10.492188 C 18.023438 -9.332031 17.382812 -8.371094 15.972656 -8.371094 Z M 5.753906 -8.371094 "/></g></g></g><g fill="#ffffff" fill-opacity="1"><g transform="translate(162.716089, 219.08023)"><g><path d="M 18.664062 -12.566406 L 18.664062 -14.8125 L 3.0625 -14.8125 L 3.0625 0 L 18.664062 0 L 18.664062 -2.246094 L 5.578125 -2.246094 L 5.578125 -6.097656 L 17.136719 -6.097656 L 17.136719 -8.34375 L 5.578125 -8.34375 L 5.578125 -12.566406 Z M 18.664062 -12.566406 "/></g></g></g><g fill="#ffffff" fill-opacity="1"><g transform="translate(185.768688, 219.08023)"><g><path d="M 17.234375 -14.8125 L 17.234375 -2.789062 L 6.394531 -14.8125 L 3.0625 -14.8125 L 3.0625 0 L 5.578125 0 L 5.578125 -12 L 16.371094 0 L 19.753906 0 L 19.753906 -14.8125 Z M 17.234375 -14.8125 "/></g></g></g><g fill="#ffffff" fill-opacity="1"><g transform="translate(211.462011, 219.08023)"><g><path d="M 12.664062 -8 L 12.664062 -5.753906 L 18.914062 -5.753906 C 18.121094 -3.234375 15.777344 -2.222656 11.578125 -2.222656 C 6.195312 -2.222656 4.542969 -4.246094 4.542969 -7.183594 L 4.542969 -7.703125 C 4.542969 -10.640625 6.640625 -12.664062 12 -12.664062 C 17.035156 -12.664062 18.394531 -10.691406 18.589844 -9.652344 L 21.332031 -9.652344 C 21.234375 -11.851562 19.234375 -15.136719 12 -15.136719 C 4.371094 -15.136719 1.976562 -11.605469 1.976562 -7.703125 L 1.976562 -7.183594 C 1.976562 -3.285156 3.949219 0.246094 11.578125 0.246094 C 15.726562 0.246094 18.097656 -0.640625 19.332031 -2.371094 L 19.332031 -2.246094 L 19.703125 0 L 21.726562 0 L 21.726562 -8 Z M 12.664062 -8 "/></g></g></g><g fill="#ffffff" fill-opacity="1"><g transform="translate(238.191884, 219.08023)"><g><path d="M 16.863281 -14.8125 L -0.0742188 -14.8125 L -0.0742188 -12.394531 L 7.136719 -12.394531 L 7.136719 0 L 9.652344 0 L 9.652344 -12.394531 L 16.863281 -12.394531 Z M 16.863281 -14.8125 "/></g></g></g><g fill="#ffffff" fill-opacity="1"><g transform="translate(257.838675, 219.08023)"><g><path d="M 18.515625 -14.8125 L 18.515625 -8.46875 L 5.578125 -8.46875 L 5.578125 -14.8125 L 3.0625 -14.8125 L 3.0625 0 L 5.578125 0 L 5.578125 -6.34375 L 18.515625 -6.34375 L 18.515625 0 L 21.035156 0 L 21.035156 -14.8125 Z M 18.515625 -14.8125 "/></g></g></g><g fill="#ffffff" fill-opacity="1"><g transform="translate(112.642894, 237.668245)"><g><path d="M 1.761719 -1.824219 C 2.34375 -1.824219 2.699219 -2.179688 2.699219 -2.667969 C 2.699219 -3.167969 2.34375 -3.511719 1.761719 -3.511719 C 1.179688 -3.511719 0.824219 -3.167969 0.824219 -2.667969 C 0.824219 -2.179688 1.179688 -1.824219 1.761719 -1.824219 Z M 1.761719 -1.824219 "/></g></g></g><g fill="#ffffff" fill-opacity="1"><g transform="translate(118.729999, 237.668245)"><g/></g></g><g fill="#ffffff" fill-opacity="1"><g transform="translate(125.463032, 237.668245)"><g><path d="M 7.882812 -5.304688 L 7.882812 -6.253906 L 1.292969 -6.253906 L 1.292969 0 L 2.355469 0 L 2.355469 -2.535156 L 7.234375 -2.535156 L 7.234375 -3.480469 L 2.355469 -3.480469 L 2.355469 -5.304688 Z M 7.882812 -5.304688 "/></g></g></g><g fill="#ffffff" fill-opacity="1"><g transform="translate(136.092411, 237.668245)"><g><path d="M 1.292969 0 L 2.355469 0 L 2.355469 -6.253906 L 1.292969 -6.253906 Z M 1.292969 0 "/></g></g></g><g fill="#ffffff" fill-opacity="1"><g transform="translate(142.304533, 237.668245)"><g><path d="M 7.121094 -6.253906 L -0.03125 -6.253906 L -0.03125 -5.234375 L 3.011719 -5.234375 L 3.011719 0 L 4.078125 0 L 4.078125 -5.234375 L 7.121094 -5.234375 Z M 7.121094 -6.253906 "/></g></g></g><g fill="#ffffff" fill-opacity="1"><g transform="translate(151.944194, 237.668245)"><g><path d="M 7.277344 -6.253906 L 7.277344 -1.179688 L 2.699219 -6.253906 L 1.292969 -6.253906 L 1.292969 0 L 2.355469 0 L 2.355469 -5.066406 L 6.910156 0 L 8.339844 0 L 8.339844 -6.253906 Z M 7.277344 -6.253906 "/></g></g></g><g fill="#ffffff" fill-opacity="1"><g transform="translate(164.136291, 237.668245)"><g><path d="M 7.882812 -5.304688 L 7.882812 -6.253906 L 1.292969 -6.253906 L 1.292969 0 L 7.882812 0 L 7.882812 -0.949219 L 2.355469 -0.949219 L 2.355469 -2.574219 L 7.234375 -2.574219 L 7.234375 -3.523438 L 2.355469 -3.523438 L 2.355469 -5.304688 Z M 7.882812 -5.304688 "/></g></g></g><g fill="#ffffff" fill-opacity="1"><g transform="translate(175.21365, 237.668245)"><g><path d="M 7.308594 -4.234375 L 8.371094 -4.234375 C 8.371094 -5.796875 6.953125 -6.347656 4.710938 -6.347656 C 2.054688 -6.347656 0.84375 -5.734375 0.84375 -4.585938 L 0.84375 -4.503906 C 0.84375 -3.097656 1.980469 -2.910156 4.484375 -2.648438 C 7.203125 -2.398438 7.214844 -2.023438 7.214844 -1.855469 L 7.214844 -1.730469 C 7.214844 -1 5.648438 -0.9375 4.492188 -0.9375 C 2.722656 -0.9375 1.898438 -1.40625 1.898438 -2.15625 L 0.835938 -2.15625 C 0.835938 -0.761719 2.042969 0.105469 4.492188 0.105469 C 7.109375 0.105469 8.308594 -0.386719 8.308594 -1.761719 L 8.308594 -1.867188 C 8.308594 -3.285156 6.910156 -3.480469 4.546875 -3.699219 C 1.949219 -3.941406 1.9375 -4.265625 1.9375 -4.515625 L 1.9375 -4.609375 C 1.9375 -5.109375 3.230469 -5.304688 4.710938 -5.304688 C 6.191406 -5.304688 7.308594 -5.035156 7.308594 -4.234375 Z M 7.308594 -4.234375 "/></g></g></g><g fill="#ffffff" fill-opacity="1"><g transform="translate(186.978605, 237.668245)"><g><path d="M 7.308594 -4.234375 L 8.371094 -4.234375 C 8.371094 -5.796875 6.953125 -6.347656 4.710938 -6.347656 C 2.054688 -6.347656 0.84375 -5.734375 0.84375 -4.585938 L 0.84375 -4.503906 C 0.84375 -3.097656 1.980469 -2.910156 4.484375 -2.648438 C 7.203125 -2.398438 7.214844 -2.023438 7.214844 -1.855469 L 7.214844 -1.730469 C 7.214844 -1 5.648438 -0.9375 4.492188 -0.9375 C 2.722656 -0.9375 1.898438 -1.40625 1.898438 -2.15625 L 0.835938 -2.15625 C 0.835938 -0.761719 2.042969 0.105469 4.492188 0.105469 C 7.109375 0.105469 8.308594 -0.386719 8.308594 -1.761719 L 8.308594 -1.867188 C 8.308594 -3.285156 6.910156 -3.480469 4.546875 -3.699219 C 1.949219 -3.941406 1.9375 -4.265625 1.9375 -4.515625 L 1.9375 -4.609375 C 1.9375 -5.109375 3.230469 -5.304688 4.710938 -5.304688 C 6.191406 -5.304688 7.308594 -5.035156 7.308594 -4.234375 Z M 7.308594 -4.234375 "/></g></g></g><g fill="#ffffff" fill-opacity="1"><g transform="translate(198.74356, 237.668245)"><g/></g></g><g fill="#ffffff" fill-opacity="1"><g transform="translate(205.476593, 237.668245)"><g><path d="M 5.066406 0.105469 C 7.890625 0.105469 9.027344 -1.023438 9.238281 -2.34375 L 8.078125 -2.34375 C 7.851562 -1.53125 6.996094 -0.9375 5.066406 -0.9375 C 2.804688 -0.9375 1.917969 -1.792969 1.917969 -3.035156 L 1.917969 -3.253906 C 1.917969 -4.492188 2.804688 -5.347656 5.066406 -5.347656 C 6.796875 -5.347656 7.964844 -4.734375 8.089844 -4.003906 L 9.246094 -4.003906 C 9.152344 -5.253906 7.695312 -6.390625 5.066406 -6.390625 C 1.84375 -6.390625 0.835938 -4.898438 0.835938 -3.253906 L 0.835938 -3.035156 C 0.835938 -1.386719 1.84375 0.105469 5.066406 0.105469 Z M 5.066406 0.105469 "/></g></g></g><g fill="#ffffff" fill-opacity="1"><g transform="translate(218.147915, 237.668245)"><g><path d="M 2.34375 -6.253906 L 1.28125 -6.253906 L 1.28125 0 L 7.558594 0 L 7.558594 -1 L 2.34375 -1 Z M 2.34375 -6.253906 "/></g></g></g><g fill="#ffffff" fill-opacity="1"><g transform="translate(228.683528, 237.668245)"><g><path d="M 4.710938 0.105469 C 7.984375 0.105469 8.578125 -1.460938 8.578125 -3.042969 L 8.578125 -6.234375 L 7.421875 -6.234375 L 7.371094 -2.898438 C 7.371094 -1.742188 6.671875 -1.011719 4.710938 -1.011719 C 2.816406 -1.011719 2.054688 -1.792969 2.054688 -2.898438 L 2.054688 -6.234375 L 0.898438 -6.234375 L 0.84375 -2.898438 C 0.84375 -1.386719 1.492188 0.105469 4.710938 0.105469 Z M 4.710938 0.105469 "/></g></g></g><g fill="#ffffff" fill-opacity="1"><g transform="translate(240.729761, 237.668245)"><g><path d="M 1.292969 0 L 5.109375 0 C 6.753906 0 7.921875 -0.625 7.921875 -1.90625 L 7.921875 -2.0625 C 7.921875 -3.054688 7.171875 -3.167969 7.078125 -3.253906 C 7.234375 -3.324219 7.789062 -3.566406 7.789062 -4.546875 L 7.789062 -4.628906 C 7.789062 -5.785156 6.765625 -6.253906 5.628906 -6.253906 L 1.292969 -6.253906 Z M 2.355469 -3.824219 L 2.355469 -5.210938 L 5.628906 -5.210938 C 6.453125 -5.210938 6.703125 -4.953125 6.703125 -4.628906 L 6.703125 -4.546875 C 6.703125 -3.960938 6.390625 -3.824219 5.628906 -3.824219 Z M 2.355469 -1.042969 L 2.355469 -2.710938 L 5.109375 -2.710938 C 6.277344 -2.710938 6.839844 -2.691406 6.839844 -2.0625 L 6.839844 -1.90625 C 6.839844 -1.5625 6.402344 -1.042969 5.109375 -1.042969 Z M 2.355469 -1.042969 "/></g></g></g><g fill="#ffffff" fill-opacity="1"><g transform="translate(252.088399, 237.668245)"><g/></g></g><g fill="#ffffff" fill-opacity="1"><g transform="translate(258.821427, 237.668245)"><g><path d="M 1.761719 -1.824219 C 2.34375 -1.824219 2.699219 -2.179688 2.699219 -2.667969 C 2.699219 -3.167969 2.34375 -3.511719 1.761719 -3.511719 C 1.179688 -3.511719 0.824219 -3.167969 0.824219 -2.667969 C 0.824219 -2.179688 1.179688 -1.824219 1.761719 -1.824219 Z M 1.761719 -1.824219 "/></g></g></g></svg>