<svg xmlns="http://www.w3.org/2000/svg" xmlns:xlink="http://www.w3.org/1999/xlink" zoomAndPan="magnify" preserveAspectRatio="xMidYMid meet" version="1.0" viewBox="127.46 141.42 120 91.58"><defs><clipPath id="4fb5a8ffa4"><path d="M 127.460938 141.417969 L 201 141.417969 L 201 233 L 127.460938 233 Z M 127.460938 141.417969 " clip-rule="nonzero"/></clipPath><clipPath id="5337e31a8a"><path d="M 183 143 L 247.460938 143 L 247.460938 230 L 183 230 Z M 183 143 " clip-rule="nonzero"/></clipPath></defs><g clip-path="url(#4fb5a8ffa4)"><path fill="#f9c305" d="M 194.277344 201.273438 L 184.125 191.691406 C 184.125 191.691406 191.199219 174.109375 194.277344 168.609375 C 195.589844 166.253906 197.164062 163.152344 198.070312 159.722656 C 198.148438 159.738281 198.230469 159.742188 198.316406 159.742188 C 199.640625 159.742188 200.714844 157.816406 200.714844 155.441406 C 200.714844 153.65625 200.109375 152.125 199.246094 151.472656 C 199.246094 151.472656 198.042969 152.359375 197.964844 154.09375 C 197.964844 154.09375 197.632812 152.207031 199.144531 150.585938 C 198.886719 148.683594 198.425781 147.566406 197.289062 146.191406 C 195.269531 143.753906 192.183594 142.941406 187.496094 142.726562 C 183.097656 142.523438 179.929688 142.003906 176.207031 141.597656 C 174.925781 141.460938 175.472656 143.921875 175.816406 144.515625 C 176.507812 145.714844 177.492188 146.113281 180.996094 147.144531 C 180.996094 147.144531 178.191406 147.140625 175.328125 145.53125 C 174.675781 146.703125 174.316406 148.242188 174.195312 149.992188 C 176.488281 152.363281 175.996094 155.175781 175.996094 155.175781 C 175.882812 152.664062 174.144531 151.382812 174.144531 151.382812 C 173.210938 151.972656 172.542969 153.566406 172.542969 155.441406 C 172.542969 157.816406 173.617188 159.742188 174.941406 159.742188 C 175.066406 159.742188 175.191406 159.726562 175.3125 159.691406 C 176.347656 163.625 177.972656 167.3125 179.785156 169.496094 C 178.824219 170.425781 177.910156 171.308594 177.054688 171.972656 C 182.441406 171.726562 186.628906 175.449219 186.628906 175.449219 C 186.628906 175.449219 179.179688 170.917969 173.410156 174.25 C 165.414062 178.867188 156.742188 175.449219 156.742188 175.449219 C 156.742188 175.449219 164.574219 176.859375 172.875 173.003906 C 173.054688 172.921875 173.230469 172.847656 173.40625 172.777344 C 169.058594 171.101562 165.027344 168.585938 154.527344 173.683594 C 154.527344 173.683594 151.804688 174.828125 150.246094 177.238281 C 150.246094 177.238281 150.671875 175.039062 153.050781 173.0625 C 150.964844 172.324219 147.042969 171.429688 143.667969 173.480469 C 143.667969 173.480469 140.945312 174.625 139.386719 177.039062 C 139.386719 177.039062 140.570312 174.105469 143.875 171.972656 C 144.375 168.988281 145.921875 162.269531 150.171875 158.148438 C 150.371094 157.957031 150.550781 157.789062 150.726562 157.640625 C 149.355469 157.898438 148.253906 158.4375 148.253906 158.4375 C 150.46875 156.382812 152.453125 157.210938 153.898438 157.085938 C 155.613281 156.941406 157.664062 157.8125 158.710938 157.660156 C 160.117188 157.457031 162.320312 157.210938 162.867188 156.910156 C 164.375 156.066406 163.34375 154.339844 162.152344 154.285156 C 160.609375 154.214844 165.003906 154.332031 164.882812 152.554688 C 164.695312 149.804688 165.003906 148.929688 164.191406 147.847656 C 163.828125 147.363281 160.121094 143.996094 158.984375 143.996094 C 155.90625 144.007812 151.214844 146.878906 148.691406 148.015625 C 146.558594 148.976562 145.578125 150.910156 144.640625 152.445312 C 142.84375 155.375 127.460938 174.527344 127.617188 180.328125 C 127.789062 186.636719 140.261719 193.132812 152.90625 188.917969 C 152.90625 188.917969 155.910156 187.523438 157.585938 186.28125 C 157.585938 186.28125 155.78125 188.375 153.558594 189.761719 C 154.269531 190.664062 155.117188 191.839844 156.058594 193.207031 C 159.0625 196.972656 164.601562 202.859375 171.746094 205.78125 C 171.746094 205.78125 167.914062 205.304688 162.609375 203.183594 C 163.804688 205.058594 165.007812 206.960938 166.171875 208.792969 C 167.597656 211.046875 169.445312 213.011719 171.625 214.546875 C 173.496094 215.859375 175.542969 217.042969 177.742188 217.941406 C 177.742188 217.941406 174.984375 217.597656 170.90625 216.199219 C 172.144531 218.101562 173.183594 219.644531 173.910156 220.609375 C 175.707031 222.992188 178.652344 225.222656 177.859375 232.242188 L 194.277344 201.273438 " fill-opacity="1" fill-rule="nonzero"/></g><g clip-path="url(#5337e31a8a)"><path fill="#ffffff" d="M 230.347656 152.445312 C 229.410156 150.910156 228.429688 148.976562 226.296875 148.015625 C 223.773438 146.878906 219.082031 144.007812 216.003906 143.996094 C 214.867188 143.996094 211.160156 147.363281 210.796875 147.847656 C 209.984375 148.929688 210.296875 149.804688 210.105469 152.554688 C 209.984375 154.332031 214.378906 154.214844 212.835938 154.285156 C 211.644531 154.339844 210.613281 156.066406 212.121094 156.910156 C 212.667969 157.210938 214.875 157.457031 216.277344 157.660156 C 217.324219 157.8125 219.375 156.941406 221.089844 157.085938 C 222.535156 157.210938 224.519531 156.382812 226.734375 158.4375 C 226.734375 158.4375 225.628906 157.898438 224.265625 157.640625 C 224.433594 157.789062 224.617188 157.957031 224.816406 158.148438 C 229.066406 162.269531 230.613281 168.988281 231.113281 171.972656 C 234.417969 174.105469 235.601562 177.039062 235.601562 177.039062 C 234.046875 174.625 231.320312 173.480469 231.320312 173.480469 C 227.945312 171.429688 224.023438 172.324219 221.941406 173.0625 C 224.316406 175.039062 224.742188 177.238281 224.742188 177.238281 C 223.183594 174.828125 220.460938 173.683594 220.460938 173.683594 C 215.769531 171.40625 212.371094 170.648438 209.65625 170.65625 L 207.5625 174.359375 C 214.429688 176.484375 220.171875 175.449219 220.171875 175.449219 C 220.171875 175.449219 213.707031 177.996094 206.792969 175.722656 L 198.410156 190.5625 L 207.242188 199.019531 L 183.71875 225.691406 C 183.71875 225.691406 201.214844 233.542969 213.207031 226.121094 C 205.15625 218.753906 204.359375 215.121094 205.496094 211.042969 C 207.042969 205.515625 216.519531 190.898438 216.519531 190.898438 C 229.164062 195.113281 247.199219 186.636719 247.371094 180.328125 C 247.527344 174.527344 232.144531 155.375 230.347656 152.445312 " fill-opacity="1" fill-rule="nonzero"/></g></svg>