<svg xmlns="http://www.w3.org/2000/svg" xmlns:xlink="http://www.w3.org/1999/xlink" zoomAndPan="magnify" preserveAspectRatio="xMidYMid meet" version="1.0" viewBox="89.68 87.58 195.29 196.16"><defs><g/><clipPath id="2f24ee58b6"><path d="M 133.714844 160 L 240.964844 160 L 240.964844 215.683594 L 133.714844 215.683594 Z M 133.714844 160 " clip-rule="nonzero"/></clipPath><clipPath id="c9fc9b8764"><path d="M 238 183 L 240.964844 183 L 240.964844 191 L 238 191 Z M 238 183 " clip-rule="nonzero"/></clipPath></defs><g clip-path="url(#2f24ee58b6)"><path fill="#ffffff" d="M 208.078125 184.617188 C 207.683594 186.527344 207.179688 188.382812 206.019531 190.015625 C 204.007812 192.847656 201.382812 195.007812 198.550781 196.9375 C 198.015625 197.304688 197.824219 197.679688 197.835938 198.308594 C 197.914062 203.144531 197.945312 207.980469 198.035156 212.816406 C 198.046875 213.523438 197.835938 213.769531 197.152344 213.917969 C 189.46875 215.582031 181.792969 215.347656 174.101562 213.976562 C 173.445312 213.859375 173.285156 213.609375 173.285156 212.976562 C 173.28125 207.730469 173.238281 202.488281 173.195312 197.242188 C 173.195312 196.964844 173.140625 196.644531 172.992188 196.414062 C 171.125 193.519531 170.179688 190.324219 169.902344 186.914062 C 169.8125 185.839844 169.773438 184.765625 169.710938 183.613281 C 168.179688 183.875 166.695312 184.125 165.160156 184.386719 C 165.195312 184.691406 165.21875 184.929688 165.253906 185.171875 C 165.765625 189.019531 165.96875 192.871094 165.308594 196.71875 C 164.933594 198.898438 164.320312 201.003906 162.945312 202.785156 C 161.507812 204.640625 159.667969 205.636719 157.265625 205.050781 C 156.46875 204.855469 155.730469 204.429688 154.917969 204.089844 C 153.660156 205.316406 152.136719 205.617188 150.480469 204.882812 C 149.789062 204.578125 149.167969 204.09375 148.554688 203.636719 C 148.113281 203.304688 147.742188 202.878906 147.347656 202.503906 C 145.925781 203.40625 144.949219 203.414062 143.617188 202.453125 C 143.054688 202.050781 142.535156 201.558594 142.082031 201.03125 C 140.660156 199.390625 139.667969 197.484375 138.847656 195.496094 C 138.277344 194.101562 137.78125 192.679688 137.253906 191.273438 C 135.917969 191.472656 135.558594 191.304688 134.914062 190.09375 C 134.191406 188.734375 133.855469 187.257812 133.824219 185.730469 C 133.800781 184.441406 133.78125 183.101562 135.542969 182.921875 C 135.457031 181.769531 135.34375 180.691406 135.308594 179.609375 C 135.269531 178.503906 135.265625 177.394531 135.324219 176.289062 C 135.414062 174.5 135.664062 172.738281 136.367188 171.066406 C 136.878906 169.855469 137.769531 168.984375 139.070312 168.863281 C 140.113281 168.765625 140.433594 168.242188 140.777344 167.382812 C 141.851562 164.6875 143.351562 163.746094 146.015625 163.941406 C 146.210938 163.625 146.40625 163.296875 146.617188 162.980469 C 148.472656 160.171875 151.234375 159.539062 154.132812 161.269531 C 155.917969 162.335938 157.246094 163.875 158.414062 165.558594 C 160.730469 168.898438 162.238281 172.613281 163.402344 176.480469 C 163.503906 176.816406 163.617188 177.148438 163.71875 177.457031 C 165.875 177.109375 167.953125 176.785156 170.019531 176.414062 C 170.195312 176.382812 170.410156 176.070312 170.445312 175.859375 C 170.792969 173.929688 171.085938 171.992188 171.429688 170.0625 C 171.75 168.25 172.542969 166.710938 174.183594 165.75 C 175.640625 164.890625 177.152344 164.777344 178.660156 165.625 C 179.929688 163.566406 183.347656 162.410156 186.097656 164.082031 C 188.636719 161.542969 192.117188 161.5 195.285156 163.929688 C 195.910156 163.710938 196.484375 163.402344 197.089844 163.308594 C 199.636719 162.925781 201.660156 163.824219 203.113281 165.957031 C 204.015625 167.285156 204.503906 168.777344 204.859375 170.335938 C 204.953125 170.734375 205.195312 171.234375 205.519531 171.425781 C 207.652344 172.675781 208.933594 174.367188 208.609375 176.996094 C 209.535156 177.171875 210.394531 177.332031 211.277344 177.5 C 211.359375 177.242188 211.429688 177.03125 211.492188 176.820312 C 212.542969 173.277344 213.871094 169.851562 215.835938 166.699219 C 217.074219 164.710938 218.492188 162.871094 220.453125 161.523438 C 223.488281 159.4375 226.5 160.046875 228.492188 163.136719 C 228.671875 163.417969 228.847656 163.699219 229.019531 163.96875 C 231.054688 163.597656 232.511719 164.417969 233.539062 166.050781 C 233.96875 166.730469 234.257812 167.503906 234.566406 168.253906 C 234.691406 168.558594 234.816406 168.707031 235.179688 168.726562 C 236.972656 168.820312 238.175781 169.730469 238.777344 171.425781 C 239.828125 174.390625 239.816406 177.457031 239.648438 180.539062 C 239.605469 181.324219 239.515625 182.105469 239.445312 182.878906 C 240.898438 183.40625 241.179688 183.792969 241.1875 185.371094 C 241.195312 186.90625 240.890625 188.382812 240.246094 189.777344 C 239.589844 191.195312 239.246094 191.394531 237.695312 191.304688 C 237.640625 191.464844 237.585938 191.632812 237.519531 191.796875 C 236.847656 193.523438 236.242188 195.277344 235.476562 196.957031 C 234.605469 198.878906 233.511719 200.683594 231.882812 202.085938 C 230.394531 203.367188 229.324219 203.464844 227.644531 202.535156 C 223.957031 205.785156 222.894531 205.992188 219.957031 204.050781 C 219.761719 204.164062 219.574219 204.285156 219.375 204.394531 C 216.863281 205.796875 214.324219 205.449219 212.476562 203.242188 C 211.652344 202.257812 211 201.0625 210.542969 199.859375 C 209.183594 196.277344 209.148438 192.519531 209.386719 188.757812 C 209.476562 187.320312 209.664062 185.886719 209.8125 184.390625 C 209.28125 184.296875 208.753906 184.207031 208.167969 184.105469 C 208.125 184.355469 208.105469 184.488281 208.078125 184.617188 Z M 179.414062 175.929688 C 179.25 175.539062 179.128906 175.125 178.996094 174.71875 C 178.828125 174.207031 178.515625 174.039062 177.996094 174.304688 C 178.273438 175.21875 178.539062 176.136719 178.835938 177.042969 C 178.894531 177.222656 179.066406 177.367188 179.1875 177.527344 C 178.625 177.464844 178.011719 177.53125 177.515625 177.324219 C 176.394531 176.855469 175.789062 175.839844 175.210938 174.828125 C 175.066406 174.578125 174.914062 174.328125 174.699219 174.121094 C 175.308594 175.554688 175.855469 177.042969 177.269531 177.929688 C 178.039062 178.410156 178.875 178.324219 179.671875 177.9375 C 180.210938 177.679688 180.433594 177.226562 180.308594 176.652344 C 179.734375 174.027344 179.148438 171.40625 178.558594 168.785156 C 178.515625 168.589844 178.433594 168.402344 178.359375 168.210938 C 177.722656 166.496094 176.671875 166.101562 175.070312 166.964844 C 174.171875 167.445312 173.488281 168.328125 173.261719 169.207031 C 173.683594 168.828125 174.136719 168.253906 174.726562 167.941406 C 175.304688 167.640625 176.027344 167.605469 176.683594 167.453125 C 176.703125 167.523438 176.722656 167.589844 176.742188 167.660156 C 176.382812 167.816406 176.011719 167.957031 175.664062 168.136719 C 175.332031 168.3125 175.023438 168.53125 174.753906 168.855469 C 175.167969 168.78125 175.585938 168.707031 176.003906 168.632812 C 175.171875 169.292969 175.386719 170.027344 175.785156 170.765625 C 176.152344 171.441406 176.523438 172.113281 176.9375 172.757812 C 177.09375 173 177.371094 173.164062 177.613281 173.382812 C 177.40625 173.660156 176.683594 173.785156 177.03125 174.519531 C 177.441406 173.761719 177.960938 173.449219 178.601562 173.558594 C 178.734375 173.582031 178.871094 173.617188 178.988281 173.675781 C 179.78125 174.082031 180.238281 176.6875 179.621094 177.3125 C 179.507812 177.429688 179.316406 177.46875 179.164062 177.546875 C 179.605469 177.0625 179.664062 176.53125 179.414062 175.929688 Z M 203.703125 178.402344 C 203.175781 178.867188 202.613281 178.972656 202.039062 178.878906 C 201.535156 178.800781 201.25 179.003906 201.078125 179.410156 C 200.8125 180.035156 200.5625 180.664062 200.34375 181.300781 C 200.074219 182.101562 200.347656 182.8125 200.785156 183.476562 C 201.019531 183.835938 201.277344 184.179688 201.617188 184.660156 C 200.148438 184.078125 199.335938 183.082031 198.855469 181.757812 C 198.789062 181.773438 198.726562 181.785156 198.660156 181.796875 C 198.738281 182.664062 198.816406 183.527344 198.894531 184.410156 C 198.296875 183.769531 198.152344 182.960938 198.132812 182.105469 C 198.074219 182.09375 198.011719 182.082031 197.953125 182.070312 C 197.792969 182.578125 197.636719 183.085938 197.429688 183.742188 C 197.316406 183.304688 197.230469 182.964844 197.167969 182.726562 C 196.265625 182.777344 195.351562 182.828125 194.3125 182.886719 C 191.96875 186.320312 190.304688 187.023438 187.585938 185.582031 C 186.132812 186.585938 185.449219 188.105469 184.902344 189.726562 C 184.792969 188.027344 185.390625 186.558594 186.308594 185.320312 C 185.421875 185.320312 184.515625 185.351562 183.613281 185.3125 C 182.601562 185.269531 181.796875 184.761719 181.199219 183.976562 C 180.902344 183.589844 180.621094 183.480469 180.175781 183.648438 C 178.0625 184.433594 175.941406 185.203125 173.832031 186.003906 C 173.671875 186.066406 173.457031 186.394531 173.5 186.527344 C 174.46875 189.546875 175.832031 192.328125 178.632812 194.09375 C 180.515625 195.28125 182.625 195.632812 184.8125 195.511719 C 185.296875 195.484375 185.617188 195.597656 185.929688 195.949219 C 186.175781 196.230469 186.496094 196.449219 186.847656 196.652344 C 185.976562 195.691406 185.355469 194.636719 185.28125 193.25 C 186.761719 195.347656 188.894531 195.558594 191.074219 195.371094 C 195.277344 195.007812 198.867188 193.171875 202.214844 190.664062 C 205.210938 188.425781 206.5625 185.441406 206.847656 181.859375 C 207 179.902344 207.042969 177.9375 207.125 175.972656 C 207.136719 175.777344 207.097656 175.582031 207.074219 175.25 C 206.859375 175.527344 206.722656 175.707031 206.585938 175.882812 C 207.160156 174.34375 206.183594 173.648438 205.09375 172.980469 C 204.632812 172.703125 204.238281 172.316406 203.820312 171.972656 C 203.257812 171.511719 202.671875 171.109375 201.867188 171.050781 C 201.816406 171.371094 201.789062 171.65625 201.726562 171.9375 C 201.476562 173.074219 200.613281 173.660156 199.523438 173.308594 C 198.824219 173.082031 198.128906 172.742188 197.542969 172.3125 C 196.417969 171.484375 196.167969 170.261719 196.761719 168.996094 C 196.953125 168.59375 197.203125 168.21875 197.429688 167.832031 C 196.683594 167.59375 196.144531 167.894531 195.839844 168.730469 C 195.457031 169.78125 195.582031 170.835938 195.929688 171.855469 C 196.828125 174.488281 198.710938 176.203125 201.234375 177.21875 C 202.339844 177.664062 203.503906 177.441406 204.652344 177.152344 C 204.234375 177.757812 203.796875 177.976562 202.425781 178.402344 C 202.820312 178.402344 203.214844 178.402344 203.703125 178.402344 Z M 149.535156 203.238281 C 151.53125 204.832031 153.082031 204.691406 154.84375 202.773438 C 155.140625 202.972656 155.449219 203.183594 155.765625 203.382812 C 158.03125 204.820312 160.195312 204.523438 161.734375 202.566406 C 161.800781 202.484375 161.851562 202.390625 161.972656 202.207031 C 160.09375 202.71875 158.835938 201.796875 157.699219 200.632812 C 155.789062 198.671875 154.539062 196.285156 153.507812 193.792969 C 150.617188 186.816406 149.171875 179.554688 149.433594 171.984375 C 149.5 170.082031 149.726562 168.1875 150.414062 166.402344 C 150.726562 165.589844 151.15625 164.792969 151.6875 164.109375 C 152.488281 163.085938 153.578125 162.867188 154.800781 163.292969 C 154.941406 163.34375 155.085938 163.382812 155.25 163.371094 C 153.871094 162.078125 152.386719 160.941406 150.351562 161.316406 C 148.304688 161.695312 147.371094 163.355469 146.515625 165.058594 C 146.417969 165.050781 146.324219 165.070312 146.246094 165.039062 C 144.578125 164.367188 143.015625 165.148438 142.183594 166.667969 C 141.671875 167.589844 141.316406 168.597656 140.859375 169.644531 C 140.679688 169.644531 140.394531 169.640625 140.105469 169.644531 C 138.59375 169.65625 137.546875 170.296875 137.128906 171.738281 C 136.730469 173.117188 136.371094 174.550781 136.304688 175.972656 C 135.953125 183.402344 137.398438 190.492188 140.671875 197.179688 C 141.289062 198.441406 142.203125 199.566406 143.035156 200.71875 C 143.316406 201.109375 143.738281 201.417969 144.140625 201.703125 C 145.238281 202.488281 146.078125 202.414062 147.058594 201.492188 C 147.171875 201.386719 147.261719 201.257812 147.335938 201.171875 C 148.121094 201.914062 148.78125 202.632812 149.535156 203.238281 Z M 227.675781 201.230469 C 228.84375 202.5625 229.976562 202.625 231.515625 201.179688 C 233.234375 199.566406 234.3125 197.519531 235.199219 195.386719 C 237.71875 189.320312 239.003906 183.003906 238.726562 176.425781 C 238.660156 174.933594 238.347656 173.421875 237.949219 171.976562 C 237.46875 170.238281 236.417969 169.605469 234.605469 169.648438 C 234.425781 169.652344 234.246094 169.648438 234.085938 169.648438 C 233.78125 168.847656 233.53125 168.046875 233.179688 167.296875 C 232.632812 166.144531 231.886719 165.117188 230.53125 164.890625 C 229.886719 164.785156 229.203125 164.9375 228.453125 164.980469 C 227.554688 163.28125 226.574219 161.453125 224.234375 161.269531 C 222.308594 161.117188 220.925781 162.238281 219.484375 163.53125 C 219.691406 163.496094 219.75 163.496094 219.800781 163.472656 C 221.4375 162.746094 222.730469 163.113281 223.726562 164.605469 C 224.546875 165.832031 224.9375 167.222656 225.191406 168.652344 C 225.914062 172.75 225.671875 176.847656 225.050781 180.929688 C 224.285156 186 222.953125 190.910156 220.695312 195.539062 C 219.761719 197.457031 218.699219 199.304688 217.136719 200.785156 C 216.558594 201.332031 215.863281 201.824219 215.136719 202.132812 C 214.550781 202.378906 213.832031 202.308594 213.207031 202.375 C 214.148438 204.617188 216.867188 204.828125 220.160156 202.777344 C 220.304688 202.933594 220.449219 203.09375 220.601562 203.257812 C 221.621094 204.359375 222.917969 204.710938 224.214844 203.972656 C 225.214844 203.402344 226.0625 202.554688 226.960938 201.8125 C 227.183594 201.628906 227.34375 201.371094 227.527344 201.15625 C 227.597656 201.191406 227.648438 201.199219 227.675781 201.230469 Z M 195.554688 212.441406 C 196.1875 212.300781 196.351562 212.039062 196.347656 211.402344 C 196.320312 206.90625 196.339844 202.40625 196.339844 197.910156 C 196.339844 197.78125 196.320312 197.652344 196.304688 197.441406 C 193.367188 198.652344 190.320312 198.894531 187.042969 198.882812 C 187.042969 201.160156 187.042969 203.402344 187.042969 205.640625 C 186.964844 205.640625 186.886719 205.640625 186.808594 205.640625 C 186.695312 203.644531 186.554688 201.652344 186.488281 199.65625 C 186.46875 199.007812 186.261719 198.765625 185.625 198.835938 C 185.25 198.875 184.867188 198.839844 184.398438 198.839844 C 184.320312 202.605469 184.242188 206.347656 184.164062 210.089844 C 184.132812 210.09375 184.105469 210.09375 184.074219 210.097656 C 183.886719 208.519531 183.695312 206.945312 183.511719 205.367188 C 183.273438 203.304688 183.03125 201.242188 182.800781 199.175781 C 182.757812 198.800781 182.664062 198.523438 182.203125 198.539062 C 182.027344 198.546875 181.847656 198.476562 181.667969 198.445312 C 180.230469 198.214844 180.167969 198.214844 180.148438 199.742188 C 180.097656 203.492188 180.113281 207.242188 180.101562 210.992188 C 180.097656 211.578125 180.101562 212.160156 180.101562 212.824219 C 185.347656 213.242188 190.464844 213.558594 195.554688 212.441406 Z M 189.625 179.738281 C 189.6875 180.960938 189.742188 182.144531 189.804688 183.390625 C 189.390625 183.355469 189.085938 183.328125 188.78125 183.300781 C 188.757812 183.351562 188.734375 183.402344 188.714844 183.449219 C 189.191406 183.667969 189.671875 183.882812 190.152344 184.097656 C 190.148438 184.128906 190.144531 184.160156 190.144531 184.191406 C 189.714844 184.164062 189.285156 184.132812 188.855469 184.105469 C 188.828125 184.152344 188.796875 184.203125 188.769531 184.25 C 189.148438 184.449219 189.511719 184.734375 189.914062 184.824219 C 191.125 185.09375 192.441406 184.476562 193.003906 183.367188 C 193.523438 182.339844 193.777344 181.289062 193.332031 180.113281 C 193.09375 179.480469 193 178.730469 193.054688 178.054688 C 193.289062 175.199219 193.597656 172.347656 193.894531 169.496094 C 193.980469 168.691406 194.101562 167.882812 194.25 167.085938 C 194.339844 166.605469 194.519531 166.144531 194.683594 165.589844 C 193.941406 164.628906 192.980469 163.855469 191.597656 163.808594 C 190.832031 163.78125 190.0625 163.78125 189.296875 163.8125 C 188.253906 163.851562 187.648438 164.507812 187.207031 165.410156 C 188.296875 164.136719 189.644531 163.863281 191.1875 164.320312 C 190.214844 164.472656 189.0625 164.160156 188.65625 165.34375 C 189.296875 165.34375 190.078125 165.34375 190.925781 165.34375 C 190.824219 165.425781 190.796875 165.464844 190.757812 165.476562 C 188.976562 165.910156 188.84375 165.6875 188.757812 167.828125 C 188.644531 170.714844 188.734375 173.605469 188.746094 176.496094 C 188.75 176.902344 188.789062 177.304688 188.816406 177.753906 C 189.402344 177.808594 189.972656 177.859375 190.558594 177.910156 C 189.792969 178.222656 189.078125 178.511719 188.359375 178.800781 C 188.382812 178.820312 188.402344 178.839844 188.421875 178.855469 C 189.324219 178.777344 190.222656 178.625 191.121094 178.644531 C 192.171875 178.664062 192.484375 178.988281 192.613281 180.015625 C 192.707031 180.75 192.761719 181.5 192.726562 182.238281 C 192.683594 183.140625 192.203125 183.632812 191.253906 183.859375 C 192.15625 183.464844 192.210938 182.699219 192.171875 181.898438 C 192.148438 181.449219 192.125 180.996094 192.085938 180.546875 C 191.984375 179.382812 191.851562 179.238281 190.65625 179.308594 C 190.011719 179.34375 189.375 179.523438 188.730469 179.636719 C 188.746094 179.710938 188.761719 179.785156 188.773438 179.859375 C 189.03125 179.824219 189.292969 179.785156 189.625 179.738281 Z M 183.351562 165.621094 C 182.363281 166.027344 181.359375 166.441406 180.355469 166.855469 C 180.378906 166.96875 180.40625 167.082031 180.433594 167.191406 C 181.117188 167.191406 181.804688 167.191406 182.601562 167.191406 C 181.789062 167.539062 181.101562 167.832031 180.410156 168.128906 C 180.421875 168.183594 180.429688 168.238281 180.441406 168.296875 C 180.621094 168.3125 180.800781 168.332031 180.988281 168.347656 C 181.503906 171.4375 182.019531 174.527344 182.542969 177.652344 C 182.96875 177.652344 183.34375 177.652344 183.910156 177.652344 C 183.121094 178.105469 182.414062 178.402344 182.09375 179.28125 C 183.753906 178.050781 185.207031 177.96875 185.90625 178.996094 C 186.828125 180.34375 186.757812 182.464844 185.707031 183.074219 C 186.488281 182.175781 186.035156 181.253906 185.789062 180.359375 C 185.363281 178.808594 184.070312 178.503906 182.863281 179.636719 C 182.976562 179.738281 183.164062 179.824219 183.195312 179.949219 C 183.308594 180.410156 183.355469 180.882812 183.453125 181.34375 C 183.546875 181.78125 183.667969 182.210938 183.789062 182.695312 C 183.554688 182.695312 183.367188 182.695312 183.179688 182.695312 C 183.164062 182.738281 183.148438 182.78125 183.132812 182.824219 C 183.472656 183.003906 183.8125 183.183594 184.148438 183.363281 C 184.144531 183.390625 184.136719 183.417969 184.128906 183.445312 C 183.746094 183.367188 183.367188 183.289062 182.980469 183.207031 C 182.757812 183.949219 183.320312 184.195312 183.835938 184.292969 C 184.828125 184.480469 185.78125 184.234375 186.578125 183.597656 C 187.089844 183.183594 187.199219 182.574219 187.152344 181.933594 C 186.867188 177.96875 186.574219 174 186.304688 170.035156 C 186.234375 168.976562 186.246094 167.910156 186.210938 166.847656 C 186.199219 166.632812 186.199219 166.367188 186.082031 166.210938 C 185.355469 165.253906 184.394531 164.707031 183.164062 164.789062 C 181.890625 164.867188 180.753906 165.25 180.046875 166.4375 C 181.113281 165.957031 182.191406 165.5625 183.351562 165.621094 Z M 174.59375 177.121094 C 174.433594 176.984375 174.152344 176.90625 173.945312 176.925781 C 168.96875 177.445312 164.058594 178.332031 159.179688 179.40625 C 158.65625 179.523438 158.4375 179.765625 158.390625 180.246094 C 158.25 181.566406 158.5 182.804688 159.140625 183.96875 C 159.410156 184.453125 159.738281 184.589844 160.304688 184.476562 C 163.785156 183.796875 167.261719 183.085938 170.761719 182.519531 C 173.277344 182.113281 175.832031 181.910156 178.367188 181.621094 C 178.613281 181.589844 178.863281 181.578125 179.128906 181.554688 C 179.207031 181.058594 178.988281 180.953125 178.558594 180.988281 C 173.394531 181.4375 168.289062 182.242188 163.222656 183.320312 C 162.339844 183.507812 161.449219 183.671875 160.570312 183.890625 C 160.042969 184.019531 159.683594 183.882812 159.480469 183.386719 C 159.253906 182.832031 159.046875 182.273438 158.882812 181.835938 C 159.382812 181.835938 159.804688 181.902344 160.203125 181.828125 C 163.753906 181.160156 167.289062 180.414062 170.851562 179.804688 C 172.742188 179.480469 174.667969 179.378906 176.578125 179.175781 C 176.703125 179.164062 176.824219 179.152344 176.816406 179.15625 C 176.101562 178.492188 175.363281 177.789062 174.59375 177.121094 Z M 208.613281 180.195312 C 208.621094 180.351562 208.828125 180.59375 208.980469 180.625 C 211.054688 181.070312 213.132812 181.5 215.21875 181.894531 C 215.472656 181.945312 215.773438 181.769531 216.097656 181.683594 C 216.03125 181.976562 215.980469 182.308594 215.878906 182.621094 C 215.46875 183.894531 215.214844 184.039062 213.933594 183.773438 C 212.277344 183.425781 210.621094 183.074219 208.957031 182.75 C 208.730469 182.703125 208.476562 182.808594 208.238281 182.84375 C 208.242188 182.933594 208.25 183.027344 208.253906 183.117188 C 209.21875 183.320312 210.179688 183.519531 211.144531 183.71875 C 212.402344 183.980469 213.660156 184.261719 214.925781 184.484375 C 215.15625 184.523438 215.53125 184.394531 215.65625 184.21875 C 216.527344 182.980469 216.804688 181.582031 216.570312 180.097656 C 216.53125 179.859375 216.230469 179.523438 216.003906 179.476562 C 213.664062 178.96875 211.3125 178.511719 208.96875 178.042969 C 208.882812 178.027344 208.792969 178.03125 208.597656 178.019531 C 208.597656 178.761719 208.574219 179.480469 208.613281 180.195312 Z M 200.984375 167.417969 C 201.046875 167.394531 201.109375 167.367188 201.167969 167.34375 C 201.539062 168.285156 201.90625 169.222656 202.320312 170.277344 C 202.515625 170.339844 202.878906 170.460938 203.242188 170.578125 C 203.433594 167.34375 200.34375 164.261719 197.398438 164.785156 C 196.882812 164.878906 196.402344 165.191406 195.964844 165.550781 C 196.382812 165.460938 196.800781 165.371094 197.21875 165.277344 C 196.140625 166.203125 195.996094 166.4375 196.085938 167.28125 C 197.578125 166.890625 199.164062 167.261719 201.203125 169.589844 C 201.132812 168.867188 201.058594 168.140625 200.984375 167.417969 Z M 211.480469 184.746094 C 211.363281 185.679688 211.226562 186.582031 211.140625 187.492188 C 210.828125 190.785156 210.683594 194.078125 211.488281 197.324219 C 211.664062 198.039062 211.945312 198.75 212.304688 199.390625 C 213.171875 200.929688 214.566406 201.195312 215.921875 200.050781 C 216.570312 199.507812 217.164062 198.847656 217.609375 198.132812 C 218.421875 196.820312 219.113281 195.425781 219.851562 194.066406 C 219.785156 194.03125 219.71875 193.996094 219.652344 193.957031 C 219.398438 194.453125 219.183594 194.980469 218.875 195.4375 C 218.03125 196.6875 217.261719 198.011719 216.25 199.113281 C 214.671875 200.835938 213.257812 200.484375 212.484375 198.277344 C 211.710938 196.066406 211.648438 193.75 211.753906 191.449219 C 211.839844 189.535156 212.082031 187.628906 212.253906 185.71875 C 212.277344 185.472656 212.304688 185.230469 212.335938 184.929688 C 212.023438 184.863281 211.804688 184.816406 211.480469 184.746094 Z M 162.675781 184.925781 C 162.808594 186.085938 162.960938 187.222656 163.066406 188.363281 C 163.34375 191.25 163.464844 194.136719 162.855469 197 C 162.691406 197.78125 162.402344 198.566406 162.019531 199.265625 C 161.460938 200.285156 160.539062 200.519531 159.625 199.808594 C 158.78125 199.152344 158.035156 198.335938 157.386719 197.484375 C 156.699219 196.574219 156.175781 195.535156 155.585938 194.558594 C 155.574219 194.578125 155.527344 194.621094 155.539062 194.644531 C 156.304688 196.484375 157.207031 198.25 158.632812 199.6875 C 158.945312 200 159.332031 200.265625 159.726562 200.472656 C 160.628906 200.953125 161.554688 200.851562 162.171875 200.046875 C 162.695312 199.363281 163.132812 198.558594 163.386719 197.738281 C 164.210938 195.066406 164.183594 192.300781 164.027344 189.542969 C 163.9375 187.96875 163.730469 186.402344 163.566406 184.742188 C 163.203125 184.820312 162.964844 184.867188 162.675781 184.925781 Z M 223.5625 167.503906 C 223.394531 166.925781 223.152344 166.351562 222.835938 165.839844 C 222.097656 164.628906 220.828125 164.296875 219.707031 165.15625 C 218.808594 165.84375 217.992188 166.699219 217.328125 167.617188 C 215.636719 169.953125 213.621094 174.867188 213.003906 177.855469 C 213.253906 177.910156 213.503906 177.964844 213.792969 178.03125 C 214.199219 176.78125 214.578125 175.558594 214.992188 174.351562 C 215.773438 172.058594 216.691406 169.820312 218.066406 167.816406 C 218.570312 167.078125 219.175781 166.378906 219.859375 165.808594 C 220.898438 164.941406 221.96875 165.132812 222.539062 166.363281 C 223.0625 167.492188 223.425781 168.726562 223.660156 169.949219 C 223.910156 171.273438 223.933594 172.640625 224.066406 174.128906 C 224.171875 171.824219 224.167969 169.636719 223.5625 167.503906 Z M 151.617188 168.550781 C 151.761719 167.746094 152.113281 166.949219 152.523438 166.234375 C 153.136719 165.171875 154.121094 164.933594 155.027344 165.746094 C 155.9375 166.558594 156.757812 167.535156 157.402344 168.574219 C 159.070312 171.261719 160.050781 174.25 160.949219 177.261719 C 161.019531 177.496094 161.089844 177.734375 161.167969 177.992188 C 161.347656 177.976562 161.503906 177.96875 161.652344 177.945312 C 161.757812 177.925781 161.859375 177.878906 162.074219 177.808594 C 161.589844 176.375 161.164062 174.953125 160.636719 173.570312 C 159.621094 170.902344 158.488281 168.289062 156.519531 166.148438 C 156.15625 165.757812 155.734375 165.390625 155.277344 165.113281 C 154.03125 164.359375 152.785156 164.640625 152.117188 165.9375 C 151.664062 166.824219 151.308594 167.820312 151.179688 168.804688 C 150.949219 170.558594 150.921875 172.34375 150.808594 174.113281 C 150.828125 174.113281 150.847656 174.109375 150.867188 174.109375 C 151.109375 172.253906 151.292969 170.386719 151.617188 168.550781 Z M 157.445312 176.054688 C 156.789062 176.027344 156.410156 176.515625 156.304688 177.039062 C 156.074219 178.199219 155.828125 179.390625 155.851562 180.5625 C 155.890625 182.679688 156.40625 184.726562 157.394531 186.613281 C 157.746094 187.28125 158.199219 187.933594 158.730469 188.464844 C 159.625 189.351562 160.59375 188.992188 160.839844 187.75 C 160.898438 187.453125 160.917969 187.144531 160.851562 186.8125 C 160.6875 187.175781 160.550781 187.550781 160.355469 187.890625 C 160.09375 188.34375 159.722656 188.425781 159.382812 187.992188 C 159.09375 187.621094 158.824219 187.21875 158.636719 186.792969 C 157.445312 184.066406 156.84375 181.214844 156.878906 178.238281 C 156.882812 177.945312 156.917969 177.648438 156.980469 177.363281 C 157.179688 176.460938 157.546875 176.339844 158.292969 176.910156 C 158.382812 176.976562 158.46875 177.050781 158.558594 177.121094 C 158.375 176.570312 158.085938 176.078125 157.445312 176.054688 Z M 214.960938 188.863281 C 215.839844 189.171875 216.394531 188.464844 216.847656 187.851562 C 218.210938 186 218.84375 183.851562 219.050781 181.609375 C 219.167969 180.324219 219.003906 179.011719 218.941406 177.710938 C 218.933594 177.496094 218.824219 177.277344 218.730469 177.074219 C 218.5 176.578125 218.25 176.054688 217.597656 176.054688 C 216.945312 176.054688 216.632812 176.53125 216.355469 177.046875 C 216.417969 177.066406 216.457031 177.09375 216.484375 177.085938 C 216.859375 176.925781 217.234375 176.765625 217.609375 176.605469 C 217.777344 177.03125 218.058594 177.445312 218.09375 177.882812 C 218.273438 180.070312 217.851562 182.199219 217.269531 184.292969 C 217.03125 185.160156 216.671875 185.992188 216.347656 186.832031 C 216.253906 187.082031 216.136719 187.34375 215.960938 187.539062 C 215.714844 187.8125 215.40625 188.027344 215.125 188.265625 C 214.886719 187.988281 214.628906 187.722656 214.421875 187.425781 C 214.296875 187.25 214.25 187.019531 214.171875 186.816406 C 214.136719 187.628906 214.054688 188.546875 214.960938 188.863281 Z M 197.066406 169.984375 C 196.992188 170.234375 197.171875 170.707031 197.390625 170.867188 C 198.195312 171.46875 199.035156 172.042969 199.929688 172.5 C 200.582031 172.832031 201.402344 172.089844 201.285156 171.242188 C 201.210938 170.71875 200.949219 170.136719 200.589844 169.757812 C 199.867188 169 199.015625 168.363281 198.0625 167.542969 C 197.660156 168.496094 197.296875 169.21875 197.066406 169.984375 Z M 195.253906 176.445312 C 195.253906 177.585938 195.253906 178.675781 195.253906 179.828125 C 195.0625 179.785156 194.882812 179.746094 194.523438 179.667969 C 194.753906 179.898438 194.890625 180.015625 195 180.15625 C 195.109375 180.300781 195.1875 180.472656 195.28125 180.628906 C 195.128906 180.714844 194.976562 180.800781 194.804688 180.894531 C 195.347656 181.304688 195.933594 181.226562 196.511719 180.988281 C 197.898438 180.417969 198.453125 179.019531 198.542969 177.789062 C 198.554688 177.652344 198.363281 177.46875 198.222656 177.359375 C 197.976562 177.171875 197.699219 177.027344 197.488281 176.894531 C 197.398438 177.796875 197.339844 178.679688 197.207031 179.554688 C 197.171875 179.78125 196.910156 179.972656 196.671875 180.121094 C 197.355469 179.050781 197.0625 177.945312 196.84375 176.894531 C 196.660156 176.015625 195.355469 175.886719 194.417969 176.75 C 194.789062 176.613281 194.992188 176.539062 195.253906 176.445312 Z M 238.8125 186.765625 C 239.121094 186.765625 239.402344 186.765625 239.757812 186.765625 C 239.390625 187.988281 239.445312 189.433594 238.039062 190.179688 C 238.398438 190.527344 238.625 190.554688 238.90625 190.191406 C 239.121094 189.910156 239.304688 189.589844 239.445312 189.265625 C 240.035156 187.898438 240.328125 186.472656 240.234375 184.984375 C 240.183594 184.144531 240.078125 184.039062 239.316406 183.914062 C 239.152344 184.859375 238.992188 185.761719 238.8125 186.765625 Z M 135.328125 186.78125 C 135.589844 186.78125 135.851562 186.78125 136.179688 186.78125 C 136.007812 185.785156 135.855469 184.878906 135.695312 183.960938 C 135.171875 183.863281 134.894531 184.070312 134.835938 184.5625 C 134.597656 186.53125 134.980469 188.375 136.003906 190.078125 C 136.269531 190.515625 136.617188 190.539062 137.082031 190.195312 C 136.097656 189.796875 135.328125 188.21875 135.328125 186.78125 Z M 194.273438 175.960938 C 194.929688 175.8125 195.5625 175.671875 196.21875 175.523438 C 195.863281 174.800781 195.476562 174.011719 195.0625 173.167969 C 194.75 174.140625 195.316406 175.300781 194.273438 175.960938 Z M 194.273438 175.960938 " fill-opacity="1" fill-rule="nonzero"/></g><path fill="#ffffff" d="M 202.425781 178.402344 C 202.820312 178.402344 203.214844 178.402344 203.703125 178.402344 C 203.175781 178.867188 202.613281 178.972656 202.039062 178.878906 C 201.535156 178.800781 201.25 179.003906 201.078125 179.410156 C 200.8125 180.035156 200.5625 180.664062 200.34375 181.300781 C 200.074219 182.101562 200.347656 182.8125 200.785156 183.476562 C 201.019531 183.835938 201.277344 184.179688 201.617188 184.660156 C 200.148438 184.078125 199.335938 183.082031 198.855469 181.757812 C 198.789062 181.773438 198.726562 181.785156 198.660156 181.796875 C 198.738281 182.664062 198.816406 183.527344 198.894531 184.410156 C 198.296875 183.769531 198.152344 182.960938 198.132812 182.105469 C 198.074219 182.09375 198.011719 182.082031 197.953125 182.070312 C 197.792969 182.578125 197.636719 183.085938 197.429688 183.742188 C 197.316406 183.304688 197.230469 182.964844 197.167969 182.726562 C 196.265625 182.777344 195.351562 182.828125 194.3125 182.886719 C 191.96875 186.320312 190.304688 187.023438 187.585938 185.582031 C 186.132812 186.585938 185.449219 188.105469 184.902344 189.726562 C 184.792969 188.027344 185.390625 186.558594 186.308594 185.320312 C 185.421875 185.320312 184.515625 185.351562 183.613281 185.3125 C 182.601562 185.269531 181.796875 184.761719 181.199219 183.976562 C 180.902344 183.589844 180.621094 183.480469 180.175781 183.648438 C 178.0625 184.433594 175.941406 185.203125 173.832031 186.003906 C 173.671875 186.066406 173.457031 186.394531 173.5 186.527344 C 174.46875 189.546875 175.832031 192.328125 178.632812 194.09375 C 180.515625 195.28125 182.625 195.632812 184.8125 195.511719 C 185.296875 195.484375 185.617188 195.597656 185.929688 195.949219 C 186.175781 196.230469 186.496094 196.449219 186.847656 196.652344 C 185.976562 195.691406 185.355469 194.636719 185.28125 193.25 C 186.761719 195.347656 188.894531 195.558594 191.074219 195.371094 C 195.277344 195.007812 198.867188 193.171875 202.214844 190.664062 C 205.210938 188.425781 206.5625 185.441406 206.847656 181.859375 C 207 179.902344 207.042969 177.9375 207.125 175.972656 C 207.136719 175.777344 207.097656 175.582031 207.074219 175.25 C 206.859375 175.527344 206.722656 175.707031 206.585938 175.882812 C 207.160156 174.34375 206.183594 173.648438 205.09375 172.980469 C 204.632812 172.703125 204.238281 172.316406 203.820312 171.972656 C 203.257812 171.511719 202.671875 171.109375 201.867188 171.050781 C 201.816406 171.371094 201.789062 171.65625 201.726562 171.9375 C 201.476562 173.074219 200.613281 173.660156 199.523438 173.308594 C 198.824219 173.082031 198.128906 172.742188 197.542969 172.3125 C 196.417969 171.484375 196.167969 170.261719 196.761719 168.996094 C 196.953125 168.59375 197.203125 168.21875 197.429688 167.832031 C 196.683594 167.59375 196.144531 167.894531 195.839844 168.730469 C 195.457031 169.78125 195.582031 170.835938 195.929688 171.855469 C 196.828125 174.488281 198.710938 176.203125 201.234375 177.21875 C 202.339844 177.664062 203.503906 177.441406 204.652344 177.152344 C 204.234375 177.757812 203.792969 177.976562 202.425781 178.402344 Z M 202.425781 178.402344 " fill-opacity="1" fill-rule="nonzero"/><path fill="#ffffff" d="M 147.058594 201.492188 C 146.078125 202.414062 145.238281 202.488281 144.140625 201.703125 C 143.738281 201.417969 143.316406 201.109375 143.035156 200.71875 C 142.203125 199.566406 141.289062 198.441406 140.671875 197.179688 C 137.398438 190.492188 135.953125 183.402344 136.304688 175.972656 C 136.371094 174.550781 136.730469 173.117188 137.128906 171.738281 C 137.546875 170.296875 138.59375 169.65625 140.105469 169.644531 C 140.394531 169.640625 140.679688 169.644531 140.859375 169.644531 C 141.316406 168.597656 141.671875 167.589844 142.183594 166.667969 C 143.019531 165.148438 144.578125 164.367188 146.25 165.039062 C 146.324219 165.070312 146.417969 165.050781 146.519531 165.058594 C 147.371094 163.355469 148.304688 161.695312 150.351562 161.316406 C 152.386719 160.941406 153.871094 162.078125 155.25 163.371094 C 155.085938 163.386719 154.941406 163.34375 154.800781 163.292969 C 153.578125 162.867188 152.488281 163.085938 151.6875 164.109375 C 151.15625 164.792969 150.726562 165.589844 150.414062 166.402344 C 149.726562 168.1875 149.5 170.082031 149.433594 171.984375 C 149.171875 179.554688 150.617188 186.816406 153.507812 193.792969 C 154.539062 196.285156 155.789062 198.671875 157.699219 200.632812 C 158.835938 201.796875 160.09375 202.71875 161.972656 202.207031 C 161.851562 202.390625 161.800781 202.484375 161.734375 202.566406 C 160.195312 204.523438 158.03125 204.820312 155.765625 203.382812 C 155.449219 203.183594 155.140625 202.972656 154.84375 202.773438 C 153.082031 204.691406 151.53125 204.832031 149.535156 203.238281 C 148.78125 202.636719 148.121094 201.914062 147.335938 201.171875 C 147.261719 201.257812 147.171875 201.386719 147.058594 201.492188 Z M 142.503906 172.722656 C 143.285156 172.457031 144.011719 173.042969 143.996094 173.867188 C 143.863281 180.867188 145.332031 187.589844 147.582031 194.171875 C 147.75 194.660156 147.628906 194.972656 147.238281 195.199219 C 146.460938 195.652344 145.667969 195.746094 144.863281 195.179688 C 144.847656 195.257812 144.804688 195.332031 144.824219 195.371094 C 146.054688 197.609375 147.25 199.886719 149.070312 201.714844 C 149.75 202.402344 150.609375 202.984375 151.496094 203.382812 C 152.53125 203.847656 153.5 203.425781 154.308594 202.429688 C 153.578125 201.613281 152.828125 200.808594 152.109375 199.976562 C 149.824219 197.351562 148.363281 194.289062 147.472656 190.953125 C 146.042969 185.597656 144.824219 180.207031 144.914062 174.609375 C 144.957031 171.902344 145.296875 169.25 146.25 166.703125 C 146.382812 166.34375 146.304688 166.175781 145.96875 166.027344 C 144.988281 165.589844 143.859375 165.910156 143.238281 166.875 C 142.425781 168.132812 142.109375 169.570312 141.832031 171.015625 C 141.679688 171.8125 141.570312 172.617188 141.445312 173.410156 C 141.808594 173.164062 142.125 172.851562 142.503906 172.722656 Z M 141.390625 197.296875 C 142.242188 198.460938 143.058594 199.664062 144.035156 200.714844 C 145.230469 202.003906 146.023438 201.910156 147.191406 200.652344 C 141.179688 191.417969 139.425781 181.347656 140.953125 170.585938 C 139.394531 170.109375 138.230469 170.601562 137.636719 172.105469 C 137.332031 172.871094 137.1875 173.695312 137.109375 174.539062 C 137.394531 174.269531 137.640625 173.90625 137.980469 173.757812 C 138.316406 173.613281 138.769531 173.59375 139.128906 173.6875 C 139.554688 173.804688 139.578125 174.222656 139.550781 174.644531 C 139.101562 181.667969 140.359375 188.40625 142.9375 194.929688 C 143.058594 195.234375 143.070312 195.789062 142.882812 195.957031 C 142.597656 196.21875 142.101562 196.332031 141.6875 196.347656 C 141.394531 196.359375 141.09375 196.105469 140.664062 195.910156 C 140.9375 196.441406 141.105469 196.910156 141.390625 197.296875 Z M 155.5625 199.144531 C 154.539062 197.582031 153.730469 195.882812 152.832031 194.242188 C 152.695312 193.992188 152.605469 193.722656 152.488281 193.441406 C 151.59375 194.664062 150.960938 194.820312 149.460938 194.113281 C 149.800781 194.777344 150.0625 195.339844 150.367188 195.878906 C 151.628906 198.117188 153.105469 200.191406 155.046875 201.898438 C 155.992188 202.730469 157.027344 203.394531 158.292969 203.640625 C 159.101562 203.800781 159.746094 203.539062 160.363281 202.949219 C 158.117188 202.4375 156.710938 200.898438 155.5625 199.144531 Z M 148.527344 172.265625 C 148.691406 171.035156 148.816406 169.8125 149.027344 168.605469 C 149.308594 166.996094 149.746094 165.429688 150.703125 164.070312 C 151.421875 163.046875 151.96875 162.703125 153.171875 162.46875 C 152.34375 161.625 150.507812 161.527344 149.308594 162.34375 C 148.839844 162.664062 148.410156 163.113281 148.101562 163.59375 C 146.886719 165.484375 146.453125 167.632812 146.171875 169.816406 C 146.054688 170.707031 145.980469 171.601562 145.867188 172.667969 C 146.828125 171.539062 147.308594 171.488281 148.527344 172.265625 Z M 148.527344 172.265625 " fill-opacity="1" fill-rule="nonzero"/><path fill="#ffffff" d="M 226.960938 201.8125 C 226.0625 202.554688 225.214844 203.402344 224.214844 203.972656 C 222.917969 204.710938 221.621094 204.359375 220.601562 203.257812 C 220.449219 203.097656 220.304688 202.933594 220.160156 202.777344 C 216.867188 204.828125 214.148438 204.617188 213.207031 202.375 C 213.832031 202.308594 214.550781 202.378906 215.136719 202.132812 C 215.863281 201.824219 216.558594 201.332031 217.136719 200.785156 C 218.699219 199.304688 219.761719 197.457031 220.695312 195.539062 C 222.953125 190.914062 224.285156 186.003906 225.050781 180.929688 C 225.671875 176.847656 225.914062 172.753906 225.191406 168.652344 C 224.9375 167.226562 224.546875 165.832031 223.726562 164.605469 C 222.730469 163.113281 221.4375 162.746094 219.800781 163.472656 C 219.75 163.496094 219.691406 163.496094 219.484375 163.53125 C 220.925781 162.238281 222.308594 161.117188 224.234375 161.269531 C 226.574219 161.453125 227.554688 163.28125 228.453125 164.980469 C 229.203125 164.9375 229.886719 164.785156 230.53125 164.890625 C 231.886719 165.117188 232.632812 166.144531 233.179688 167.296875 C 233.53125 168.046875 233.78125 168.847656 234.085938 169.652344 C 234.246094 169.652344 234.425781 169.65625 234.605469 169.648438 C 236.417969 169.605469 237.46875 170.238281 237.949219 171.976562 C 238.347656 173.425781 238.660156 174.933594 238.726562 176.425781 C 239.003906 183.007812 237.71875 189.320312 235.199219 195.386719 C 234.3125 197.523438 233.234375 199.570312 231.515625 201.179688 C 229.976562 202.625 228.84375 202.5625 227.675781 201.230469 C 227.648438 201.199219 227.597656 201.191406 227.527344 201.15625 C 227.34375 201.371094 227.183594 201.628906 226.960938 201.8125 Z M 229.789062 170.882812 C 230.324219 174.234375 230.175781 177.601562 229.667969 180.941406 C 229.046875 185.050781 228.210938 189.121094 226.855469 193.0625 C 225.789062 196.167969 224.058594 198.867188 221.78125 201.226562 C 221.410156 201.609375 221.058594 202.019531 220.703125 202.414062 C 221.488281 203.464844 222.550781 203.859375 223.683594 203.316406 C 224.5 202.925781 225.292969 202.378906 225.925781 201.734375 C 227.765625 199.863281 228.964844 197.546875 230.183594 195.398438 C 229.558594 195.417969 228.90625 195.527344 228.289062 195.429688 C 227.417969 195.285156 227.230469 194.78125 227.507812 193.957031 C 229.664062 187.519531 231.109375 180.949219 231.007812 174.117188 C 230.996094 173.449219 231.121094 172.9375 231.792969 172.730469 C 232.421875 172.53125 232.941406 172.75 233.324219 173.292969 C 233.359375 173.34375 233.40625 173.382812 233.542969 173.527344 C 233.253906 171.238281 232.96875 169.074219 231.917969 167.113281 C 231.222656 165.808594 229.992188 165.507812 228.738281 166.222656 C 229.101562 167.8125 229.542969 169.332031 229.789062 170.882812 Z M 228.46875 201.246094 C 229.207031 201.757812 229.753906 201.757812 230.445312 201.191406 C 232.15625 199.792969 233.347656 198.003906 234.328125 195.917969 C 233.953125 196.09375 233.691406 196.25 233.40625 196.339844 C 232.917969 196.492188 232.472656 196.40625 232.109375 196.007812 C 231.773438 195.640625 231.898438 195.285156 232.058594 194.882812 C 234.664062 188.351562 235.921875 181.589844 235.441406 174.542969 C 235.386719 173.726562 236.160156 173.257812 236.929688 173.691406 C 237.289062 173.894531 237.566406 174.238281 237.871094 174.507812 C 237.980469 173.507812 237.449219 171.839844 236.769531 171.125 C 235.984375 170.304688 235.027344 170.3125 234.039062 170.546875 C 235.582031 181.339844 233.816406 191.378906 227.796875 200.683594 C 227.953125 200.816406 228.195312 201.054688 228.46875 201.246094 Z M 222.558594 193.460938 C 220.710938 197.253906 219.136719 201.265625 214.730469 203.039062 C 215.242188 203.539062 215.875 203.792969 216.667969 203.648438 C 218.132812 203.382812 219.28125 202.558594 220.324219 201.566406 C 222.480469 199.519531 224.109375 197.09375 225.378906 194.414062 C 225.414062 194.34375 225.421875 194.257812 225.449219 194.148438 C 224.035156 194.832031 223.351562 194.664062 222.558594 193.460938 Z M 226.785156 163.390625 C 225.691406 161.699219 223.335938 161.273438 221.6875 162.496094 C 223.136719 162.539062 223.964844 163.429688 224.601562 164.535156 C 225.683594 166.417969 226.039062 168.507812 226.28125 170.628906 C 226.339844 171.164062 226.382812 171.707031 226.425781 172.1875 C 226.910156 172.035156 227.398438 171.742188 227.863281 171.777344 C 228.289062 171.8125 228.691406 172.199219 229.109375 172.433594 C 228.800781 169.351562 228.585938 166.171875 226.785156 163.390625 Z M 226.785156 163.390625 " fill-opacity="1" fill-rule="nonzero"/><path fill="#ffffff" d="M 180.101562 212.824219 C 185.347656 213.242188 190.464844 213.558594 195.554688 212.441406 C 196.1875 212.300781 196.351562 212.039062 196.347656 211.402344 C 196.320312 206.90625 196.339844 202.40625 196.339844 197.910156 C 196.339844 197.78125 196.320312 197.652344 196.304688 197.441406 C 193.367188 198.652344 190.320312 198.894531 187.042969 198.882812 C 187.042969 201.160156 187.042969 203.402344 187.042969 205.640625 C 186.964844 205.640625 186.886719 205.640625 186.808594 205.640625 C 186.695312 203.644531 186.554688 201.652344 186.488281 199.65625 C 186.46875 199.007812 186.261719 198.765625 185.625 198.835938 C 185.25 198.875 184.867188 198.839844 184.398438 198.839844 C 184.320312 202.605469 184.242188 206.347656 184.164062 210.089844 C 184.132812 210.09375 184.105469 210.09375 184.074219 210.097656 C 183.886719 208.519531 183.695312 206.945312 183.511719 205.367188 C 183.273438 203.304688 183.03125 201.242188 182.800781 199.175781 C 182.757812 198.800781 182.664062 198.523438 182.203125 198.539062 C 182.027344 198.546875 181.847656 198.476562 181.667969 198.445312 C 180.230469 198.214844 180.167969 198.214844 180.148438 199.742188 C 180.097656 203.492188 180.113281 207.242188 180.101562 210.992188 C 180.097656 211.578125 180.101562 212.160156 180.101562 212.824219 Z M 180.101562 212.824219 " fill-opacity="1" fill-rule="nonzero"/><path fill="#ffffff" d="M 188.773438 179.859375 C 189.03125 179.824219 189.292969 179.785156 189.625 179.738281 C 189.6875 180.960938 189.742188 182.144531 189.804688 183.390625 C 189.390625 183.355469 189.085938 183.328125 188.78125 183.300781 C 188.757812 183.351562 188.734375 183.402344 188.714844 183.449219 C 189.191406 183.667969 189.671875 183.882812 190.152344 184.097656 C 190.148438 184.128906 190.144531 184.160156 190.144531 184.191406 C 189.714844 184.164062 189.285156 184.132812 188.855469 184.105469 C 188.828125 184.152344 188.796875 184.203125 188.769531 184.25 C 189.148438 184.449219 189.511719 184.734375 189.914062 184.824219 C 191.125 185.09375 192.441406 184.476562 193.003906 183.367188 C 193.523438 182.339844 193.777344 181.289062 193.332031 180.113281 C 193.09375 179.480469 193 178.730469 193.054688 178.054688 C 193.289062 175.199219 193.597656 172.347656 193.894531 169.496094 C 193.980469 168.691406 194.101562 167.882812 194.25 167.085938 C 194.339844 166.605469 194.519531 166.144531 194.683594 165.589844 C 193.941406 164.628906 192.980469 163.855469 191.597656 163.808594 C 190.832031 163.78125 190.0625 163.78125 189.296875 163.8125 C 188.253906 163.851562 187.648438 164.507812 187.207031 165.410156 C 188.296875 164.136719 189.644531 163.863281 191.1875 164.320312 C 190.214844 164.472656 189.0625 164.160156 188.65625 165.34375 C 189.296875 165.34375 190.078125 165.34375 190.925781 165.34375 C 190.824219 165.425781 190.796875 165.464844 190.757812 165.476562 C 188.976562 165.910156 188.84375 165.6875 188.757812 167.828125 C 188.644531 170.714844 188.734375 173.605469 188.746094 176.496094 C 188.75 176.902344 188.789062 177.304688 188.816406 177.753906 C 189.402344 177.808594 189.972656 177.859375 190.558594 177.910156 C 189.792969 178.222656 189.078125 178.511719 188.359375 178.800781 C 188.382812 178.820312 188.402344 178.839844 188.421875 178.855469 C 189.324219 178.777344 190.222656 178.625 191.121094 178.644531 C 192.171875 178.664062 192.484375 178.988281 192.613281 180.015625 C 192.707031 180.75 192.761719 181.5 192.726562 182.238281 C 192.683594 183.140625 192.203125 183.632812 191.253906 183.859375 C 192.15625 183.464844 192.210938 182.699219 192.171875 181.898438 C 192.148438 181.449219 192.125 180.996094 192.085938 180.546875 C 191.984375 179.382812 191.851562 179.238281 190.65625 179.308594 C 190.011719 179.34375 189.375 179.523438 188.730469 179.636719 C 188.746094 179.710938 188.761719 179.785156 188.773438 179.859375 Z M 188.773438 179.859375 " fill-opacity="1" fill-rule="nonzero"/><path fill="#ffffff" d="M 180.046875 166.4375 C 181.113281 165.957031 182.191406 165.5625 183.351562 165.621094 C 182.363281 166.027344 181.359375 166.441406 180.355469 166.855469 C 180.378906 166.96875 180.40625 167.082031 180.433594 167.191406 C 181.117188 167.191406 181.804688 167.191406 182.601562 167.191406 C 181.789062 167.539062 181.101562 167.832031 180.410156 168.128906 C 180.421875 168.183594 180.429688 168.238281 180.441406 168.296875 C 180.621094 168.3125 180.800781 168.332031 180.988281 168.347656 C 181.503906 171.4375 182.019531 174.527344 182.542969 177.652344 C 182.96875 177.652344 183.34375 177.652344 183.910156 177.652344 C 183.121094 178.105469 182.414062 178.402344 182.09375 179.28125 C 183.753906 178.050781 185.207031 177.96875 185.90625 178.996094 C 186.828125 180.34375 186.757812 182.464844 185.707031 183.074219 C 186.488281 182.175781 186.035156 181.253906 185.789062 180.359375 C 185.363281 178.808594 184.070312 178.503906 182.859375 179.636719 C 182.976562 179.738281 183.164062 179.824219 183.195312 179.949219 C 183.308594 180.410156 183.355469 180.882812 183.453125 181.34375 C 183.546875 181.78125 183.667969 182.210938 183.789062 182.695312 C 183.554688 182.695312 183.367188 182.695312 183.179688 182.695312 C 183.164062 182.738281 183.152344 182.78125 183.136719 182.824219 C 183.472656 183.003906 183.8125 183.183594 184.148438 183.363281 C 184.144531 183.390625 184.136719 183.417969 184.128906 183.445312 C 183.75 183.367188 183.367188 183.289062 182.980469 183.207031 C 182.757812 183.949219 183.320312 184.195312 183.835938 184.292969 C 184.832031 184.480469 185.78125 184.234375 186.578125 183.597656 C 187.089844 183.183594 187.199219 182.574219 187.15625 181.933594 C 186.867188 177.96875 186.574219 174 186.304688 170.035156 C 186.234375 168.976562 186.25 167.910156 186.210938 166.847656 C 186.203125 166.632812 186.203125 166.367188 186.082031 166.210938 C 185.355469 165.253906 184.394531 164.707031 183.164062 164.789062 C 181.890625 164.871094 180.75 165.25 180.046875 166.4375 Z M 180.046875 166.4375 " fill-opacity="1" fill-rule="nonzero"/><path fill="#ffffff" d="M 176.816406 179.15625 C 176.101562 178.492188 175.363281 177.789062 174.59375 177.121094 C 174.433594 176.984375 174.152344 176.90625 173.945312 176.925781 C 168.96875 177.445312 164.058594 178.332031 159.179688 179.40625 C 158.65625 179.523438 158.4375 179.765625 158.390625 180.246094 C 158.25 181.566406 158.5 182.804688 159.140625 183.96875 C 159.410156 184.453125 159.738281 184.589844 160.304688 184.476562 C 163.785156 183.796875 167.261719 183.085938 170.761719 182.519531 C 173.277344 182.113281 175.832031 181.910156 178.367188 181.621094 C 178.613281 181.589844 178.863281 181.578125 179.128906 181.554688 C 179.207031 181.058594 178.988281 180.953125 178.558594 180.988281 C 173.394531 181.4375 168.289062 182.242188 163.222656 183.320312 C 162.339844 183.507812 161.449219 183.671875 160.570312 183.890625 C 160.042969 184.019531 159.683594 183.882812 159.480469 183.386719 C 159.253906 182.832031 159.046875 182.273438 158.882812 181.835938 C 159.382812 181.835938 159.804688 181.902344 160.203125 181.828125 C 163.753906 181.160156 167.289062 180.414062 170.851562 179.804688 C 172.742188 179.480469 174.667969 179.378906 176.578125 179.175781 C 176.703125 179.164062 176.824219 179.152344 176.816406 179.15625 Z M 176.816406 179.15625 " fill-opacity="1" fill-rule="nonzero"/><path fill="#ffffff" d="M 208.597656 178.019531 C 208.597656 178.761719 208.574219 179.480469 208.613281 180.195312 C 208.621094 180.351562 208.828125 180.59375 208.980469 180.625 C 211.054688 181.070312 213.132812 181.5 215.21875 181.894531 C 215.472656 181.945312 215.773438 181.769531 216.097656 181.683594 C 216.03125 181.976562 215.980469 182.308594 215.878906 182.621094 C 215.46875 183.894531 215.214844 184.039062 213.933594 183.773438 C 212.277344 183.425781 210.621094 183.074219 208.957031 182.75 C 208.730469 182.703125 208.476562 182.808594 208.238281 182.84375 C 208.242188 182.933594 208.25 183.027344 208.253906 183.117188 C 209.21875 183.320312 210.179688 183.519531 211.144531 183.71875 C 212.402344 183.980469 213.660156 184.261719 214.925781 184.484375 C 215.15625 184.523438 215.53125 184.394531 215.65625 184.21875 C 216.527344 182.980469 216.804688 181.582031 216.570312 180.097656 C 216.53125 179.859375 216.230469 179.523438 216.003906 179.476562 C 213.664062 178.96875 211.3125 178.511719 208.96875 178.042969 C 208.882812 178.027344 208.792969 178.03125 208.597656 178.019531 Z M 208.597656 178.019531 " fill-opacity="1" fill-rule="nonzero"/><path fill="#ffffff" d="M 179.1875 177.527344 C 178.625 177.464844 178.011719 177.53125 177.515625 177.324219 C 176.394531 176.855469 175.789062 175.839844 175.210938 174.828125 C 175.066406 174.578125 174.914062 174.328125 174.699219 174.121094 C 175.308594 175.554688 175.855469 177.042969 177.269531 177.929688 C 178.039062 178.410156 178.875 178.324219 179.671875 177.9375 C 180.210938 177.679688 180.433594 177.226562 180.308594 176.652344 C 179.734375 174.027344 179.148438 171.40625 178.558594 168.785156 C 178.515625 168.589844 178.433594 168.402344 178.359375 168.210938 C 177.722656 166.496094 176.671875 166.101562 175.070312 166.964844 C 174.171875 167.445312 173.488281 168.328125 173.261719 169.207031 C 173.683594 168.828125 174.136719 168.253906 174.726562 167.941406 C 175.304688 167.640625 176.027344 167.605469 176.683594 167.453125 C 176.703125 167.523438 176.722656 167.589844 176.742188 167.660156 C 176.382812 167.816406 176.011719 167.957031 175.664062 168.136719 C 175.332031 168.3125 175.023438 168.53125 174.753906 168.855469 C 175.167969 168.78125 175.585938 168.707031 176.003906 168.632812 C 175.171875 169.292969 175.386719 170.027344 175.785156 170.765625 C 176.152344 171.441406 176.523438 172.113281 176.9375 172.757812 C 177.09375 173 177.371094 173.164062 177.613281 173.382812 C 177.40625 173.660156 176.683594 173.785156 177.03125 174.519531 C 177.441406 173.761719 177.960938 173.449219 178.601562 173.558594 C 178.734375 173.582031 178.871094 173.617188 178.988281 173.675781 C 179.78125 174.082031 180.238281 176.6875 179.621094 177.3125 C 179.507812 177.429688 179.316406 177.46875 179.164062 177.546875 Z M 179.1875 177.527344 " fill-opacity="1" fill-rule="nonzero"/><path fill="#ffffff" d="M 201.203125 169.589844 C 201.132812 168.867188 201.058594 168.140625 200.984375 167.417969 C 201.046875 167.394531 201.109375 167.367188 201.167969 167.34375 C 201.539062 168.285156 201.90625 169.222656 202.320312 170.277344 C 202.515625 170.339844 202.878906 170.460938 203.242188 170.578125 C 203.433594 167.34375 200.34375 164.261719 197.398438 164.785156 C 196.882812 164.878906 196.402344 165.191406 195.964844 165.550781 C 196.382812 165.460938 196.800781 165.371094 197.21875 165.277344 C 196.140625 166.203125 195.996094 166.4375 196.085938 167.28125 C 197.578125 166.890625 199.164062 167.261719 201.203125 169.589844 Z M 201.203125 169.589844 " fill-opacity="1" fill-rule="nonzero"/><path fill="#ffffff" d="M 212.335938 184.929688 C 212.023438 184.863281 211.804688 184.816406 211.480469 184.746094 C 211.363281 185.679688 211.226562 186.582031 211.140625 187.492188 C 210.828125 190.785156 210.683594 194.078125 211.488281 197.324219 C 211.664062 198.039062 211.945312 198.75 212.304688 199.390625 C 213.171875 200.929688 214.566406 201.195312 215.921875 200.054688 C 216.570312 199.507812 217.164062 198.847656 217.605469 198.132812 C 218.421875 196.820312 219.113281 195.425781 219.851562 194.066406 C 219.785156 194.03125 219.71875 193.996094 219.652344 193.957031 C 219.394531 194.453125 219.183594 194.980469 218.875 195.4375 C 218.03125 196.6875 217.261719 198.011719 216.25 199.113281 C 214.671875 200.835938 213.257812 200.484375 212.484375 198.277344 C 211.710938 196.066406 211.648438 193.75 211.753906 191.449219 C 211.839844 189.535156 212.082031 187.628906 212.253906 185.71875 C 212.277344 185.472656 212.304688 185.230469 212.335938 184.929688 Z M 212.335938 184.929688 " fill-opacity="1" fill-rule="nonzero"/><path fill="#ffffff" d="M 163.566406 184.746094 C 163.203125 184.820312 162.964844 184.867188 162.675781 184.925781 C 162.808594 186.085938 162.960938 187.222656 163.066406 188.363281 C 163.34375 191.25 163.464844 194.136719 162.855469 197 C 162.691406 197.78125 162.402344 198.566406 162.019531 199.265625 C 161.460938 200.285156 160.539062 200.519531 159.625 199.808594 C 158.78125 199.152344 158.035156 198.335938 157.386719 197.484375 C 156.699219 196.574219 156.175781 195.535156 155.585938 194.558594 C 155.574219 194.578125 155.527344 194.621094 155.539062 194.644531 C 156.304688 196.484375 157.207031 198.25 158.632812 199.6875 C 158.945312 200 159.332031 200.265625 159.726562 200.472656 C 160.628906 200.953125 161.554688 200.851562 162.171875 200.046875 C 162.695312 199.363281 163.132812 198.558594 163.386719 197.738281 C 164.210938 195.066406 164.183594 192.300781 164.027344 189.542969 C 163.9375 187.96875 163.730469 186.402344 163.566406 184.746094 Z M 163.566406 184.746094 " fill-opacity="1" fill-rule="nonzero"/><path fill="#ffffff" d="M 224.066406 174.128906 C 224.171875 171.824219 224.167969 169.636719 223.5625 167.503906 C 223.394531 166.925781 223.152344 166.351562 222.835938 165.839844 C 222.097656 164.628906 220.828125 164.296875 219.707031 165.15625 C 218.808594 165.84375 217.992188 166.699219 217.328125 167.617188 C 215.636719 169.953125 213.621094 174.867188 213.003906 177.855469 C 213.253906 177.910156 213.503906 177.964844 213.792969 178.03125 C 214.199219 176.78125 214.578125 175.558594 214.992188 174.351562 C 215.773438 172.058594 216.691406 169.820312 218.066406 167.816406 C 218.570312 167.078125 219.175781 166.378906 219.859375 165.808594 C 220.898438 164.941406 221.96875 165.132812 222.539062 166.363281 C 223.0625 167.492188 223.425781 168.726562 223.660156 169.949219 C 223.910156 171.273438 223.933594 172.640625 224.066406 174.128906 Z M 224.066406 174.128906 " fill-opacity="1" fill-rule="nonzero"/><path fill="#ffffff" d="M 150.867188 174.105469 C 151.109375 172.253906 151.292969 170.386719 151.617188 168.550781 C 151.761719 167.746094 152.113281 166.949219 152.523438 166.234375 C 153.136719 165.171875 154.121094 164.933594 155.027344 165.746094 C 155.9375 166.558594 156.757812 167.535156 157.402344 168.574219 C 159.070312 171.261719 160.050781 174.25 160.949219 177.261719 C 161.019531 177.496094 161.089844 177.734375 161.167969 177.992188 C 161.347656 177.976562 161.503906 177.96875 161.652344 177.945312 C 161.757812 177.925781 161.859375 177.878906 162.074219 177.808594 C 161.589844 176.375 161.164062 174.953125 160.636719 173.570312 C 159.621094 170.902344 158.488281 168.289062 156.519531 166.148438 C 156.15625 165.757812 155.734375 165.390625 155.277344 165.113281 C 154.03125 164.359375 152.785156 164.640625 152.117188 165.9375 C 151.664062 166.824219 151.308594 167.820312 151.179688 168.804688 C 150.949219 170.558594 150.921875 172.34375 150.808594 174.113281 C 150.828125 174.109375 150.847656 174.109375 150.867188 174.105469 Z M 150.867188 174.105469 " fill-opacity="1" fill-rule="nonzero"/><path fill="#ffffff" d="M 158.558594 177.121094 C 158.375 176.570312 158.085938 176.078125 157.445312 176.054688 C 156.789062 176.027344 156.410156 176.515625 156.304688 177.039062 C 156.074219 178.199219 155.832031 179.390625 155.851562 180.5625 C 155.890625 182.679688 156.40625 184.726562 157.394531 186.613281 C 157.746094 187.28125 158.199219 187.933594 158.730469 188.464844 C 159.625 189.351562 160.59375 188.992188 160.839844 187.75 C 160.898438 187.453125 160.917969 187.144531 160.851562 186.8125 C 160.6875 187.175781 160.550781 187.550781 160.355469 187.890625 C 160.09375 188.34375 159.722656 188.425781 159.386719 187.992188 C 159.09375 187.621094 158.824219 187.21875 158.636719 186.792969 C 157.445312 184.066406 156.84375 181.214844 156.878906 178.238281 C 156.882812 177.945312 156.917969 177.648438 156.980469 177.363281 C 157.179688 176.460938 157.546875 176.339844 158.292969 176.910156 C 158.382812 176.976562 158.472656 177.050781 158.558594 177.121094 Z M 158.558594 177.121094 " fill-opacity="1" fill-rule="nonzero"/><path fill="#ffffff" d="M 214.167969 186.816406 C 214.136719 187.628906 214.054688 188.546875 214.960938 188.863281 C 215.839844 189.171875 216.394531 188.464844 216.847656 187.851562 C 218.210938 186 218.84375 183.851562 219.050781 181.609375 C 219.167969 180.324219 219.003906 179.011719 218.941406 177.710938 C 218.933594 177.496094 218.824219 177.277344 218.730469 177.074219 C 218.5 176.578125 218.25 176.054688 217.597656 176.054688 C 216.945312 176.054688 216.632812 176.53125 216.355469 177.046875 C 216.417969 177.066406 216.457031 177.09375 216.484375 177.085938 C 216.859375 176.925781 217.234375 176.765625 217.609375 176.605469 C 217.777344 177.03125 218.058594 177.445312 218.09375 177.882812 C 218.273438 180.070312 217.851562 182.199219 217.269531 184.292969 C 217.03125 185.160156 216.671875 185.992188 216.347656 186.832031 C 216.253906 187.082031 216.136719 187.34375 215.960938 187.539062 C 215.714844 187.8125 215.40625 188.027344 215.125 188.265625 C 214.886719 187.988281 214.628906 187.722656 214.421875 187.425781 C 214.296875 187.25 214.25 187.019531 214.167969 186.816406 Z M 214.167969 186.816406 " fill-opacity="1" fill-rule="nonzero"/><path fill="#ffffff" d="M 198.0625 167.542969 C 197.660156 168.496094 197.296875 169.21875 197.066406 169.984375 C 196.992188 170.234375 197.171875 170.707031 197.390625 170.867188 C 198.195312 171.46875 199.035156 172.042969 199.929688 172.5 C 200.578125 172.832031 201.402344 172.089844 201.285156 171.242188 C 201.207031 170.71875 200.949219 170.136719 200.589844 169.757812 C 199.867188 169 199.015625 168.363281 198.0625 167.542969 Z M 198.0625 167.542969 " fill-opacity="1" fill-rule="nonzero"/><path fill="#ffffff" d="M 194.417969 176.75 C 194.792969 176.613281 194.992188 176.539062 195.253906 176.445312 C 195.253906 177.585938 195.253906 178.675781 195.253906 179.828125 C 195.0625 179.785156 194.882812 179.746094 194.523438 179.667969 C 194.753906 179.898438 194.890625 180.015625 195 180.15625 C 195.109375 180.300781 195.1875 180.472656 195.28125 180.628906 C 195.128906 180.714844 194.976562 180.800781 194.804688 180.894531 C 195.347656 181.304688 195.933594 181.226562 196.511719 180.988281 C 197.898438 180.417969 198.453125 179.019531 198.542969 177.789062 C 198.554688 177.652344 198.363281 177.46875 198.222656 177.359375 C 197.976562 177.171875 197.699219 177.027344 197.488281 176.894531 C 197.398438 177.792969 197.339844 178.679688 197.207031 179.554688 C 197.171875 179.78125 196.910156 179.972656 196.671875 180.121094 C 197.355469 179.050781 197.0625 177.945312 196.84375 176.894531 C 196.660156 176.015625 195.355469 175.886719 194.417969 176.75 Z M 194.417969 176.75 " fill-opacity="1" fill-rule="nonzero"/><g clip-path="url(#c9fc9b8764)"><path fill="#ffffff" d="M 239.316406 183.917969 C 239.152344 184.859375 238.992188 185.761719 238.8125 186.765625 C 239.121094 186.765625 239.402344 186.765625 239.757812 186.765625 C 239.390625 187.988281 239.445312 189.433594 238.039062 190.179688 C 238.398438 190.527344 238.625 190.554688 238.90625 190.191406 C 239.121094 189.910156 239.304688 189.589844 239.445312 189.265625 C 240.035156 187.898438 240.328125 186.472656 240.234375 184.984375 C 240.183594 184.144531 240.078125 184.039062 239.316406 183.917969 Z M 239.316406 183.917969 " fill-opacity="1" fill-rule="nonzero"/></g><path fill="#ffffff" d="M 137.082031 190.195312 C 136.097656 189.796875 135.328125 188.21875 135.328125 186.78125 C 135.589844 186.78125 135.851562 186.78125 136.179688 186.78125 C 136.007812 185.785156 135.855469 184.878906 135.695312 183.960938 C 135.171875 183.863281 134.894531 184.070312 134.835938 184.5625 C 134.597656 186.53125 134.980469 188.375 136.003906 190.078125 C 136.269531 190.515625 136.617188 190.542969 137.082031 190.195312 Z M 137.082031 190.195312 " fill-opacity="1" fill-rule="nonzero"/><path fill="#ffffff" d="M 179.160156 177.546875 C 179.605469 177.0625 179.664062 176.53125 179.414062 175.929688 C 179.25 175.539062 179.128906 175.125 178.996094 174.71875 C 178.828125 174.207031 178.515625 174.039062 177.996094 174.304688 C 178.273438 175.21875 178.539062 176.136719 178.835938 177.042969 C 178.894531 177.222656 179.066406 177.367188 179.1875 177.527344 C 179.1875 177.527344 179.160156 177.546875 179.160156 177.546875 Z M 179.160156 177.546875 " fill-opacity="1" fill-rule="nonzero"/><path fill="#ffffff" d="M 195.0625 173.167969 C 194.75 174.140625 195.316406 175.300781 194.273438 175.960938 C 194.929688 175.8125 195.5625 175.671875 196.21875 175.523438 C 195.863281 174.800781 195.476562 174.011719 195.0625 173.167969 Z M 195.0625 173.167969 " fill-opacity="1" fill-rule="nonzero"/><path fill="#ffffff" d="M 141.445312 173.410156 C 141.808594 173.164062 142.125 172.851562 142.503906 172.722656 C 143.285156 172.457031 144.011719 173.042969 143.996094 173.867188 C 143.863281 180.867188 145.332031 187.589844 147.582031 194.171875 C 147.75 194.660156 147.628906 194.972656 147.238281 195.199219 C 146.460938 195.652344 145.667969 195.746094 144.863281 195.179688 C 144.847656 195.257812 144.804688 195.332031 144.824219 195.371094 C 146.054688 197.609375 147.25 199.886719 149.070312 201.714844 C 149.75 202.402344 150.609375 202.984375 151.496094 203.382812 C 152.53125 203.847656 153.5 203.425781 154.308594 202.429688 C 153.578125 201.613281 152.828125 200.808594 152.109375 199.976562 C 149.824219 197.351562 148.363281 194.289062 147.472656 190.953125 C 146.042969 185.597656 144.824219 180.207031 144.914062 174.609375 C 144.957031 171.902344 145.296875 169.25 146.25 166.703125 C 146.382812 166.34375 146.304688 166.175781 145.96875 166.027344 C 144.988281 165.589844 143.859375 165.910156 143.238281 166.875 C 142.425781 168.132812 142.109375 169.570312 141.832031 171.015625 C 141.679688 171.8125 141.570312 172.617188 141.445312 173.410156 Z M 141.445312 173.410156 " fill-opacity="1" fill-rule="nonzero"/><path fill="#ffffff" d="M 140.664062 195.910156 C 140.9375 196.441406 141.105469 196.910156 141.390625 197.296875 C 142.242188 198.460938 143.058594 199.664062 144.035156 200.714844 C 145.230469 202.003906 146.023438 201.910156 147.191406 200.652344 C 141.179688 191.417969 139.425781 181.347656 140.953125 170.585938 C 139.394531 170.109375 138.230469 170.601562 137.636719 172.105469 C 137.332031 172.871094 137.1875 173.695312 137.109375 174.539062 C 137.394531 174.269531 137.640625 173.90625 137.980469 173.757812 C 138.316406 173.613281 138.769531 173.59375 139.128906 173.6875 C 139.554688 173.804688 139.578125 174.222656 139.550781 174.644531 C 139.101562 181.667969 140.359375 188.40625 142.9375 194.929688 C 143.058594 195.234375 143.070312 195.789062 142.882812 195.957031 C 142.597656 196.21875 142.101562 196.332031 141.6875 196.347656 C 141.394531 196.359375 141.09375 196.105469 140.664062 195.910156 Z M 140.664062 195.910156 " fill-opacity="1" fill-rule="nonzero"/><path fill="#ffffff" d="M 160.363281 202.949219 C 158.117188 202.4375 156.710938 200.898438 155.5625 199.144531 C 154.539062 197.582031 153.730469 195.882812 152.832031 194.242188 C 152.695312 193.992188 152.605469 193.722656 152.488281 193.441406 C 151.59375 194.664062 150.960938 194.820312 149.460938 194.113281 C 149.800781 194.777344 150.0625 195.339844 150.367188 195.878906 C 151.628906 198.117188 153.105469 200.191406 155.046875 201.898438 C 155.992188 202.730469 157.027344 203.394531 158.292969 203.640625 C 159.101562 203.800781 159.746094 203.539062 160.363281 202.949219 Z M 160.363281 202.949219 " fill-opacity="1" fill-rule="nonzero"/><path fill="#ffffff" d="M 145.867188 172.667969 C 146.828125 171.539062 147.308594 171.488281 148.527344 172.265625 C 148.691406 171.035156 148.816406 169.8125 149.027344 168.605469 C 149.304688 166.996094 149.742188 165.429688 150.703125 164.070312 C 151.421875 163.046875 151.96875 162.703125 153.171875 162.46875 C 152.34375 161.625 150.507812 161.527344 149.308594 162.34375 C 148.839844 162.664062 148.410156 163.113281 148.101562 163.59375 C 146.886719 165.484375 146.453125 167.632812 146.171875 169.816406 C 146.054688 170.707031 145.980469 171.601562 145.867188 172.667969 Z M 145.867188 172.667969 " fill-opacity="1" fill-rule="nonzero"/><path fill="#ffffff" d="M 228.738281 166.222656 C 229.101562 167.8125 229.542969 169.332031 229.789062 170.882812 C 230.324219 174.234375 230.175781 177.601562 229.667969 180.941406 C 229.046875 185.050781 228.210938 189.121094 226.855469 193.0625 C 225.789062 196.167969 224.058594 198.867188 221.78125 201.226562 C 221.410156 201.609375 221.058594 202.019531 220.703125 202.414062 C 221.488281 203.464844 222.550781 203.859375 223.683594 203.316406 C 224.5 202.925781 225.292969 202.378906 225.925781 201.734375 C 227.765625 199.863281 228.964844 197.546875 230.183594 195.398438 C 229.558594 195.417969 228.90625 195.527344 228.289062 195.429688 C 227.417969 195.285156 227.230469 194.78125 227.507812 193.957031 C 229.664062 187.519531 231.109375 180.949219 231.007812 174.117188 C 230.996094 173.449219 231.121094 172.9375 231.792969 172.730469 C 232.421875 172.53125 232.941406 172.75 233.324219 173.292969 C 233.359375 173.34375 233.40625 173.382812 233.542969 173.527344 C 233.253906 171.238281 232.96875 169.074219 231.917969 167.113281 C 231.222656 165.808594 229.992188 165.503906 228.738281 166.222656 Z M 228.738281 166.222656 " fill-opacity="1" fill-rule="nonzero"/><path fill="#ffffff" d="M 227.796875 200.683594 C 227.953125 200.816406 228.195312 201.054688 228.46875 201.246094 C 229.207031 201.757812 229.753906 201.757812 230.445312 201.191406 C 232.15625 199.792969 233.347656 198.003906 234.328125 195.917969 C 233.953125 196.09375 233.691406 196.25 233.40625 196.339844 C 232.917969 196.492188 232.472656 196.40625 232.109375 196.007812 C 231.773438 195.640625 231.898438 195.285156 232.058594 194.882812 C 234.664062 188.351562 235.921875 181.589844 235.441406 174.542969 C 235.386719 173.726562 236.160156 173.257812 236.929688 173.691406 C 237.289062 173.894531 237.566406 174.238281 237.871094 174.507812 C 237.980469 173.507812 237.449219 171.839844 236.769531 171.125 C 235.984375 170.304688 235.027344 170.3125 234.039062 170.546875 C 235.582031 181.339844 233.816406 191.378906 227.796875 200.683594 Z M 227.796875 200.683594 " fill-opacity="1" fill-rule="nonzero"/><path fill="#ffffff" d="M 225.449219 194.148438 C 224.035156 194.832031 223.351562 194.664062 222.558594 193.460938 C 220.710938 197.253906 219.136719 201.265625 214.730469 203.039062 C 215.242188 203.539062 215.875 203.792969 216.667969 203.648438 C 218.132812 203.382812 219.28125 202.558594 220.324219 201.566406 C 222.480469 199.519531 224.109375 197.09375 225.378906 194.414062 C 225.414062 194.34375 225.421875 194.257812 225.449219 194.148438 Z M 225.449219 194.148438 " fill-opacity="1" fill-rule="nonzero"/><path fill="#ffffff" d="M 229.109375 172.433594 C 228.800781 169.351562 228.585938 166.171875 226.785156 163.390625 C 225.691406 161.699219 223.335938 161.273438 221.6875 162.496094 C 223.136719 162.539062 223.964844 163.429688 224.601562 164.535156 C 225.683594 166.417969 226.039062 168.507812 226.28125 170.628906 C 226.339844 171.164062 226.382812 171.707031 226.425781 172.1875 C 226.910156 172.035156 227.398438 171.742188 227.863281 171.777344 C 228.289062 171.8125 228.691406 172.199219 229.109375 172.433594 Z M 229.109375 172.433594 " fill-opacity="1" fill-rule="nonzero"/><g fill="#ffffff" fill-opacity="1"><g transform="translate(113.541499, 155.717035)"><g><path d="M 1.480469 -0.136719 L 5.085938 -1.1875 L 9.128906 -8.292969 L 8.117188 -11.449219 L -1.578125 -16.96875 L -4.738281 -11.417969 L -1.308594 -9.464844 L -0.144531 -11.511719 L 4.742188 -8.730469 L 2.242188 -4.339844 L -12.1875 -12.554688 L -9.691406 -16.945312 L -6.582031 -15.175781 L -4.585938 -18.679688 L -9.25 -21.332031 L -12.210938 -20.667969 L -16.335938 -13.414062 L -15.292969 -9.683594 Z M 1.480469 -0.136719 "/></g></g></g><g fill="#ffffff" fill-opacity="1"><g transform="translate(127.487395, 134.864563)"><g><path d="M 3.289062 2.140625 L 8.804688 -3.261719 L 5.984375 -6.140625 L 4.667969 -4.851562 L -6.953125 -16.710938 L -5.636719 -18 L -8.457031 -20.882812 L -13.972656 -15.476562 L -11.152344 -12.597656 L -9.832031 -13.890625 L 1.785156 -2.027344 L 0.46875 -0.738281 Z M 3.289062 2.140625 "/></g></g></g><g fill="#ffffff" fill-opacity="1"><g transform="translate(142.328202, 121.815187)"><g><path d="M 1.332031 0.667969 L 4.945312 1.675781 L 12.132812 -2.222656 L 12.9375 -5.4375 L 7.621094 -15.242188 L 2.007812 -12.195312 L 3.886719 -8.726562 L 5.957031 -9.851562 L 8.636719 -4.910156 L 4.195312 -2.503906 L -3.71875 -17.097656 L 0.722656 -19.507812 L 2.425781 -16.363281 L 5.96875 -18.285156 L 3.410156 -23 L 0.546875 -23.996094 L -6.789062 -20.019531 L -7.871094 -16.300781 Z M 1.332031 0.667969 "/></g></g></g><g fill="#ffffff" fill-opacity="1"><g transform="translate(164.912536, 111.339768)"><g><path d="M 1.066406 1.039062 L 4.203125 3.101562 L 12.234375 1.570312 L 13.980469 -1.25 L 11.890625 -12.207031 L 5.617188 -11.011719 L 6.355469 -7.136719 L 8.667969 -7.574219 L 9.722656 -2.054688 L 4.757812 -1.109375 L 1.648438 -17.421875 L 6.613281 -18.367188 L 7.28125 -14.851562 L 11.242188 -15.609375 L 10.238281 -20.878906 L 7.808594 -22.699219 L -0.386719 -21.136719 L -2.546875 -17.921875 Z M 1.066406 1.039062 "/></g></g></g><g fill="#ffffff" fill-opacity="1"><g transform="translate(189.541181, 108.128655)"><g><path d="M 3.5625 -20.546875 L 3.035156 -16.550781 L 4.863281 -16.308594 L 2.699219 0.15625 L 0.871094 -0.0859375 L 0.34375 3.910156 L 15.175781 5.859375 L 16.453125 -3.847656 L 12.457031 -4.375 L 11.703125 1.339844 L 6.695312 0.679688 L 8.859375 -15.78125 L 10.691406 -15.542969 L 11.214844 -19.539062 Z M 3.5625 -20.546875 "/></g></g></g><g fill="#ffffff" fill-opacity="1"><g transform="translate(215.817115, 113.594229)"><g><path d="M -0.78125 3.847656 L 6.269531 6.988281 L 7.910156 3.308594 L 6.226562 2.558594 L 12.984375 -12.609375 L 14.671875 -11.855469 L 16.3125 -15.539062 L 9.261719 -18.683594 L 7.621094 -15 L 9.304688 -14.25 L 2.542969 0.917969 L 0.859375 0.164062 Z M -0.78125 3.847656 "/></g></g></g><g fill="#ffffff" fill-opacity="1"><g transform="translate(233.396656, 122.330875)"><g><path d="M -1.890625 3.441406 L 3.910156 8.539062 L 6.570312 5.511719 L 5.183594 4.292969 L 11.628906 -3.042969 L 6.933594 11.199219 L 9.707031 13.636719 L 23.332031 -1.863281 L 24.714844 -0.644531 L 27.378906 -3.671875 L 21.578125 -8.769531 L 18.917969 -5.742188 L 20.304688 -4.523438 L 13.558594 3.148438 L 18.507812 -11.46875 L 14.394531 -15.085938 L 11.734375 -12.058594 L 13.121094 -10.839844 L 2.15625 1.632812 L 0.769531 0.414062 Z M -1.890625 3.441406 "/></g></g></g><g fill="#ffffff" fill-opacity="1"><g transform="translate(253.705464, 142.836637)"><g><path d="M -0.640625 1.34375 L -1.574219 4.980469 L 2.46875 12.082031 L 5.699219 12.824219 L 15.394531 7.308594 L 12.234375 1.757812 L 8.804688 3.707031 L 9.972656 5.753906 L 5.085938 8.535156 L 2.585938 4.144531 L 17.019531 -4.070312 L 19.519531 0.320312 L 16.410156 2.089844 L 18.402344 5.59375 L 23.066406 2.941406 L 24.003906 0.0546875 L 19.875 -7.199219 L 16.136719 -8.203125 Z M -0.640625 1.34375 "/></g></g></g><g fill="#ffffff" fill-opacity="1"><g transform="translate(89.250546, 183.159809)"><g><path d="M 0.433594 -9.3125 L 0.433594 0.707031 L 1.707031 1.953125 L 6.042969 1.953125 L 7.113281 0.839844 L 7.113281 -1.910156 L 5.058594 -1.910156 L 5.058594 -0.101562 L 2.488281 -0.101562 L 2.488281 -8.558594 L 5.058594 -8.558594 L 5.058594 -6.78125 L 7.113281 -6.78125 L 7.113281 -9.382812 L 5.898438 -10.613281 L 1.71875 -10.613281 Z M 0.433594 -9.3125 "/></g></g></g><g fill="#ffffff" fill-opacity="1"><g transform="translate(103.158402, 183.159809)"><g><path d="M 0.433594 0.59375 L 1.691406 1.953125 L 5.769531 1.953125 L 7.113281 0.59375 L 7.113281 -9.253906 L 5.796875 -10.613281 L 1.765625 -10.613281 L 0.433594 -9.253906 Z M 5.058594 -8.558594 L 5.058594 -0.101562 L 2.488281 -0.101562 L 2.488281 -8.558594 Z M 5.058594 -8.558594 "/></g></g></g><g fill="#ffffff" fill-opacity="1"><g transform="translate(117.066258, 183.159809)"><g><path d="M 0.867188 -0.101562 L 0.867188 1.953125 L 2.921875 1.953125 L 2.921875 -0.101562 Z M 0.867188 -0.101562 "/></g></g></g><g fill="#ffffff" fill-opacity="1"><g transform="translate(254.231644, 183.159809)"><g><path d="M 0.433594 -9.3125 L 0.433594 0.707031 L 1.707031 1.953125 L 6.042969 1.953125 L 7.113281 0.839844 L 7.113281 -1.910156 L 5.058594 -1.910156 L 5.058594 -0.101562 L 2.488281 -0.101562 L 2.488281 -8.558594 L 5.058594 -8.558594 L 5.058594 -6.78125 L 7.113281 -6.78125 L 7.113281 -9.382812 L 5.898438 -10.613281 L 1.71875 -10.613281 Z M 0.433594 -9.3125 "/></g></g></g><g fill="#ffffff" fill-opacity="1"><g transform="translate(268.1395, 183.159809)"><g><path d="M 0.433594 0.59375 L 1.691406 1.953125 L 5.769531 1.953125 L 7.113281 0.59375 L 7.113281 -9.253906 L 5.796875 -10.613281 L 1.765625 -10.613281 L 0.433594 -9.253906 Z M 5.058594 -8.558594 L 5.058594 -0.101562 L 2.488281 -0.101562 L 2.488281 -8.558594 Z M 5.058594 -8.558594 "/></g></g></g><g fill="#ffffff" fill-opacity="1"><g transform="translate(282.047356, 183.159809)"><g><path d="M 0.867188 -0.101562 L 0.867188 1.953125 L 2.921875 1.953125 L 2.921875 -0.101562 Z M 0.867188 -0.101562 "/></g></g></g><g fill="#ffffff" fill-opacity="1"><g transform="translate(94.752392, 211.18607)"><g><path d="M -3.269531 2.171875 L -0.496094 9.375 L 3.265625 7.929688 L 2.601562 6.207031 L 8.589844 3.902344 L 10.957031 10.046875 L 14.160156 11.488281 L 22.953125 8.101562 L 24.289062 5.09375 L 19.75 -6.691406 L 15.988281 -5.246094 L 16.648438 -3.523438 L 1.15625 2.445312 L 0.492188 0.722656 Z M 19.914062 4.953125 L 14.113281 7.1875 L 12.296875 2.472656 L 18.097656 0.238281 Z M 19.914062 4.953125 "/></g></g></g><g fill="#ffffff" fill-opacity="1"><g transform="translate(108.428431, 239.784049)"><g><path d="M 16.519531 -12.722656 L 13.429688 -10.136719 L 14.613281 -8.722656 L 1.882812 1.941406 L 0.699219 0.523438 L -2.390625 3.113281 L 7.210938 14.582031 L 14.71875 8.292969 L 12.132812 5.203125 L 7.714844 8.902344 L 4.472656 5.03125 L 17.203125 -5.628906 L 18.386719 -4.214844 L 21.476562 -6.804688 Z M 16.519531 -12.722656 "/></g></g></g><g fill="#ffffff" fill-opacity="1"><g transform="translate(130.662603, 262.647692)"><g><path d="M 0.835938 0.253906 L -1.183594 3.742188 L 5.5 7.609375 L 7.519531 4.121094 L 5.675781 3.054688 L 6.871094 1.84375 L 12.050781 4.84375 L 11.621094 6.496094 L 9.902344 5.5 L 7.882812 8.988281 L 14.734375 12.957031 L 16.753906 9.46875 L 15.011719 8.460938 L 20.582031 -12.15625 L 17.414062 -13.992188 L 2.285156 1.09375 Z M 15.253906 -6.519531 L 13.160156 0.894531 L 9.769531 -1.070312 Z M 15.253906 -6.519531 "/></g></g></g><g fill="#ffffff" fill-opacity="1"><g transform="translate(162.61431, 277.799763)"><g><path d="M 2.820312 -11.730469 L 6.65625 -11.089844 L 7.441406 -15.792969 L 9.90625 -15.382812 L 7.171875 0.996094 L 5.351562 0.691406 L 4.6875 4.667969 L 12.304688 5.9375 L 12.96875 1.964844 L 11.148438 1.660156 L 13.882812 -14.71875 L 16.34375 -14.308594 L 15.558594 -9.605469 L 19.394531 -8.964844 L 20.84375 -17.644531 L 4.269531 -20.410156 Z M 2.820312 -11.730469 "/></g></g></g><g fill="#ffffff" fill-opacity="1"><g transform="translate(196.245564, 280.729951)"><g><path d="M -2.324219 -16.664062 L -0.570312 -17 L 6.46875 -8.175781 L 7.710938 -1.679688 L 5.902344 -1.332031 L 6.660156 2.625 L 14.242188 1.171875 L 13.484375 -2.785156 L 11.671875 -2.4375 L 10.414062 -8.988281 L 13.453125 -19.6875 L 14.929688 -19.96875 L 14.171875 -23.929688 L 6.785156 -22.511719 L 7.542969 -18.554688 L 9.242188 -18.878906 L 7.5625 -12.71875 L 3.640625 -17.808594 L 5.589844 -18.179688 L 4.832031 -22.140625 L -3.082031 -20.621094 Z M -2.324219 -16.664062 "/></g></g></g><g fill="#ffffff" fill-opacity="1"><g transform="translate(229.388313, 271.491291)"><g><path d="M 2.683594 2.867188 L 9.328125 -1.058594 L 7.28125 -4.53125 L 5.691406 -3.59375 L 2.429688 -9.117188 L 8.097656 -12.464844 L 8.992188 -15.863281 L 4.199219 -23.976562 L 1.011719 -24.796875 L -9.863281 -18.371094 L -7.8125 -14.902344 L -6.226562 -15.839844 L 2.21875 -1.542969 L 0.632812 -0.605469 Z M 1.597656 -20.460938 L 4.757812 -15.105469 L 0.40625 -12.539062 L -2.753906 -17.890625 Z M 1.597656 -20.460938 "/></g></g></g><g fill="#ffffff" fill-opacity="1"><g transform="translate(255.498477, 253.276628)"><g><path d="M -12.371094 -11.402344 L -11.191406 -12.820312 L 2.773438 -1.203125 L 6.285156 -1.5625 L 11.859375 -8.261719 L 11.539062 -11.742188 L -2.425781 -23.359375 L -1.246094 -24.777344 L -4.34375 -27.355469 L -9.28125 -21.421875 L -6.183594 -18.84375 L -5.003906 -20.261719 L 7.761719 -9.640625 L 4.148438 -5.296875 L -8.613281 -15.917969 L -7.433594 -17.335938 L -10.535156 -19.914062 L -15.472656 -13.980469 Z M -12.371094 -11.402344 "/></g></g></g><g fill="#ffffff" fill-opacity="1"><g transform="translate(275.065362, 225.288725)"><g><path d="M -17.1875 -7.363281 L -8.335938 -4.039062 L -5.375 -5.382812 L -2.871094 -12.054688 L 3.425781 -9.691406 L 1.53125 -4.640625 L -1.261719 -5.6875 L -2.675781 -1.914062 L 1.414062 -0.378906 L 4.824219 -1.949219 L 7.578125 -9.28125 L 5.773438 -13.113281 L -3.023438 -16.414062 L -6.011719 -15.082031 L -8.515625 -8.410156 L -14.015625 -10.476562 L -12.121094 -15.527344 L -9.410156 -14.507812 L -7.992188 -18.28125 L -12.40625 -19.9375 L -15.273438 -18.589844 L -18.4375 -10.164062 Z M -17.1875 -7.363281 "/></g></g></g></svg>